{"glyphs":{"0":{"ha":521,"x_min":0,"x_max":434,"o":"m 260 87 l 347 87 l 347 0 l 260 0 l 174 0 l 87 0 l 87 87 l 174 87 l 260 87 m 347 87 l 347 174 l 347 260 l 347 347 l 347 434 l 347 521 l 434 521 l 434 434 l 434 347 l 434 260 l 434 174 l 434 87 l 347 87 m 87 87 l 0 87 l 0 174 l 0 260 l 0 347 l 0 434 l 0 521 l 87 521 l 87 434 l 87 347 l 87 260 l 87 174 l 87 87 m 347 521 l 260 521 l 174 521 l 87 521 l 87 608 l 174 608 l 260 608 l 347 608 l 347 521 z "},"1":{"ha":521,"x_min":0,"x_max":434,"o":"m 347 87 l 434 87 l 434 0 l 347 0 l 260 0 l 174 0 l 87 0 l 0 0 l 0 87 l 87 87 l 174 87 l 174 174 l 174 260 l 174 347 l 174 434 l 87 434 l 87 521 l 174 521 l 174 608 l 260 608 l 260 521 l 260 434 l 260 347 l 260 260 l 260 174 l 260 87 l 347 87 z "},"2":{"ha":521,"x_min":0,"x_max":434,"o":"m 0 434 l 0 521 l 87 521 l 87 434 l 0 434 m 347 87 l 434 87 l 434 0 l 347 0 l 260 0 l 174 0 l 87 0 l 0 0 l 0 87 l 87 87 l 87 174 l 174 174 l 174 87 l 260 87 l 347 87 m 174 174 l 174 260 l 260 260 l 260 174 l 174 174 m 260 260 l 260 347 l 347 347 l 347 260 l 260 260 m 347 347 l 347 434 l 347 521 l 434 521 l 434 434 l 434 347 l 347 347 m 347 521 l 260 521 l 174 521 l 87 521 l 87 608 l 174 608 l 260 608 l 347 608 l 347 521 z "},"3":{"ha":521,"x_min":0,"x_max":434,"o":"m 0 434 l 0 521 l 87 521 l 87 434 l 0 434 m 260 87 l 347 87 l 347 0 l 260 0 l 174 0 l 87 0 l 87 87 l 174 87 l 260 87 m 347 87 l 347 174 l 347 260 l 434 260 l 434 174 l 434 87 l 347 87 m 87 87 l 0 87 l 0 174 l 87 174 l 87 87 m 347 260 l 260 260 l 174 260 l 174 347 l 260 347 l 347 347 l 347 260 m 347 347 l 347 434 l 347 521 l 434 521 l 434 434 l 434 347 l 347 347 m 347 521 l 260 521 l 174 521 l 87 521 l 87 608 l 174 608 l 260 608 l 347 608 l 347 521 z "},"4":{"ha":521,"x_min":0,"x_max":434,"o":"m 260 0 l 260 87 l 260 174 l 174 174 l 87 174 l 0 174 l 0 260 l 0 347 l 87 347 l 87 434 l 174 434 l 174 521 l 260 521 l 260 608 l 347 608 l 347 521 l 347 434 l 347 347 l 347 260 l 434 260 l 434 174 l 347 174 l 347 87 l 347 0 l 260 0 m 174 260 l 260 260 l 260 347 l 260 434 l 174 434 l 174 347 l 87 347 l 87 260 l 174 260 z "},"5":{"ha":521,"x_min":0,"x_max":434,"o":"m 260 87 l 347 87 l 347 0 l 260 0 l 174 0 l 87 0 l 0 0 l 0 87 l 87 87 l 174 87 l 260 87 m 347 87 l 347 174 l 347 260 l 347 347 l 434 347 l 434 260 l 434 174 l 434 87 l 347 87 m 347 347 l 260 347 l 174 347 l 87 347 l 0 347 l 0 434 l 0 521 l 0 608 l 87 608 l 174 608 l 260 608 l 347 608 l 434 608 l 434 521 l 347 521 l 260 521 l 174 521 l 87 521 l 87 434 l 174 434 l 260 434 l 347 434 l 347 347 z "},"6":{"ha":521,"x_min":0,"x_max":434,"o":"m 260 87 l 347 87 l 347 0 l 260 0 l 174 0 l 87 0 l 87 87 l 174 87 l 260 87 m 347 87 l 347 174 l 347 260 l 347 347 l 434 347 l 434 260 l 434 174 l 434 87 l 347 87 m 87 87 l 0 87 l 0 174 l 0 260 l 0 347 l 0 434 l 0 521 l 87 521 l 87 434 l 174 434 l 260 434 l 347 434 l 347 347 l 260 347 l 174 347 l 87 347 l 87 260 l 87 174 l 87 87 m 260 608 l 347 608 l 347 521 l 260 521 l 174 521 l 87 521 l 87 608 l 174 608 l 260 608 z "},"7":{"ha":521,"x_min":0,"x_max":434,"o":"m 174 0 l 174 87 l 174 174 l 260 174 l 260 87 l 260 0 l 174 0 m 260 174 l 260 260 l 260 347 l 347 347 l 347 260 l 347 174 l 260 174 m 347 347 l 347 434 l 347 521 l 260 521 l 174 521 l 87 521 l 0 521 l 0 608 l 87 608 l 174 608 l 260 608 l 347 608 l 434 608 l 434 521 l 434 434 l 434 347 l 347 347 z "},"8":{"ha":521,"x_min":0,"x_max":434,"o":"m 260 87 l 347 87 l 347 0 l 260 0 l 174 0 l 87 0 l 87 87 l 174 87 l 260 87 m 347 87 l 347 174 l 347 260 l 434 260 l 434 174 l 434 87 l 347 87 m 87 87 l 0 87 l 0 174 l 0 260 l 87 260 l 87 174 l 87 87 m 347 260 l 260 260 l 174 260 l 87 260 l 87 347 l 174 347 l 260 347 l 347 347 l 347 260 m 347 347 l 347 434 l 347 521 l 434 521 l 434 434 l 434 347 l 347 347 m 87 347 l 0 347 l 0 434 l 0 521 l 87 521 l 87 434 l 87 347 m 347 521 l 260 521 l 174 521 l 87 521 l 87 608 l 174 608 l 260 608 l 347 608 l 347 521 z "},"9":{"ha":521,"x_min":0,"x_max":434,"o":"m 260 87 l 347 87 l 347 0 l 260 0 l 174 0 l 87 0 l 87 87 l 174 87 l 260 87 m 347 87 l 347 174 l 260 174 l 174 174 l 87 174 l 87 260 l 174 260 l 260 260 l 347 260 l 347 347 l 347 434 l 347 521 l 434 521 l 434 434 l 434 347 l 434 260 l 434 174 l 434 87 l 347 87 m 87 260 l 0 260 l 0 347 l 0 434 l 0 521 l 87 521 l 87 434 l 87 347 l 87 260 m 347 521 l 260 521 l 174 521 l 87 521 l 87 608 l 174 608 l 260 608 l 347 608 l 347 521 z "}," ":{"ha":434,"x_min":0,"x_max":0,"o":""},"!":{"ha":174,"x_min":0,"x_max":87,"o":"m 0 0 l 0 87 l 87 87 l 87 0 l 0 0 m 0 174 l 0 260 l 0 347 l 0 434 l 0 521 l 0 608 l 87 608 l 87 521 l 87 434 l 87 347 l 87 260 l 87 174 l 0 174 z "},"\"":{"ha":347,"x_min":0,"x_max":260,"o":"m 174 434 l 174 521 l 174 608 l 260 608 l 260 521 l 260 434 l 174 434 m 0 434 l 0 521 l 0 608 l 87 608 l 87 521 l 87 434 l 0 434 z "},"#":{"ha":521,"x_min":0,"x_max":434,"o":"m 260 0 l 260 87 l 174 87 l 174 0 l 87 0 l 87 87 l 0 87 l 0 174 l 87 174 l 87 260 l 87 347 l 0 347 l 0 434 l 87 434 l 87 521 l 174 521 l 174 434 l 260 434 l 260 521 l 347 521 l 347 434 l 434 434 l 434 347 l 347 347 l 347 260 l 347 174 l 434 174 l 434 87 l 347 87 l 347 0 l 260 0 m 260 174 l 260 260 l 260 347 l 174 347 l 174 260 l 174 174 l 260 174 z "},"$":{"ha":521,"x_min":0,"x_max":434,"o":"m 174 0 l 174 87 l 87 87 l 0 87 l 0 174 l 87 174 l 174 174 l 174 260 l 87 260 l 87 347 l 0 347 l 0 434 l 87 434 l 87 521 l 174 521 l 174 608 l 260 608 l 260 521 l 347 521 l 434 521 l 434 434 l 347 434 l 260 434 l 260 347 l 347 347 l 347 260 l 434 260 l 434 174 l 347 174 l 347 260 l 260 260 l 260 174 l 347 174 l 347 87 l 260 87 l 260 0 l 174 0 m 174 347 l 174 434 l 87 434 l 87 347 l 174 347 z "},"%":{"ha":521,"x_min":0,"x_max":434,"o":"m 0 0 l 0 87 l 0 174 l 87 174 l 87 87 l 87 0 l 0 0 m 347 0 l 260 0 l 260 87 l 260 174 l 347 174 l 434 174 l 434 87 l 434 0 l 347 0 m 87 174 l 87 260 l 174 260 l 174 174 l 87 174 m 174 260 l 174 347 l 260 347 l 260 260 l 174 260 m 260 347 l 260 434 l 347 434 l 347 347 l 260 347 m 347 434 l 347 521 l 347 608 l 434 608 l 434 521 l 434 434 l 347 434 m 87 434 l 0 434 l 0 521 l 0 608 l 87 608 l 174 608 l 174 521 l 174 434 l 87 434 z "},"&":{"ha":608,"x_min":0,"x_max":521,"o":"m 434 0 l 434 87 l 521 87 l 521 0 l 434 0 m 260 87 l 347 87 l 347 0 l 260 0 l 174 0 l 87 0 l 87 87 l 174 87 l 260 87 m 434 87 l 347 87 l 347 174 l 347 260 l 434 260 l 434 174 l 434 87 m 87 87 l 0 87 l 0 174 l 0 260 l 87 260 l 87 174 l 87 87 m 87 260 l 87 347 l 87 434 l 87 521 l 174 521 l 174 434 l 174 347 l 260 347 l 260 260 l 174 260 l 87 260 m 260 347 l 260 434 l 260 521 l 347 521 l 347 434 l 347 347 l 260 347 m 260 521 l 174 521 l 174 608 l 260 608 l 260 521 z "},"'":{"ha":174,"x_min":0,"x_max":87,"o":"m 0 434 l 0 521 l 0 608 l 87 608 l 87 521 l 87 434 l 0 434 z "},"(":{"ha":260,"x_min":0,"x_max":174,"o":"m 87 -87 l 87 0 l 174 0 l 174 -87 l 87 -87 m 87 0 l 0 0 l 0 87 l 0 174 l 0 260 l 0 347 l 0 434 l 0 521 l 87 521 l 87 434 l 87 347 l 87 260 l 87 174 l 87 87 l 87 0 m 87 521 l 87 608 l 174 608 l 174 521 l 87 521 z "},")":{"ha":260,"x_min":0,"x_max":174,"o":"m 0 -87 l 0 0 l 87 0 l 87 -87 l 0 -87 m 87 0 l 87 87 l 87 174 l 87 260 l 87 347 l 87 434 l 87 521 l 174 521 l 174 434 l 174 347 l 174 260 l 174 174 l 174 87 l 174 0 l 87 0 m 87 521 l 0 521 l 0 608 l 87 608 l 87 521 z "},"*":{"ha":347,"x_min":0,"x_max":260,"o":"m 174 347 l 174 434 l 260 434 l 260 347 l 174 347 m 0 347 l 0 434 l 87 434 l 87 347 l 0 347 m 174 434 l 87 434 l 87 521 l 174 521 l 174 434 m 174 521 l 174 608 l 260 608 l 260 521 l 174 521 m 87 521 l 0 521 l 0 608 l 87 608 l 87 521 z "},"+":{"ha":521,"x_min":0,"x_max":434,"o":"m 174 87 l 174 174 l 174 260 l 87 260 l 0 260 l 0 347 l 87 347 l 174 347 l 174 434 l 174 521 l 260 521 l 260 434 l 260 347 l 347 347 l 434 347 l 434 260 l 347 260 l 260 260 l 260 174 l 260 87 l 174 87 z "},",":{"ha":260,"x_min":0,"x_max":174,"o":"m 0 -87 l 0 0 l 87 0 l 87 -87 l 0 -87 m 87 0 l 87 87 l 174 87 l 174 0 l 87 0 z "},"-":{"ha":521,"x_min":0,"x_max":434,"o":"m 347 347 l 434 347 l 434 260 l 347 260 l 260 260 l 174 260 l 87 260 l 0 260 l 0 347 l 87 347 l 174 347 l 260 347 l 347 347 z "},".":{"ha":174,"x_min":0,"x_max":87,"o":"m 0 0 l 0 87 l 87 87 l 87 0 l 0 0 z "},"/":{"ha":347,"x_min":0,"x_max":260,"o":"m 0 0 l 0 87 l 0 174 l 87 174 l 87 87 l 87 0 l 0 0 m 87 174 l 87 260 l 87 347 l 87 434 l 174 434 l 174 347 l 174 260 l 174 174 l 87 174 m 174 434 l 174 521 l 174 608 l 260 608 l 260 521 l 260 434 l 174 434 z "},":":{"ha":174,"x_min":0,"x_max":87,"o":"m 0 0 l 0 87 l 87 87 l 87 0 l 0 0 m 0 260 l 0 347 l 87 347 l 87 260 l 0 260 z "},";":{"ha":260,"x_min":0,"x_max":174,"o":"m 0 -87 l 0 0 l 87 0 l 87 -87 l 0 -87 m 87 260 l 87 347 l 174 347 l 174 260 l 87 260 m 87 0 l 87 87 l 174 87 l 174 0 l 87 0 z "},"<":{"ha":347,"x_min":0,"x_max":260,"o":"m 174 87 l 174 174 l 260 174 l 260 87 l 174 87 m 174 174 l 87 174 l 87 260 l 174 260 l 174 174 m 87 260 l 0 260 l 0 347 l 87 347 l 87 260 m 87 347 l 87 434 l 174 434 l 174 347 l 87 347 m 174 434 l 174 521 l 260 521 l 260 434 l 174 434 z "},"=":{"ha":434,"x_min":0,"x_max":347,"o":"m 260 260 l 347 260 l 347 174 l 260 174 l 174 174 l 87 174 l 0 174 l 0 260 l 87 260 l 174 260 l 260 260 m 260 434 l 347 434 l 347 347 l 260 347 l 174 347 l 87 347 l 0 347 l 0 434 l 87 434 l 174 434 l 260 434 z "},">":{"ha":347,"x_min":0,"x_max":260,"o":"m 0 87 l 0 174 l 87 174 l 87 87 l 0 87 m 87 174 l 87 260 l 174 260 l 174 174 l 87 174 m 174 260 l 174 347 l 260 347 l 260 260 l 174 260 m 174 347 l 87 347 l 87 434 l 174 434 l 174 347 m 87 434 l 0 434 l 0 521 l 87 521 l 87 434 z "},"?":{"ha":521,"x_min":0,"x_max":434,"o":"m 174 0 l 174 87 l 260 87 l 260 0 l 174 0 m 174 174 l 174 260 l 260 260 l 260 174 l 174 174 m 0 434 l 0 521 l 87 521 l 87 434 l 0 434 m 260 260 l 260 347 l 347 347 l 347 260 l 260 260 m 347 347 l 347 434 l 347 521 l 434 521 l 434 434 l 434 347 l 347 347 m 347 521 l 260 521 l 174 521 l 87 521 l 87 608 l 174 608 l 260 608 l 347 608 l 347 521 z "},"@":{"ha":521,"x_min":0,"x_max":434,"o":"m 347 87 l 434 87 l 434 0 l 347 0 l 260 0 l 174 0 l 87 0 l 87 87 l 174 87 l 260 87 l 347 87 m 87 87 l 0 87 l 0 174 l 0 260 l 0 347 l 0 434 l 0 521 l 87 521 l 87 434 l 87 347 l 87 260 l 87 174 l 87 87 m 347 174 l 260 174 l 174 174 l 174 260 l 174 347 l 174 434 l 260 434 l 347 434 l 347 521 l 434 521 l 434 434 l 434 347 l 434 260 l 434 174 l 347 174 m 347 260 l 347 347 l 260 347 l 260 260 l 347 260 m 347 521 l 260 521 l 174 521 l 87 521 l 87 608 l 174 608 l 260 608 l 347 608 l 347 521 z "},"A":{"ha":521,"x_min":0,"x_max":434,"o":"m 347 0 l 347 87 l 347 174 l 260 174 l 174 174 l 87 174 l 87 87 l 87 0 l 0 0 l 0 87 l 0 174 l 0 260 l 0 347 l 0 434 l 0 521 l 87 521 l 87 434 l 87 347 l 87 260 l 174 260 l 260 260 l 347 260 l 347 347 l 347 434 l 347 521 l 434 521 l 434 434 l 434 347 l 434 260 l 434 174 l 434 87 l 434 0 l 347 0 m 347 521 l 260 521 l 174 521 l 87 521 l 87 608 l 174 608 l 260 608 l 347 608 l 347 521 z "},"B":{"ha":521,"x_min":0,"x_max":434,"o":"m 260 87 l 347 87 l 347 174 l 347 260 l 347 347 l 260 347 l 174 347 l 87 347 l 87 260 l 87 174 l 87 87 l 174 87 l 260 87 m 260 0 l 174 0 l 87 0 l 0 0 l 0 87 l 0 174 l 0 260 l 0 347 l 0 434 l 0 521 l 0 608 l 87 608 l 174 608 l 260 608 l 347 608 l 347 521 l 434 521 l 434 434 l 347 434 l 347 521 l 260 521 l 174 521 l 87 521 l 87 434 l 174 434 l 260 434 l 347 434 l 347 347 l 434 347 l 434 260 l 434 174 l 434 87 l 347 87 l 347 0 l 260 0 z "},"C":{"ha":521,"x_min":0,"x_max":434,"o":"m 347 87 l 434 87 l 434 0 l 347 0 l 260 0 l 174 0 l 87 0 l 87 87 l 174 87 l 260 87 l 347 87 m 87 87 l 0 87 l 0 174 l 0 260 l 0 347 l 0 434 l 87 434 l 87 347 l 87 260 l 87 174 l 87 87 m 87 434 l 87 521 l 174 521 l 174 434 l 87 434 m 347 608 l 434 608 l 434 521 l 347 521 l 260 521 l 174 521 l 174 608 l 260 608 l 347 608 z "},"D":{"ha":521,"x_min":0,"x_max":434,"o":"m 260 87 l 347 87 l 347 174 l 347 260 l 347 347 l 347 434 l 260 434 l 260 521 l 174 521 l 87 521 l 87 434 l 87 347 l 87 260 l 87 174 l 87 87 l 174 87 l 260 87 m 260 0 l 174 0 l 87 0 l 0 0 l 0 87 l 0 174 l 0 260 l 0 347 l 0 434 l 0 521 l 0 608 l 87 608 l 174 608 l 260 608 l 260 521 l 347 521 l 347 434 l 434 434 l 434 347 l 434 260 l 434 174 l 434 87 l 347 87 l 347 0 l 260 0 z "},"E":{"ha":521,"x_min":0,"x_max":434,"o":"m 347 87 l 434 87 l 434 0 l 347 0 l 260 0 l 174 0 l 87 0 l 87 87 l 174 87 l 260 87 l 347 87 m 87 87 l 0 87 l 0 174 l 0 260 l 0 347 l 0 434 l 0 521 l 87 521 l 87 434 l 174 434 l 260 434 l 347 434 l 347 347 l 260 347 l 174 347 l 87 347 l 87 260 l 87 174 l 87 87 m 347 608 l 434 608 l 434 521 l 347 521 l 260 521 l 174 521 l 87 521 l 87 608 l 174 608 l 260 608 l 347 608 z "},"F":{"ha":521,"x_min":0,"x_max":434,"o":"m 0 0 l 0 87 l 0 174 l 0 260 l 0 347 l 0 434 l 0 521 l 87 521 l 87 434 l 174 434 l 260 434 l 347 434 l 347 347 l 260 347 l 174 347 l 87 347 l 87 260 l 87 174 l 87 87 l 87 0 l 0 0 m 347 608 l 434 608 l 434 521 l 347 521 l 260 521 l 174 521 l 87 521 l 87 608 l 174 608 l 260 608 l 347 608 z "},"G":{"ha":521,"x_min":0,"x_max":434,"o":"m 347 434 l 347 521 l 434 521 l 434 434 l 347 434 m 260 87 l 347 87 l 347 0 l 260 0 l 174 0 l 87 0 l 87 87 l 174 87 l 260 87 m 347 87 l 347 174 l 347 260 l 260 260 l 174 260 l 174 347 l 260 347 l 347 347 l 434 347 l 434 260 l 434 174 l 434 87 l 347 87 m 87 87 l 0 87 l 0 174 l 0 260 l 0 347 l 0 434 l 0 521 l 87 521 l 87 434 l 87 347 l 87 260 l 87 174 l 87 87 m 347 521 l 260 521 l 174 521 l 87 521 l 87 608 l 174 608 l 260 608 l 347 608 l 347 521 z "},"H":{"ha":521,"x_min":0,"x_max":434,"o":"m 347 0 l 347 87 l 347 174 l 347 260 l 347 347 l 260 347 l 174 347 l 87 347 l 87 260 l 87 174 l 87 87 l 87 0 l 0 0 l 0 87 l 0 174 l 0 260 l 0 347 l 0 434 l 0 521 l 0 608 l 87 608 l 87 521 l 87 434 l 174 434 l 260 434 l 347 434 l 347 521 l 347 608 l 434 608 l 434 521 l 434 434 l 434 347 l 434 260 l 434 174 l 434 87 l 434 0 l 347 0 z "},"I":{"ha":521,"x_min":0,"x_max":434,"o":"m 347 87 l 434 87 l 434 0 l 347 0 l 260 0 l 174 0 l 87 0 l 0 0 l 0 87 l 87 87 l 174 87 l 174 174 l 174 260 l 174 347 l 174 434 l 174 521 l 87 521 l 0 521 l 0 608 l 87 608 l 174 608 l 260 608 l 347 608 l 434 608 l 434 521 l 347 521 l 260 521 l 260 434 l 260 347 l 260 260 l 260 174 l 260 87 l 347 87 z "},"J":{"ha":521,"x_min":0,"x_max":434,"o":"m 174 87 l 260 87 l 260 0 l 174 0 l 87 0 l 0 0 l 0 87 l 87 87 l 174 87 m 260 87 l 260 174 l 347 174 l 347 87 l 260 87 m 347 174 l 347 260 l 347 347 l 347 434 l 347 521 l 260 521 l 174 521 l 87 521 l 0 521 l 0 608 l 87 608 l 174 608 l 260 608 l 347 608 l 434 608 l 434 521 l 434 434 l 434 347 l 434 260 l 434 174 l 347 174 z "},"K":{"ha":521,"x_min":0,"x_max":434,"o":"m 347 0 l 347 87 l 347 174 l 434 174 l 434 87 l 434 0 l 347 0 m 0 0 l 0 87 l 0 174 l 0 260 l 0 347 l 0 434 l 0 521 l 0 608 l 87 608 l 87 521 l 87 434 l 87 347 l 174 347 l 260 347 l 260 260 l 347 260 l 347 174 l 260 174 l 260 260 l 174 260 l 87 260 l 87 174 l 87 87 l 87 0 l 0 0 m 260 347 l 260 434 l 347 434 l 347 347 l 260 347 m 347 434 l 347 521 l 347 608 l 434 608 l 434 521 l 434 434 l 347 434 z "},"L":{"ha":521,"x_min":0,"x_max":434,"o":"m 347 87 l 434 87 l 434 0 l 347 0 l 260 0 l 174 0 l 87 0 l 87 87 l 174 87 l 260 87 l 347 87 m 87 87 l 0 87 l 0 174 l 0 260 l 0 347 l 0 434 l 0 521 l 0 608 l 87 608 l 87 521 l 87 434 l 87 347 l 87 260 l 87 174 l 87 87 z "},"M":{"ha":694,"x_min":0,"x_max":608,"o":"m 521 0 l 521 87 l 521 174 l 521 260 l 521 347 l 521 434 l 521 521 l 608 521 l 608 434 l 608 347 l 608 260 l 608 174 l 608 87 l 608 0 l 521 0 m 0 0 l 0 87 l 0 174 l 0 260 l 0 347 l 0 434 l 0 521 l 87 521 l 87 434 l 87 347 l 87 260 l 87 174 l 87 87 l 87 0 l 0 0 m 260 87 l 260 174 l 260 260 l 260 347 l 260 434 l 260 521 l 347 521 l 347 434 l 347 347 l 347 260 l 347 174 l 347 87 l 260 87 m 521 521 l 434 521 l 347 521 l 347 608 l 434 608 l 521 608 l 521 521 m 260 521 l 174 521 l 87 521 l 87 608 l 174 608 l 260 608 l 260 521 z "},"N":{"ha":521,"x_min":0,"x_max":434,"o":"m 347 0 l 347 87 l 347 174 l 347 260 l 347 347 l 347 434 l 434 434 l 434 347 l 434 260 l 434 174 l 434 87 l 434 0 l 347 0 m 0 0 l 0 87 l 0 174 l 0 260 l 0 347 l 0 434 l 0 521 l 0 608 l 87 608 l 174 608 l 260 608 l 260 521 l 347 521 l 347 434 l 260 434 l 260 521 l 174 521 l 87 521 l 87 434 l 87 347 l 87 260 l 87 174 l 87 87 l 87 0 l 0 0 z "},"O":{"ha":521,"x_min":0,"x_max":434,"o":"m 260 87 l 347 87 l 347 0 l 260 0 l 174 0 l 87 0 l 87 87 l 174 87 l 260 87 m 347 87 l 347 174 l 347 260 l 347 347 l 347 434 l 347 521 l 434 521 l 434 434 l 434 347 l 434 260 l 434 174 l 434 87 l 347 87 m 87 87 l 0 87 l 0 174 l 0 260 l 0 347 l 0 434 l 0 521 l 87 521 l 87 434 l 87 347 l 87 260 l 87 174 l 87 87 m 347 521 l 260 521 l 174 521 l 87 521 l 87 608 l 174 608 l 260 608 l 347 608 l 347 521 z "},"P":{"ha":521,"x_min":0,"x_max":434,"o":"m 0 0 l 0 87 l 0 174 l 0 260 l 0 347 l 0 434 l 0 521 l 0 608 l 87 608 l 174 608 l 260 608 l 347 608 l 347 521 l 434 521 l 434 434 l 434 347 l 434 260 l 347 260 l 347 347 l 347 434 l 347 521 l 260 521 l 174 521 l 87 521 l 87 434 l 87 347 l 87 260 l 174 260 l 260 260 l 347 260 l 347 174 l 260 174 l 174 174 l 87 174 l 87 87 l 87 0 l 0 0 z "},"Q":{"ha":521,"x_min":0,"x_max":434,"o":"m 347 0 l 347 87 l 434 87 l 434 0 l 347 0 m 174 87 l 260 87 l 260 0 l 174 0 l 87 0 l 87 87 l 174 87 m 347 87 l 260 87 l 260 174 l 347 174 l 347 87 m 87 87 l 0 87 l 0 174 l 0 260 l 0 347 l 0 434 l 0 521 l 87 521 l 87 434 l 87 347 l 87 260 l 87 174 l 87 87 m 347 174 l 347 260 l 347 347 l 347 434 l 347 521 l 434 521 l 434 434 l 434 347 l 434 260 l 434 174 l 347 174 m 260 174 l 174 174 l 174 260 l 260 260 l 260 174 m 347 521 l 260 521 l 174 521 l 87 521 l 87 608 l 174 608 l 260 608 l 347 608 l 347 521 z "},"R":{"ha":521,"x_min":0,"x_max":434,"o":"m 347 0 l 347 87 l 347 174 l 434 174 l 434 87 l 434 0 l 347 0 m 0 0 l 0 87 l 0 174 l 0 260 l 0 347 l 0 434 l 0 521 l 0 608 l 87 608 l 174 608 l 260 608 l 347 608 l 347 521 l 434 521 l 434 434 l 434 347 l 434 260 l 347 260 l 347 347 l 347 434 l 347 521 l 260 521 l 174 521 l 87 521 l 87 434 l 87 347 l 87 260 l 174 260 l 260 260 l 347 260 l 347 174 l 260 174 l 174 174 l 87 174 l 87 87 l 87 0 l 0 0 z "},"S":{"ha":521,"x_min":0,"x_max":434,"o":"m 260 87 l 347 87 l 347 0 l 260 0 l 174 0 l 87 0 l 0 0 l 0 87 l 87 87 l 174 87 l 260 87 m 347 87 l 347 174 l 347 260 l 434 260 l 434 174 l 434 87 l 347 87 m 347 260 l 260 260 l 174 260 l 87 260 l 87 347 l 174 347 l 260 347 l 347 347 l 347 260 m 87 347 l 0 347 l 0 434 l 0 521 l 87 521 l 87 434 l 87 347 m 347 608 l 434 608 l 434 521 l 347 521 l 260 521 l 174 521 l 87 521 l 87 608 l 174 608 l 260 608 l 347 608 z "},"T":{"ha":521,"x_min":0,"x_max":434,"o":"m 174 0 l 174 87 l 174 174 l 174 260 l 174 347 l 174 434 l 174 521 l 87 521 l 0 521 l 0 608 l 87 608 l 174 608 l 260 608 l 347 608 l 434 608 l 434 521 l 347 521 l 260 521 l 260 434 l 260 347 l 260 260 l 260 174 l 260 87 l 260 0 l 174 0 z "},"U":{"ha":521,"x_min":0,"x_max":434,"o":"m 260 87 l 347 87 l 347 0 l 260 0 l 174 0 l 87 0 l 87 87 l 174 87 l 260 87 m 347 87 l 347 174 l 347 260 l 347 347 l 347 434 l 347 521 l 347 608 l 434 608 l 434 521 l 434 434 l 434 347 l 434 260 l 434 174 l 434 87 l 347 87 m 87 87 l 0 87 l 0 174 l 0 260 l 0 347 l 0 434 l 0 521 l 0 608 l 87 608 l 87 521 l 87 434 l 87 347 l 87 260 l 87 174 l 87 87 z "},"V":{"ha":521,"x_min":0,"x_max":434,"o":"m 174 0 l 174 87 l 260 87 l 260 0 l 174 0 m 260 87 l 260 174 l 347 174 l 347 87 l 260 87 m 174 87 l 87 87 l 87 174 l 174 174 l 174 87 m 347 174 l 347 260 l 347 347 l 347 434 l 347 521 l 347 608 l 434 608 l 434 521 l 434 434 l 434 347 l 434 260 l 434 174 l 347 174 m 87 174 l 0 174 l 0 260 l 0 347 l 0 434 l 0 521 l 0 608 l 87 608 l 87 521 l 87 434 l 87 347 l 87 260 l 87 174 z "},"W":{"ha":694,"x_min":0,"x_max":608,"o":"m 434 87 l 521 87 l 521 0 l 434 0 l 347 0 l 347 87 l 434 87 m 174 87 l 260 87 l 260 0 l 174 0 l 87 0 l 87 87 l 174 87 m 521 87 l 521 174 l 521 260 l 521 347 l 521 434 l 521 521 l 521 608 l 608 608 l 608 521 l 608 434 l 608 347 l 608 260 l 608 174 l 608 87 l 521 87 m 347 87 l 260 87 l 260 174 l 260 260 l 260 347 l 260 434 l 347 434 l 347 347 l 347 260 l 347 174 l 347 87 m 87 87 l 0 87 l 0 174 l 0 260 l 0 347 l 0 434 l 0 521 l 0 608 l 87 608 l 87 521 l 87 434 l 87 347 l 87 260 l 87 174 l 87 87 z "},"X":{"ha":521,"x_min":0,"x_max":434,"o":"m 347 0 l 347 87 l 347 174 l 434 174 l 434 87 l 434 0 l 347 0 m 0 0 l 0 87 l 0 174 l 87 174 l 87 87 l 87 0 l 0 0 m 347 174 l 260 174 l 260 260 l 347 260 l 347 174 m 87 174 l 87 260 l 174 260 l 174 174 l 87 174 m 260 260 l 174 260 l 174 347 l 260 347 l 260 260 m 260 347 l 260 434 l 347 434 l 347 347 l 260 347 m 174 347 l 87 347 l 87 434 l 174 434 l 174 347 m 347 434 l 347 521 l 347 608 l 434 608 l 434 521 l 434 434 l 347 434 m 87 434 l 0 434 l 0 521 l 0 608 l 87 608 l 87 521 l 87 434 z "},"Y":{"ha":521,"x_min":0,"x_max":434,"o":"m 174 0 l 174 87 l 174 174 l 174 260 l 260 260 l 260 174 l 260 87 l 260 0 l 174 0 m 260 260 l 260 347 l 347 347 l 347 260 l 260 260 m 174 260 l 87 260 l 87 347 l 174 347 l 174 260 m 347 347 l 347 434 l 347 521 l 347 608 l 434 608 l 434 521 l 434 434 l 434 347 l 347 347 m 87 347 l 0 347 l 0 434 l 0 521 l 0 608 l 87 608 l 87 521 l 87 434 l 87 347 z "},"Z":{"ha":521,"x_min":0,"x_max":434,"o":"m 347 87 l 434 87 l 434 0 l 347 0 l 260 0 l 174 0 l 87 0 l 0 0 l 0 87 l 0 174 l 87 174 l 87 87 l 174 87 l 260 87 l 347 87 m 87 174 l 87 260 l 174 260 l 174 174 l 87 174 m 174 260 l 174 347 l 260 347 l 260 260 l 174 260 m 260 347 l 260 434 l 347 434 l 347 347 l 260 347 m 347 434 l 347 521 l 260 521 l 174 521 l 87 521 l 0 521 l 0 608 l 87 608 l 174 608 l 260 608 l 347 608 l 434 608 l 434 521 l 434 434 l 347 434 z "},"[":{"ha":260,"x_min":0,"x_max":174,"o":"m 87 -87 l 0 -87 l 0 0 l 0 87 l 0 174 l 0 260 l 0 347 l 0 434 l 0 521 l 0 608 l 87 608 l 174 608 l 174 521 l 87 521 l 87 434 l 87 347 l 87 260 l 87 174 l 87 87 l 87 0 l 174 0 l 174 -87 l 87 -87 z "},"\\":{"ha":347,"x_min":0,"x_max":260,"o":"m 174 0 l 174 87 l 174 174 l 260 174 l 260 87 l 260 0 l 174 0 m 174 174 l 87 174 l 87 260 l 87 347 l 87 434 l 174 434 l 174 347 l 174 260 l 174 174 m 87 434 l 0 434 l 0 521 l 0 608 l 87 608 l 87 521 l 87 434 z "},"]":{"ha":260,"x_min":0,"x_max":174,"o":"m 87 -87 l 0 -87 l 0 0 l 87 0 l 87 87 l 87 174 l 87 260 l 87 347 l 87 434 l 87 521 l 0 521 l 0 608 l 87 608 l 174 608 l 174 521 l 174 434 l 174 347 l 174 260 l 174 174 l 174 87 l 174 0 l 174 -87 l 87 -87 z "},"^":{"ha":521,"x_min":0,"x_max":434,"o":"m 347 347 l 347 434 l 434 434 l 434 347 l 347 347 m 0 347 l 0 434 l 87 434 l 87 347 l 0 347 m 347 434 l 260 434 l 260 521 l 347 521 l 347 434 m 87 434 l 87 521 l 174 521 l 174 434 l 87 434 m 260 521 l 174 521 l 174 608 l 260 608 l 260 521 z "},"_":{"ha":521,"x_min":0,"x_max":434,"o":"m 347 87 l 434 87 l 434 0 l 347 0 l 260 0 l 174 0 l 87 0 l 0 0 l 0 87 l 87 87 l 174 87 l 260 87 l 347 87 z "},"`":{"ha":260,"x_min":0,"x_max":174,"o":"m 87 434 l 87 521 l 174 521 l 174 434 l 87 434 m 87 521 l 0 521 l 0 608 l 87 608 l 87 521 z "},"a":{"ha":521,"x_min":0,"x_max":434,"o":"m 347 0 l 260 0 l 174 0 l 87 0 l 87 87 l 0 87 l 0 174 l 87 174 l 87 260 l 174 260 l 260 260 l 347 260 l 347 347 l 434 347 l 434 260 l 434 174 l 434 87 l 434 0 l 347 0 m 260 87 l 347 87 l 347 174 l 260 174 l 174 174 l 87 174 l 87 87 l 174 87 l 260 87 m 347 347 l 260 347 l 174 347 l 87 347 l 87 434 l 174 434 l 260 434 l 347 434 l 347 347 z "},"b":{"ha":521,"x_min":0,"x_max":434,"o":"m 260 87 l 347 87 l 347 174 l 347 260 l 347 347 l 260 347 l 174 347 l 87 347 l 87 260 l 87 174 l 87 87 l 174 87 l 260 87 m 260 0 l 174 0 l 87 0 l 0 0 l 0 87 l 0 174 l 0 260 l 0 347 l 0 434 l 0 521 l 0 608 l 87 608 l 87 521 l 87 434 l 174 434 l 260 434 l 347 434 l 347 347 l 434 347 l 434 260 l 434 174 l 434 87 l 347 87 l 347 0 l 260 0 z "},"c":{"ha":434,"x_min":0,"x_max":347,"o":"m 260 87 l 347 87 l 347 0 l 260 0 l 174 0 l 87 0 l 87 87 l 174 87 l 260 87 m 87 87 l 0 87 l 0 174 l 0 260 l 0 347 l 87 347 l 87 260 l 87 174 l 87 87 m 260 434 l 347 434 l 347 347 l 260 347 l 174 347 l 87 347 l 87 434 l 174 434 l 260 434 z "},"d":{"ha":521,"x_min":0,"x_max":434,"o":"m 347 0 l 260 0 l 174 0 l 87 0 l 87 87 l 0 87 l 0 174 l 0 260 l 0 347 l 87 347 l 87 434 l 174 434 l 260 434 l 347 434 l 347 521 l 347 608 l 434 608 l 434 521 l 434 434 l 434 347 l 434 260 l 434 174 l 434 87 l 434 0 l 347 0 m 260 87 l 347 87 l 347 174 l 347 260 l 347 347 l 260 347 l 174 347 l 87 347 l 87 260 l 87 174 l 87 87 l 174 87 l 260 87 z "},"e":{"ha":521,"x_min":0,"x_max":434,"o":"m 260 87 l 347 87 l 347 0 l 260 0 l 174 0 l 87 0 l 87 87 l 174 87 l 260 87 m 87 87 l 0 87 l 0 174 l 0 260 l 0 347 l 87 347 l 87 260 l 174 260 l 260 260 l 347 260 l 347 347 l 434 347 l 434 260 l 434 174 l 347 174 l 260 174 l 174 174 l 87 174 l 87 87 m 347 347 l 260 347 l 174 347 l 87 347 l 87 434 l 174 434 l 260 434 l 347 434 l 347 347 z "},"f":{"ha":434,"x_min":0,"x_max":347,"o":"m 87 0 l 87 87 l 87 174 l 87 260 l 87 347 l 0 347 l 0 434 l 87 434 l 87 521 l 174 521 l 174 434 l 260 434 l 347 434 l 347 347 l 260 347 l 174 347 l 174 260 l 174 174 l 174 87 l 174 0 l 87 0 m 260 608 l 347 608 l 347 521 l 260 521 l 174 521 l 174 608 l 260 608 z "},"g":{"ha":521,"x_min":0,"x_max":434,"o":"m 260 -87 l 347 -87 l 347 -174 l 260 -174 l 174 -174 l 87 -174 l 87 -87 l 174 -87 l 260 -87 m 347 -87 l 347 0 l 260 0 l 174 0 l 87 0 l 87 87 l 174 87 l 260 87 l 347 87 l 347 174 l 347 260 l 347 347 l 434 347 l 434 260 l 434 174 l 434 87 l 434 0 l 434 -87 l 347 -87 m 87 87 l 0 87 l 0 174 l 0 260 l 0 347 l 87 347 l 87 260 l 87 174 l 87 87 m 347 347 l 260 347 l 174 347 l 87 347 l 87 434 l 174 434 l 260 434 l 347 434 l 347 347 z "},"h":{"ha":521,"x_min":0,"x_max":434,"o":"m 347 0 l 347 87 l 347 174 l 347 260 l 347 347 l 434 347 l 434 260 l 434 174 l 434 87 l 434 0 l 347 0 m 0 0 l 0 87 l 0 174 l 0 260 l 0 347 l 0 434 l 0 521 l 0 608 l 87 608 l 87 521 l 87 434 l 174 434 l 260 434 l 347 434 l 347 347 l 260 347 l 174 347 l 87 347 l 87 260 l 87 174 l 87 87 l 87 0 l 0 0 z "},"i":{"ha":260,"x_min":0,"x_max":174,"o":"m 87 0 l 87 87 l 87 174 l 87 260 l 87 347 l 0 347 l 0 434 l 87 434 l 174 434 l 174 347 l 174 260 l 174 174 l 174 87 l 174 0 l 87 0 m 87 521 l 87 608 l 174 608 l 174 521 l 87 521 z "},"j":{"ha":347,"x_min":0,"x_max":260,"o":"m 174 521 l 174 608 l 260 608 l 260 521 l 174 521 m 87 -87 l 174 -87 l 174 -174 l 87 -174 l 0 -174 l 0 -87 l 87 -87 m 174 -87 l 174 0 l 174 87 l 174 174 l 174 260 l 174 347 l 87 347 l 87 434 l 174 434 l 260 434 l 260 347 l 260 260 l 260 174 l 260 87 l 260 0 l 260 -87 l 174 -87 z "},"k":{"ha":434,"x_min":0,"x_max":347,"o":"m 260 0 l 260 87 l 347 87 l 347 0 l 260 0 m 0 0 l 0 87 l 0 174 l 0 260 l 0 347 l 0 434 l 0 521 l 0 608 l 87 608 l 87 521 l 87 434 l 87 347 l 87 260 l 174 260 l 174 174 l 260 174 l 260 87 l 174 87 l 174 174 l 87 174 l 87 87 l 87 0 l 0 0 m 174 260 l 174 347 l 260 347 l 260 260 l 174 260 m 260 347 l 260 434 l 347 434 l 347 347 l 260 347 z "},"l":{"ha":260,"x_min":0,"x_max":174,"o":"m 87 0 l 87 87 l 174 87 l 174 0 l 87 0 m 87 87 l 0 87 l 0 174 l 0 260 l 0 347 l 0 434 l 0 521 l 0 608 l 87 608 l 87 521 l 87 434 l 87 347 l 87 260 l 87 174 l 87 87 z "},"m":{"ha":694,"x_min":0,"x_max":608,"o":"m 521 0 l 521 87 l 521 174 l 521 260 l 521 347 l 608 347 l 608 260 l 608 174 l 608 87 l 608 0 l 521 0 m 260 0 l 260 87 l 260 174 l 260 260 l 260 347 l 174 347 l 174 260 l 87 260 l 87 174 l 87 87 l 87 0 l 0 0 l 0 87 l 0 174 l 0 260 l 0 347 l 0 434 l 87 434 l 87 347 l 174 347 l 174 434 l 260 434 l 347 434 l 434 434 l 521 434 l 521 347 l 434 347 l 347 347 l 347 260 l 347 174 l 347 87 l 347 0 l 260 0 z "},"n":{"ha":521,"x_min":0,"x_max":434,"o":"m 347 0 l 347 87 l 347 174 l 347 260 l 347 347 l 434 347 l 434 260 l 434 174 l 434 87 l 434 0 l 347 0 m 0 0 l 0 87 l 0 174 l 0 260 l 0 347 l 0 434 l 87 434 l 87 347 l 174 347 l 174 260 l 87 260 l 87 174 l 87 87 l 87 0 l 0 0 m 347 347 l 260 347 l 174 347 l 174 434 l 260 434 l 347 434 l 347 347 z "},"o":{"ha":521,"x_min":0,"x_max":434,"o":"m 260 87 l 347 87 l 347 0 l 260 0 l 174 0 l 87 0 l 87 87 l 174 87 l 260 87 m 347 87 l 347 174 l 347 260 l 347 347 l 434 347 l 434 260 l 434 174 l 434 87 l 347 87 m 87 87 l 0 87 l 0 174 l 0 260 l 0 347 l 87 347 l 87 260 l 87 174 l 87 87 m 347 347 l 260 347 l 174 347 l 87 347 l 87 434 l 174 434 l 260 434 l 347 434 l 347 347 z "},"p":{"ha":521,"x_min":0,"x_max":434,"o":"m 0 -174 l 0 -87 l 0 0 l 0 87 l 0 174 l 0 260 l 0 347 l 0 434 l 87 434 l 174 434 l 260 434 l 347 434 l 347 347 l 434 347 l 434 260 l 434 174 l 434 87 l 347 87 l 347 174 l 347 260 l 347 347 l 260 347 l 174 347 l 87 347 l 87 260 l 87 174 l 87 87 l 174 87 l 260 87 l 347 87 l 347 0 l 260 0 l 174 0 l 87 0 l 87 -87 l 87 -174 l 0 -174 z "},"q":{"ha":521,"x_min":0,"x_max":434,"o":"m 347 -174 l 347 -87 l 347 0 l 260 0 l 174 0 l 87 0 l 87 87 l 0 87 l 0 174 l 0 260 l 0 347 l 87 347 l 87 434 l 174 434 l 260 434 l 347 434 l 434 434 l 434 347 l 434 260 l 434 174 l 434 87 l 434 0 l 434 -87 l 434 -174 l 347 -174 m 260 87 l 347 87 l 347 174 l 347 260 l 347 347 l 260 347 l 174 347 l 87 347 l 87 260 l 87 174 l 87 87 l 174 87 l 260 87 z "},"r":{"ha":434,"x_min":0,"x_max":347,"o":"m 0 0 l 0 87 l 0 174 l 0 260 l 0 347 l 0 434 l 87 434 l 87 347 l 174 347 l 174 260 l 87 260 l 87 174 l 87 87 l 87 0 l 0 0 m 260 434 l 347 434 l 347 347 l 260 347 l 174 347 l 174 434 l 260 434 z "},"s":{"ha":521,"x_min":0,"x_max":434,"o":"m 260 87 l 347 87 l 347 0 l 260 0 l 174 0 l 87 0 l 0 0 l 0 87 l 87 87 l 174 87 l 260 87 m 347 87 l 347 174 l 434 174 l 434 87 l 347 87 m 347 174 l 260 174 l 174 174 l 87 174 l 87 260 l 174 260 l 260 260 l 347 260 l 347 174 m 87 260 l 0 260 l 0 347 l 87 347 l 87 260 m 347 434 l 434 434 l 434 347 l 347 347 l 260 347 l 174 347 l 87 347 l 87 434 l 174 434 l 260 434 l 347 434 z "},"t":{"ha":434,"x_min":0,"x_max":347,"o":"m 260 87 l 347 87 l 347 0 l 260 0 l 174 0 l 174 87 l 260 87 m 174 87 l 87 87 l 87 174 l 87 260 l 87 347 l 0 347 l 0 434 l 87 434 l 87 521 l 87 608 l 174 608 l 174 521 l 174 434 l 260 434 l 347 434 l 347 347 l 260 347 l 174 347 l 174 260 l 174 174 l 174 87 z "},"u":{"ha":521,"x_min":0,"x_max":434,"o":"m 347 0 l 347 87 l 260 87 l 260 0 l 174 0 l 87 0 l 87 87 l 174 87 l 260 87 l 260 174 l 347 174 l 347 260 l 347 347 l 347 434 l 434 434 l 434 347 l 434 260 l 434 174 l 434 87 l 434 0 l 347 0 m 87 87 l 0 87 l 0 174 l 0 260 l 0 347 l 0 434 l 87 434 l 87 347 l 87 260 l 87 174 l 87 87 z "},"v":{"ha":521,"x_min":0,"x_max":434,"o":"m 174 0 l 174 87 l 260 87 l 260 0 l 174 0 m 260 87 l 260 174 l 347 174 l 347 87 l 260 87 m 174 87 l 87 87 l 87 174 l 174 174 l 174 87 m 347 174 l 347 260 l 347 347 l 347 434 l 434 434 l 434 347 l 434 260 l 434 174 l 347 174 m 87 174 l 0 174 l 0 260 l 0 347 l 0 434 l 87 434 l 87 347 l 87 260 l 87 174 z "},"w":{"ha":694,"x_min":0,"x_max":608,"o":"m 434 87 l 521 87 l 521 0 l 434 0 l 347 0 l 347 87 l 434 87 m 174 87 l 260 87 l 260 0 l 174 0 l 87 0 l 87 87 l 174 87 m 521 87 l 521 174 l 521 260 l 521 347 l 521 434 l 608 434 l 608 347 l 608 260 l 608 174 l 608 87 l 521 87 m 347 87 l 260 87 l 260 174 l 260 260 l 260 347 l 347 347 l 347 260 l 347 174 l 347 87 m 87 87 l 0 87 l 0 174 l 0 260 l 0 347 l 0 434 l 87 434 l 87 347 l 87 260 l 87 174 l 87 87 z "},"x":{"ha":521,"x_min":0,"x_max":434,"o":"m 347 0 l 347 87 l 434 87 l 434 0 l 347 0 m 0 0 l 0 87 l 87 87 l 87 0 l 0 0 m 347 87 l 260 87 l 260 174 l 347 174 l 347 87 m 87 87 l 87 174 l 174 174 l 174 87 l 87 87 m 260 174 l 174 174 l 174 260 l 260 260 l 260 174 m 260 260 l 260 347 l 347 347 l 347 260 l 260 260 m 174 260 l 87 260 l 87 347 l 174 347 l 174 260 m 347 347 l 347 434 l 434 434 l 434 347 l 347 347 m 87 347 l 0 347 l 0 434 l 87 434 l 87 347 z "},"y":{"ha":521,"x_min":0,"x_max":434,"o":"m 260 -87 l 347 -87 l 347 -174 l 260 -174 l 174 -174 l 87 -174 l 87 -87 l 174 -87 l 260 -87 m 347 -87 l 347 0 l 260 0 l 174 0 l 87 0 l 87 87 l 174 87 l 260 87 l 347 87 l 347 174 l 347 260 l 347 347 l 347 434 l 434 434 l 434 347 l 434 260 l 434 174 l 434 87 l 434 0 l 434 -87 l 347 -87 m 87 87 l 0 87 l 0 174 l 0 260 l 0 347 l 0 434 l 87 434 l 87 347 l 87 260 l 87 174 l 87 87 z "},"z":{"ha":521,"x_min":0,"x_max":434,"o":"m 347 87 l 434 87 l 434 0 l 347 0 l 260 0 l 174 0 l 87 0 l 0 0 l 0 87 l 87 87 l 87 174 l 174 174 l 174 87 l 260 87 l 347 87 m 174 174 l 174 260 l 260 260 l 260 174 l 174 174 m 260 260 l 260 347 l 174 347 l 87 347 l 0 347 l 0 434 l 87 434 l 174 434 l 260 434 l 347 434 l 434 434 l 434 347 l 347 347 l 347 260 l 260 260 z "},"{":{"ha":347,"x_min":0,"x_max":260,"o":"m 174 -87 l 87 -87 l 87 0 l 87 87 l 87 174 l 87 260 l 0 260 l 0 347 l 87 347 l 87 434 l 87 521 l 87 608 l 174 608 l 260 608 l 260 521 l 174 521 l 174 434 l 174 347 l 174 260 l 174 174 l 174 87 l 174 0 l 260 0 l 260 -87 l 174 -87 z "},"|":{"ha":174,"x_min":0,"x_max":87,"o":"m 0 0 l 0 87 l 0 174 l 0 260 l 0 347 l 0 434 l 0 521 l 0 608 l 87 608 l 87 521 l 87 434 l 87 347 l 87 260 l 87 174 l 87 87 l 87 0 l 0 0 z "},"}":{"ha":347,"x_min":0,"x_max":260,"o":"m 87 -87 l 0 -87 l 0 0 l 87 0 l 87 87 l 87 174 l 87 260 l 87 347 l 87 434 l 87 521 l 0 521 l 0 608 l 87 608 l 174 608 l 174 521 l 174 434 l 174 347 l 260 347 l 260 260 l 174 260 l 174 174 l 174 87 l 174 0 l 174 -87 l 87 -87 z "},"~":{"ha":521,"x_min":0,"x_max":434,"o":"m 260 174 l 260 260 l 347 260 l 347 174 l 260 174 m 0 260 l 0 347 l 87 347 l 87 260 l 0 260 m 347 260 l 347 347 l 434 347 l 434 260 l 347 260 m 260 260 l 174 260 l 174 347 l 260 347 l 260 260 m 174 347 l 87 347 l 87 434 l 174 434 l 174 347 z "}," ":{"ha":434,"x_min":0,"x_max":0,"o":""},"¡":{"ha":174,"x_min":0,"x_max":87,"o":"m 0 -174 l 0 -87 l 0 0 l 0 87 l 0 174 l 0 260 l 87 260 l 87 174 l 87 87 l 87 0 l 87 -87 l 87 -174 l 0 -174 m 0 347 l 0 434 l 87 434 l 87 347 l 0 347 z "},"¢":{"ha":521,"x_min":0,"x_max":434,"o":"m 174 0 l 174 87 l 87 87 l 87 174 l 0 174 l 0 260 l 0 347 l 0 434 l 87 434 l 87 521 l 174 521 l 174 608 l 260 608 l 260 521 l 347 521 l 347 434 l 434 434 l 434 347 l 347 347 l 347 434 l 260 434 l 260 347 l 260 260 l 260 174 l 347 174 l 347 87 l 260 87 l 260 0 l 174 0 m 347 174 l 347 260 l 434 260 l 434 174 l 347 174 m 174 174 l 174 260 l 174 347 l 174 434 l 87 434 l 87 347 l 87 260 l 87 174 l 174 174 z "},"£":{"ha":521,"x_min":0,"x_max":434,"o":"m 347 434 l 347 521 l 434 521 l 434 434 l 347 434 m 347 87 l 434 87 l 434 0 l 347 0 l 260 0 l 174 0 l 87 0 l 0 0 l 0 87 l 87 87 l 87 174 l 0 174 l 0 260 l 87 260 l 87 347 l 87 434 l 87 521 l 174 521 l 174 434 l 174 347 l 174 260 l 260 260 l 260 174 l 174 174 l 174 87 l 260 87 l 347 87 m 347 521 l 260 521 l 174 521 l 174 608 l 260 608 l 347 608 l 347 521 z "},"¤":{"ha":521,"x_min":0,"x_max":434,"o":"m 347 87 l 347 174 l 434 174 l 434 87 l 347 87 m 0 87 l 0 174 l 87 174 l 87 87 l 0 87 m 347 174 l 260 174 l 174 174 l 87 174 l 87 260 l 87 347 l 87 434 l 174 434 l 260 434 l 347 434 l 347 347 l 347 260 l 347 174 m 260 260 l 260 347 l 174 347 l 174 260 l 260 260 m 347 434 l 347 521 l 434 521 l 434 434 l 347 434 m 87 434 l 0 434 l 0 521 l 87 521 l 87 434 z "},"¥":{"ha":521,"x_min":0,"x_max":434,"o":"m 174 0 l 174 87 l 87 87 l 0 87 l 0 174 l 87 174 l 174 174 l 174 260 l 87 260 l 0 260 l 0 347 l 87 347 l 174 347 l 174 434 l 260 434 l 260 347 l 347 347 l 434 347 l 434 260 l 347 260 l 260 260 l 260 174 l 347 174 l 434 174 l 434 87 l 347 87 l 260 87 l 260 0 l 174 0 m 260 434 l 260 521 l 347 521 l 347 434 l 260 434 m 174 434 l 87 434 l 87 521 l 174 521 l 174 434 m 347 521 l 347 608 l 434 608 l 434 521 l 347 521 m 87 521 l 0 521 l 0 608 l 87 608 l 87 521 z "},"¦":{"ha":174,"x_min":0,"x_max":87,"o":"m 0 0 l 0 87 l 0 174 l 0 260 l 87 260 l 87 174 l 87 87 l 87 0 l 0 0 m 0 347 l 0 434 l 0 521 l 0 608 l 87 608 l 87 521 l 87 434 l 87 347 l 0 347 z "},"§":{"ha":521,"x_min":0,"x_max":434,"o":"m 347 347 l 347 434 l 434 434 l 434 347 l 347 347 m 260 0 l 347 0 l 347 -87 l 260 -87 l 174 -87 l 87 -87 l 87 0 l 174 0 l 260 0 m 347 0 l 347 87 l 434 87 l 434 0 l 347 0 m 87 0 l 0 0 l 0 87 l 87 87 l 87 0 m 347 87 l 260 87 l 174 87 l 174 174 l 260 174 l 260 260 l 347 260 l 347 174 l 347 87 m 174 174 l 87 174 l 87 260 l 87 347 l 174 347 l 260 347 l 260 260 l 174 260 l 174 174 m 87 347 l 0 347 l 0 434 l 87 434 l 87 347 m 347 434 l 260 434 l 174 434 l 87 434 l 87 521 l 174 521 l 260 521 l 347 521 l 347 434 z "},"¨":{"ha":347,"x_min":0,"x_max":260,"o":"m 174 521 l 174 608 l 260 608 l 260 521 l 174 521 m 0 521 l 0 608 l 87 608 l 87 521 l 0 521 z "},"©":{"ha":608,"x_min":0,"x_max":521,"o":"m 347 87 l 434 87 l 434 0 l 347 0 l 260 0 l 174 0 l 87 0 l 87 87 l 174 87 l 260 87 l 347 87 m 434 87 l 434 174 l 434 260 l 434 347 l 434 434 l 434 521 l 521 521 l 521 434 l 521 347 l 521 260 l 521 174 l 521 87 l 434 87 m 87 87 l 0 87 l 0 174 l 0 260 l 0 347 l 0 434 l 0 521 l 87 521 l 87 434 l 87 347 l 87 260 l 87 174 l 87 87 m 260 174 l 174 174 l 174 260 l 174 347 l 174 434 l 260 434 l 347 434 l 347 347 l 260 347 l 260 260 l 347 260 l 347 174 l 260 174 m 434 521 l 347 521 l 260 521 l 174 521 l 87 521 l 87 608 l 174 608 l 260 608 l 347 608 l 434 608 l 434 521 z "},"ª":{"ha":347,"x_min":0,"x_max":260,"o":"m 174 260 l 87 260 l 0 260 l 0 347 l 0 434 l 87 434 l 87 521 l 0 521 l 0 608 l 87 608 l 174 608 l 174 521 l 260 521 l 260 434 l 260 347 l 260 260 l 174 260 m 174 347 l 174 434 l 87 434 l 87 347 l 174 347 z "},"«":{"ha":521,"x_min":0,"x_max":434,"o":"m 347 87 l 347 174 l 434 174 l 434 87 l 347 87 m 174 87 l 174 174 l 260 174 l 260 87 l 174 87 m 347 174 l 260 174 l 260 260 l 347 260 l 347 174 m 174 174 l 87 174 l 87 260 l 174 260 l 174 174 m 260 260 l 174 260 l 174 347 l 260 347 l 260 260 m 87 260 l 0 260 l 0 347 l 87 347 l 87 260 m 260 347 l 260 434 l 347 434 l 347 347 l 260 347 m 174 347 l 87 347 l 87 434 l 174 434 l 174 347 m 347 434 l 347 521 l 434 521 l 434 434 l 347 434 m 260 434 l 174 434 l 174 521 l 260 521 l 260 434 z "},"¬":{"ha":521,"x_min":0,"x_max":434,"o":"m 347 260 l 347 347 l 260 347 l 174 347 l 87 347 l 0 347 l 0 434 l 87 434 l 174 434 l 260 434 l 347 434 l 434 434 l 434 347 l 434 260 l 347 260 z "},"®":{"ha":608,"x_min":0,"x_max":521,"o":"m 174 174 l 174 260 l 174 347 l 174 434 l 260 434 l 347 434 l 347 347 l 260 347 l 260 260 l 260 174 l 174 174 m 347 87 l 434 87 l 434 0 l 347 0 l 260 0 l 174 0 l 87 0 l 87 87 l 174 87 l 260 87 l 347 87 m 434 87 l 434 174 l 434 260 l 434 347 l 434 434 l 434 521 l 521 521 l 521 434 l 521 347 l 521 260 l 521 174 l 521 87 l 434 87 m 87 87 l 0 87 l 0 174 l 0 260 l 0 347 l 0 434 l 0 521 l 87 521 l 87 434 l 87 347 l 87 260 l 87 174 l 87 87 m 434 521 l 347 521 l 260 521 l 174 521 l 87 521 l 87 608 l 174 608 l 260 608 l 347 608 l 434 608 l 434 521 z "},"¯":{"ha":521,"x_min":0,"x_max":434,"o":"m 347 608 l 434 608 l 434 521 l 347 521 l 260 521 l 174 521 l 87 521 l 0 521 l 0 608 l 87 608 l 174 608 l 260 608 l 347 608 z "},"°":{"ha":347,"x_min":0,"x_max":260,"o":"m 174 347 l 87 347 l 0 347 l 0 434 l 0 521 l 0 608 l 87 608 l 174 608 l 260 608 l 260 521 l 260 434 l 260 347 l 174 347 m 174 434 l 174 521 l 87 521 l 87 434 l 174 434 z "},"±":{"ha":521,"x_min":0,"x_max":434,"o":"m 347 174 l 434 174 l 434 87 l 347 87 l 260 87 l 174 87 l 87 87 l 0 87 l 0 174 l 87 174 l 174 174 l 174 260 l 87 260 l 0 260 l 0 347 l 87 347 l 174 347 l 174 434 l 174 521 l 260 521 l 260 434 l 260 347 l 347 347 l 434 347 l 434 260 l 347 260 l 260 260 l 260 174 l 347 174 z "},"²":{"ha":347,"x_min":0,"x_max":260,"o":"m 174 260 l 87 260 l 0 260 l 0 347 l 87 347 l 87 434 l 174 434 l 174 347 l 260 347 l 260 260 l 174 260 m 174 434 l 174 521 l 260 521 l 260 434 l 174 434 m 174 521 l 87 521 l 0 521 l 0 608 l 87 608 l 174 608 l 174 521 z "},"³":{"ha":347,"x_min":0,"x_max":260,"o":"m 87 347 l 174 347 l 174 260 l 87 260 l 0 260 l 0 347 l 87 347 m 174 347 l 174 434 l 87 434 l 87 521 l 0 521 l 0 608 l 87 608 l 174 608 l 174 521 l 260 521 l 260 434 l 260 347 l 174 347 z "},"´":{"ha":260,"x_min":0,"x_max":174,"o":"m 0 434 l 0 521 l 87 521 l 87 434 l 0 434 m 87 521 l 87 608 l 174 608 l 174 521 l 87 521 z "},"µ":{"ha":521,"x_min":0,"x_max":434,"o":"m 0 -174 l 0 -87 l 0 0 l 0 87 l 0 174 l 0 260 l 0 347 l 0 434 l 87 434 l 87 347 l 87 260 l 87 174 l 87 87 l 174 87 l 260 87 l 347 87 l 347 0 l 260 0 l 174 0 l 87 0 l 87 -87 l 87 -174 l 0 -174 m 347 87 l 347 174 l 347 260 l 347 347 l 347 434 l 434 434 l 434 347 l 434 260 l 434 174 l 434 87 l 347 87 z "},"¶":{"ha":521,"x_min":0,"x_max":434,"o":"m 347 0 l 347 87 l 347 174 l 347 260 l 347 347 l 347 434 l 347 521 l 260 521 l 260 434 l 260 347 l 260 260 l 260 174 l 260 87 l 260 0 l 174 0 l 174 87 l 174 174 l 87 174 l 87 260 l 0 260 l 0 347 l 0 434 l 0 521 l 87 521 l 87 608 l 174 608 l 260 608 l 347 608 l 434 608 l 434 521 l 434 434 l 434 347 l 434 260 l 434 174 l 434 87 l 434 0 l 347 0 z "},"·":{"ha":174,"x_min":0,"x_max":87,"o":"m 0 260 l 0 347 l 87 347 l 87 260 l 0 260 z "},"¸":{"ha":260,"x_min":0,"x_max":174,"o":"m 0 -87 l 0 0 l 87 0 l 87 -87 l 0 -87 m 87 0 l 87 87 l 174 87 l 174 0 l 87 0 z "},"¹":{"ha":347,"x_min":0,"x_max":260,"o":"m 174 260 l 87 260 l 0 260 l 0 347 l 87 347 l 87 434 l 0 434 l 0 521 l 87 521 l 87 608 l 174 608 l 174 521 l 174 434 l 174 347 l 260 347 l 260 260 l 174 260 z "},"º":{"ha":347,"x_min":0,"x_max":260,"o":"m 87 260 l 87 347 l 174 347 l 174 260 l 87 260 m 174 347 l 174 434 l 174 521 l 260 521 l 260 434 l 260 347 l 174 347 m 87 347 l 0 347 l 0 434 l 0 521 l 87 521 l 87 434 l 87 347 m 174 521 l 87 521 l 87 608 l 174 608 l 174 521 z "},"»":{"ha":521,"x_min":0,"x_max":434,"o":"m 174 87 l 174 174 l 260 174 l 260 87 l 174 87 m 0 87 l 0 174 l 87 174 l 87 87 l 0 87 m 260 174 l 260 260 l 347 260 l 347 174 l 260 174 m 174 174 l 87 174 l 87 260 l 174 260 l 174 174 m 347 260 l 347 347 l 434 347 l 434 260 l 347 260 m 260 260 l 174 260 l 174 347 l 260 347 l 260 260 m 347 347 l 260 347 l 260 434 l 347 434 l 347 347 m 174 347 l 87 347 l 87 434 l 174 434 l 174 347 m 260 434 l 174 434 l 174 521 l 260 521 l 260 434 m 87 434 l 0 434 l 0 521 l 87 521 l 87 434 z "},"¼":{"ha":694,"x_min":0,"x_max":608,"o":"m 521 0 l 521 87 l 434 87 l 347 87 l 347 174 l 347 260 l 347 347 l 434 347 l 434 260 l 434 174 l 521 174 l 521 260 l 521 347 l 608 347 l 608 260 l 608 174 l 608 87 l 608 0 l 521 0 m 0 0 l 0 87 l 87 87 l 87 0 l 0 0 m 434 434 l 434 521 l 521 521 l 521 434 l 434 434 m 87 87 l 87 174 l 174 174 l 174 87 l 87 87 m 174 260 l 87 260 l 0 260 l 0 347 l 87 347 l 87 434 l 87 521 l 0 521 l 0 608 l 87 608 l 174 608 l 174 521 l 174 434 l 174 347 l 260 347 l 260 260 l 174 260 m 521 521 l 521 608 l 608 608 l 608 521 l 521 521 z "},"½":{"ha":694,"x_min":0,"x_max":608,"o":"m 0 0 l 0 87 l 87 87 l 87 0 l 0 0 m 434 434 l 434 521 l 521 521 l 521 434 l 434 434 m 521 0 l 434 0 l 347 0 l 347 87 l 434 87 l 434 174 l 521 174 l 521 87 l 608 87 l 608 0 l 521 0 m 87 87 l 87 174 l 174 174 l 174 87 l 87 87 m 521 174 l 521 260 l 608 260 l 608 174 l 521 174 m 521 260 l 434 260 l 347 260 l 347 347 l 434 347 l 521 347 l 521 260 m 174 260 l 87 260 l 0 260 l 0 347 l 87 347 l 87 434 l 87 521 l 0 521 l 0 608 l 87 608 l 174 608 l 174 521 l 174 434 l 174 347 l 260 347 l 260 260 l 174 260 m 521 521 l 521 608 l 608 608 l 608 521 l 521 521 z "},"¾":{"ha":694,"x_min":0,"x_max":608,"o":"m 521 0 l 521 87 l 434 87 l 347 87 l 347 174 l 347 260 l 347 347 l 434 347 l 434 260 l 434 174 l 521 174 l 521 260 l 521 347 l 608 347 l 608 260 l 608 174 l 608 87 l 608 0 l 521 0 m 0 0 l 0 87 l 87 87 l 87 0 l 0 0 m 434 434 l 434 521 l 521 521 l 521 434 l 434 434 m 87 87 l 87 174 l 174 174 l 174 87 l 87 87 m 87 347 l 174 347 l 174 260 l 87 260 l 0 260 l 0 347 l 87 347 m 174 347 l 174 434 l 87 434 l 87 521 l 0 521 l 0 608 l 87 608 l 174 608 l 174 521 l 260 521 l 260 434 l 260 347 l 174 347 m 521 521 l 521 608 l 608 608 l 608 521 l 521 521 z "},"¿":{"ha":521,"x_min":0,"x_max":434,"o":"m 174 347 l 174 434 l 260 434 l 260 347 l 174 347 m 260 -87 l 347 -87 l 347 -174 l 260 -174 l 174 -174 l 87 -174 l 87 -87 l 174 -87 l 260 -87 m 347 -87 l 347 0 l 434 0 l 434 -87 l 347 -87 m 87 -87 l 0 -87 l 0 0 l 0 87 l 87 87 l 87 0 l 87 -87 m 87 87 l 87 174 l 174 174 l 174 87 l 87 87 m 174 174 l 174 260 l 260 260 l 260 174 l 174 174 z "},"À":{"ha":521,"x_min":0,"x_max":434,"o":"m 347 0 l 347 87 l 347 174 l 260 174 l 174 174 l 87 174 l 87 87 l 87 0 l 0 0 l 0 87 l 0 174 l 0 260 l 0 347 l 0 434 l 0 521 l 87 521 l 87 434 l 87 347 l 87 260 l 174 260 l 260 260 l 347 260 l 347 347 l 347 434 l 347 521 l 434 521 l 434 434 l 434 347 l 434 260 l 434 174 l 434 87 l 434 0 l 347 0 m 174 694 l 174 781 l 260 781 l 260 694 l 174 694 m 347 521 l 260 521 l 174 521 l 87 521 l 87 608 l 174 608 l 260 608 l 347 608 l 347 521 m 174 781 l 87 781 l 87 868 l 174 868 l 174 781 z "},"Á":{"ha":521,"x_min":0,"x_max":434,"o":"m 347 0 l 347 87 l 347 174 l 260 174 l 174 174 l 87 174 l 87 87 l 87 0 l 0 0 l 0 87 l 0 174 l 0 260 l 0 347 l 0 434 l 0 521 l 87 521 l 87 434 l 87 347 l 87 260 l 174 260 l 260 260 l 347 260 l 347 347 l 347 434 l 347 521 l 434 521 l 434 434 l 434 347 l 434 260 l 434 174 l 434 87 l 434 0 l 347 0 m 174 694 l 174 781 l 260 781 l 260 694 l 174 694 m 347 521 l 260 521 l 174 521 l 87 521 l 87 608 l 174 608 l 260 608 l 347 608 l 347 521 m 260 781 l 260 868 l 347 868 l 347 781 l 260 781 z "},"Â":{"ha":521,"x_min":0,"x_max":434,"o":"m 347 0 l 347 87 l 347 174 l 260 174 l 174 174 l 87 174 l 87 87 l 87 0 l 0 0 l 0 87 l 0 174 l 0 260 l 0 347 l 0 434 l 0 521 l 87 521 l 87 434 l 87 347 l 87 260 l 174 260 l 260 260 l 347 260 l 347 347 l 347 434 l 347 521 l 434 521 l 434 434 l 434 347 l 434 260 l 434 174 l 434 87 l 434 0 l 347 0 m 260 694 l 260 781 l 347 781 l 347 694 l 260 694 m 87 694 l 87 781 l 174 781 l 174 694 l 87 694 m 347 521 l 260 521 l 174 521 l 87 521 l 87 608 l 174 608 l 260 608 l 347 608 l 347 521 m 260 781 l 174 781 l 174 868 l 260 868 l 260 781 z "},"Ã":{"ha":521,"x_min":0,"x_max":434,"o":"m 347 0 l 347 87 l 347 174 l 260 174 l 174 174 l 87 174 l 87 87 l 87 0 l 0 0 l 0 87 l 0 174 l 0 260 l 0 347 l 0 434 l 0 521 l 87 521 l 87 434 l 87 347 l 87 260 l 174 260 l 260 260 l 347 260 l 347 347 l 347 434 l 347 521 l 434 521 l 434 434 l 434 347 l 434 260 l 434 174 l 434 87 l 434 0 l 347 0 m 174 694 l 174 781 l 260 781 l 260 694 l 174 694 m 0 694 l 0 781 l 87 781 l 87 694 l 0 694 m 347 521 l 260 521 l 174 521 l 87 521 l 87 608 l 174 608 l 260 608 l 347 608 l 347 521 m 260 781 l 260 868 l 347 868 l 347 781 l 260 781 m 174 781 l 87 781 l 87 868 l 174 868 l 174 781 z "},"Ä":{"ha":521,"x_min":0,"x_max":434,"o":"m 347 0 l 347 87 l 347 174 l 260 174 l 174 174 l 87 174 l 87 87 l 87 0 l 0 0 l 0 87 l 0 174 l 0 260 l 0 347 l 0 434 l 0 521 l 87 521 l 87 434 l 87 347 l 87 260 l 174 260 l 260 260 l 347 260 l 347 347 l 347 434 l 347 521 l 434 521 l 434 434 l 434 347 l 434 260 l 434 174 l 434 87 l 434 0 l 347 0 m 260 694 l 260 781 l 347 781 l 347 694 l 260 694 m 87 694 l 87 781 l 174 781 l 174 694 l 87 694 m 347 521 l 260 521 l 174 521 l 87 521 l 87 608 l 174 608 l 260 608 l 347 608 l 347 521 z "},"Å":{"ha":521,"x_min":0,"x_max":434,"o":"m 347 0 l 347 87 l 347 174 l 260 174 l 174 174 l 87 174 l 87 87 l 87 0 l 0 0 l 0 87 l 0 174 l 0 260 l 0 347 l 0 434 l 0 521 l 87 521 l 87 434 l 87 347 l 87 260 l 174 260 l 260 260 l 347 260 l 347 347 l 347 434 l 347 521 l 434 521 l 434 434 l 434 347 l 434 260 l 434 174 l 434 87 l 434 0 l 347 0 m 347 521 l 260 521 l 174 521 l 87 521 l 87 608 l 87 694 l 174 694 l 174 608 l 260 608 l 260 694 l 347 694 l 347 608 l 347 521 m 260 694 l 174 694 l 174 781 l 260 781 l 260 694 z "},"Æ":{"ha":694,"x_min":0,"x_max":608,"o":"m 0 0 l 0 87 l 0 174 l 0 260 l 0 347 l 0 434 l 0 521 l 87 521 l 87 608 l 174 608 l 260 608 l 347 608 l 434 608 l 521 608 l 608 608 l 608 521 l 521 521 l 434 521 l 347 521 l 347 434 l 434 434 l 521 434 l 521 347 l 434 347 l 347 347 l 347 260 l 347 174 l 347 87 l 434 87 l 521 87 l 608 87 l 608 0 l 521 0 l 434 0 l 347 0 l 260 0 l 260 87 l 260 174 l 174 174 l 87 174 l 87 87 l 87 0 l 0 0 m 174 260 l 260 260 l 260 347 l 260 434 l 260 521 l 174 521 l 87 521 l 87 434 l 87 347 l 87 260 l 174 260 z "},"Ç":{"ha":521,"x_min":0,"x_max":434,"o":"m 174 -174 l 174 -87 l 260 -87 l 260 -174 l 174 -174 m 260 -87 l 260 0 l 174 0 l 87 0 l 87 87 l 174 87 l 260 87 l 347 87 l 434 87 l 434 0 l 347 0 l 347 -87 l 260 -87 m 87 87 l 0 87 l 0 174 l 0 260 l 0 347 l 0 434 l 87 434 l 87 347 l 87 260 l 87 174 l 87 87 m 87 434 l 87 521 l 174 521 l 174 434 l 87 434 m 347 608 l 434 608 l 434 521 l 347 521 l 260 521 l 174 521 l 174 608 l 260 608 l 347 608 z "},"È":{"ha":521,"x_min":0,"x_max":434,"o":"m 174 694 l 174 781 l 260 781 l 260 694 l 174 694 m 347 87 l 434 87 l 434 0 l 347 0 l 260 0 l 174 0 l 87 0 l 87 87 l 174 87 l 260 87 l 347 87 m 87 87 l 0 87 l 0 174 l 0 260 l 0 347 l 0 434 l 0 521 l 87 521 l 87 434 l 174 434 l 260 434 l 347 434 l 347 347 l 260 347 l 174 347 l 87 347 l 87 260 l 87 174 l 87 87 m 347 608 l 434 608 l 434 521 l 347 521 l 260 521 l 174 521 l 87 521 l 87 608 l 174 608 l 260 608 l 347 608 m 174 781 l 87 781 l 87 868 l 174 868 l 174 781 z "},"É":{"ha":521,"x_min":0,"x_max":434,"o":"m 174 694 l 174 781 l 260 781 l 260 694 l 174 694 m 347 87 l 434 87 l 434 0 l 347 0 l 260 0 l 174 0 l 87 0 l 87 87 l 174 87 l 260 87 l 347 87 m 87 87 l 0 87 l 0 174 l 0 260 l 0 347 l 0 434 l 0 521 l 87 521 l 87 434 l 174 434 l 260 434 l 347 434 l 347 347 l 260 347 l 174 347 l 87 347 l 87 260 l 87 174 l 87 87 m 347 608 l 434 608 l 434 521 l 347 521 l 260 521 l 174 521 l 87 521 l 87 608 l 174 608 l 260 608 l 347 608 m 260 781 l 260 868 l 347 868 l 347 781 l 260 781 z "},"Ê":{"ha":521,"x_min":0,"x_max":434,"o":"m 260 694 l 260 781 l 347 781 l 347 694 l 260 694 m 87 694 l 87 781 l 174 781 l 174 694 l 87 694 m 347 87 l 434 87 l 434 0 l 347 0 l 260 0 l 174 0 l 87 0 l 87 87 l 174 87 l 260 87 l 347 87 m 87 87 l 0 87 l 0 174 l 0 260 l 0 347 l 0 434 l 0 521 l 87 521 l 87 434 l 174 434 l 260 434 l 347 434 l 347 347 l 260 347 l 174 347 l 87 347 l 87 260 l 87 174 l 87 87 m 347 608 l 434 608 l 434 521 l 347 521 l 260 521 l 174 521 l 87 521 l 87 608 l 174 608 l 260 608 l 347 608 m 260 781 l 174 781 l 174 868 l 260 868 l 260 781 z "},"Ë":{"ha":521,"x_min":0,"x_max":434,"o":"m 260 694 l 260 781 l 347 781 l 347 694 l 260 694 m 87 694 l 87 781 l 174 781 l 174 694 l 87 694 m 347 87 l 434 87 l 434 0 l 347 0 l 260 0 l 174 0 l 87 0 l 87 87 l 174 87 l 260 87 l 347 87 m 87 87 l 0 87 l 0 174 l 0 260 l 0 347 l 0 434 l 0 521 l 87 521 l 87 434 l 174 434 l 260 434 l 347 434 l 347 347 l 260 347 l 174 347 l 87 347 l 87 260 l 87 174 l 87 87 m 347 608 l 434 608 l 434 521 l 347 521 l 260 521 l 174 521 l 87 521 l 87 608 l 174 608 l 260 608 l 347 608 z "},"Ì":{"ha":521,"x_min":0,"x_max":434,"o":"m 174 694 l 174 781 l 260 781 l 260 694 l 174 694 m 347 87 l 434 87 l 434 0 l 347 0 l 260 0 l 174 0 l 87 0 l 0 0 l 0 87 l 87 87 l 174 87 l 174 174 l 174 260 l 174 347 l 174 434 l 174 521 l 87 521 l 0 521 l 0 608 l 87 608 l 174 608 l 260 608 l 347 608 l 434 608 l 434 521 l 347 521 l 260 521 l 260 434 l 260 347 l 260 260 l 260 174 l 260 87 l 347 87 m 174 781 l 87 781 l 87 868 l 174 868 l 174 781 z "},"Í":{"ha":521,"x_min":0,"x_max":434,"o":"m 174 694 l 174 781 l 260 781 l 260 694 l 174 694 m 347 87 l 434 87 l 434 0 l 347 0 l 260 0 l 174 0 l 87 0 l 0 0 l 0 87 l 87 87 l 174 87 l 174 174 l 174 260 l 174 347 l 174 434 l 174 521 l 87 521 l 0 521 l 0 608 l 87 608 l 174 608 l 260 608 l 347 608 l 434 608 l 434 521 l 347 521 l 260 521 l 260 434 l 260 347 l 260 260 l 260 174 l 260 87 l 347 87 m 260 781 l 260 868 l 347 868 l 347 781 l 260 781 z "},"Î":{"ha":521,"x_min":0,"x_max":434,"o":"m 260 694 l 260 781 l 347 781 l 347 694 l 260 694 m 87 694 l 87 781 l 174 781 l 174 694 l 87 694 m 347 87 l 434 87 l 434 0 l 347 0 l 260 0 l 174 0 l 87 0 l 0 0 l 0 87 l 87 87 l 174 87 l 174 174 l 174 260 l 174 347 l 174 434 l 174 521 l 87 521 l 0 521 l 0 608 l 87 608 l 174 608 l 260 608 l 347 608 l 434 608 l 434 521 l 347 521 l 260 521 l 260 434 l 260 347 l 260 260 l 260 174 l 260 87 l 347 87 m 260 781 l 174 781 l 174 868 l 260 868 l 260 781 z "},"Ï":{"ha":521,"x_min":0,"x_max":434,"o":"m 260 694 l 260 781 l 347 781 l 347 694 l 260 694 m 87 694 l 87 781 l 174 781 l 174 694 l 87 694 m 347 87 l 434 87 l 434 0 l 347 0 l 260 0 l 174 0 l 87 0 l 0 0 l 0 87 l 87 87 l 174 87 l 174 174 l 174 260 l 174 347 l 174 434 l 174 521 l 87 521 l 0 521 l 0 608 l 87 608 l 174 608 l 260 608 l 347 608 l 434 608 l 434 521 l 347 521 l 260 521 l 260 434 l 260 347 l 260 260 l 260 174 l 260 87 l 347 87 z "},"Ð":{"ha":521,"x_min":-87,"x_max":434,"o":"m 260 87 l 347 87 l 347 174 l 347 260 l 347 347 l 347 434 l 260 434 l 260 521 l 174 521 l 87 521 l 87 434 l 87 347 l 174 347 l 174 260 l 87 260 l 87 174 l 87 87 l 174 87 l 260 87 m 260 0 l 174 0 l 87 0 l 0 0 l 0 87 l 0 174 l 0 260 l -87 260 l -87 347 l 0 347 l 0 434 l 0 521 l 0 608 l 87 608 l 174 608 l 260 608 l 260 521 l 347 521 l 347 434 l 434 434 l 434 347 l 434 260 l 434 174 l 434 87 l 347 87 l 347 0 l 260 0 z "},"Ñ":{"ha":521,"x_min":0,"x_max":434,"o":"m 347 0 l 347 87 l 347 174 l 347 260 l 347 347 l 347 434 l 434 434 l 434 347 l 434 260 l 434 174 l 434 87 l 434 0 l 347 0 m 0 0 l 0 87 l 0 174 l 0 260 l 0 347 l 0 434 l 0 521 l 0 608 l 87 608 l 174 608 l 260 608 l 260 521 l 347 521 l 347 434 l 260 434 l 260 521 l 174 521 l 87 521 l 87 434 l 87 347 l 87 260 l 87 174 l 87 87 l 87 0 l 0 0 m 174 694 l 174 781 l 260 781 l 260 694 l 174 694 m 0 694 l 0 781 l 87 781 l 87 694 l 0 694 m 260 781 l 260 868 l 347 868 l 347 781 l 260 781 m 174 781 l 87 781 l 87 868 l 174 868 l 174 781 z "},"Ò":{"ha":521,"x_min":0,"x_max":434,"o":"m 174 694 l 174 781 l 260 781 l 260 694 l 174 694 m 260 87 l 347 87 l 347 0 l 260 0 l 174 0 l 87 0 l 87 87 l 174 87 l 260 87 m 347 87 l 347 174 l 347 260 l 347 347 l 347 434 l 347 521 l 434 521 l 434 434 l 434 347 l 434 260 l 434 174 l 434 87 l 347 87 m 87 87 l 0 87 l 0 174 l 0 260 l 0 347 l 0 434 l 0 521 l 87 521 l 87 434 l 87 347 l 87 260 l 87 174 l 87 87 m 347 521 l 260 521 l 174 521 l 87 521 l 87 608 l 174 608 l 260 608 l 347 608 l 347 521 m 174 781 l 87 781 l 87 868 l 174 868 l 174 781 z "},"Ó":{"ha":521,"x_min":0,"x_max":434,"o":"m 174 694 l 174 781 l 260 781 l 260 694 l 174 694 m 260 87 l 347 87 l 347 0 l 260 0 l 174 0 l 87 0 l 87 87 l 174 87 l 260 87 m 347 87 l 347 174 l 347 260 l 347 347 l 347 434 l 347 521 l 434 521 l 434 434 l 434 347 l 434 260 l 434 174 l 434 87 l 347 87 m 87 87 l 0 87 l 0 174 l 0 260 l 0 347 l 0 434 l 0 521 l 87 521 l 87 434 l 87 347 l 87 260 l 87 174 l 87 87 m 347 521 l 260 521 l 174 521 l 87 521 l 87 608 l 174 608 l 260 608 l 347 608 l 347 521 m 260 781 l 260 868 l 347 868 l 347 781 l 260 781 z "},"Ô":{"ha":521,"x_min":0,"x_max":434,"o":"m 260 694 l 260 781 l 347 781 l 347 694 l 260 694 m 87 694 l 87 781 l 174 781 l 174 694 l 87 694 m 260 87 l 347 87 l 347 0 l 260 0 l 174 0 l 87 0 l 87 87 l 174 87 l 260 87 m 347 87 l 347 174 l 347 260 l 347 347 l 347 434 l 347 521 l 434 521 l 434 434 l 434 347 l 434 260 l 434 174 l 434 87 l 347 87 m 87 87 l 0 87 l 0 174 l 0 260 l 0 347 l 0 434 l 0 521 l 87 521 l 87 434 l 87 347 l 87 260 l 87 174 l 87 87 m 347 521 l 260 521 l 174 521 l 87 521 l 87 608 l 174 608 l 260 608 l 347 608 l 347 521 m 260 781 l 174 781 l 174 868 l 260 868 l 260 781 z "},"Õ":{"ha":521,"x_min":0,"x_max":434,"o":"m 174 694 l 174 781 l 260 781 l 260 694 l 174 694 m 0 694 l 0 781 l 87 781 l 87 694 l 0 694 m 260 87 l 347 87 l 347 0 l 260 0 l 174 0 l 87 0 l 87 87 l 174 87 l 260 87 m 347 87 l 347 174 l 347 260 l 347 347 l 347 434 l 347 521 l 434 521 l 434 434 l 434 347 l 434 260 l 434 174 l 434 87 l 347 87 m 87 87 l 0 87 l 0 174 l 0 260 l 0 347 l 0 434 l 0 521 l 87 521 l 87 434 l 87 347 l 87 260 l 87 174 l 87 87 m 347 521 l 260 521 l 174 521 l 87 521 l 87 608 l 174 608 l 260 608 l 347 608 l 347 521 m 260 781 l 260 868 l 347 868 l 347 781 l 260 781 m 174 781 l 87 781 l 87 868 l 174 868 l 174 781 z "},"Ö":{"ha":521,"x_min":0,"x_max":434,"o":"m 260 694 l 260 781 l 347 781 l 347 694 l 260 694 m 87 694 l 87 781 l 174 781 l 174 694 l 87 694 m 260 87 l 347 87 l 347 0 l 260 0 l 174 0 l 87 0 l 87 87 l 174 87 l 260 87 m 347 87 l 347 174 l 347 260 l 347 347 l 347 434 l 347 521 l 434 521 l 434 434 l 434 347 l 434 260 l 434 174 l 434 87 l 347 87 m 87 87 l 0 87 l 0 174 l 0 260 l 0 347 l 0 434 l 0 521 l 87 521 l 87 434 l 87 347 l 87 260 l 87 174 l 87 87 m 347 521 l 260 521 l 174 521 l 87 521 l 87 608 l 174 608 l 260 608 l 347 608 l 347 521 z "},"×":{"ha":521,"x_min":0,"x_max":434,"o":"m 347 87 l 347 174 l 434 174 l 434 87 l 347 87 m 0 87 l 0 174 l 87 174 l 87 87 l 0 87 m 347 174 l 260 174 l 260 260 l 347 260 l 347 174 m 87 174 l 87 260 l 174 260 l 174 174 l 87 174 m 260 260 l 174 260 l 174 347 l 260 347 l 260 260 m 260 347 l 260 434 l 347 434 l 347 347 l 260 347 m 174 347 l 87 347 l 87 434 l 174 434 l 174 347 m 347 434 l 347 521 l 434 521 l 434 434 l 347 434 m 87 434 l 0 434 l 0 521 l 87 521 l 87 434 z "},"Ø":{"ha":608,"x_min":-87,"x_max":521,"o":"m -87 0 l -87 87 l 0 87 l 0 0 l -87 0 m 260 87 l 347 87 l 347 0 l 260 0 l 174 0 l 87 0 l 87 87 l 174 87 l 260 87 m 347 87 l 347 174 l 347 260 l 347 347 l 260 347 l 260 260 l 174 260 l 174 174 l 87 174 l 87 87 l 0 87 l 0 174 l 0 260 l 0 347 l 0 434 l 0 521 l 87 521 l 87 434 l 87 347 l 87 260 l 174 260 l 174 347 l 260 347 l 260 434 l 347 434 l 347 521 l 434 521 l 434 434 l 434 347 l 434 260 l 434 174 l 434 87 l 347 87 m 434 521 l 434 608 l 521 608 l 521 521 l 434 521 m 347 521 l 260 521 l 174 521 l 87 521 l 87 608 l 174 608 l 260 608 l 347 608 l 347 521 z "},"Ù":{"ha":521,"x_min":0,"x_max":434,"o":"m 174 694 l 174 781 l 260 781 l 260 694 l 174 694 m 260 87 l 347 87 l 347 0 l 260 0 l 174 0 l 87 0 l 87 87 l 174 87 l 260 87 m 347 87 l 347 174 l 347 260 l 347 347 l 347 434 l 347 521 l 347 608 l 434 608 l 434 521 l 434 434 l 434 347 l 434 260 l 434 174 l 434 87 l 347 87 m 87 87 l 0 87 l 0 174 l 0 260 l 0 347 l 0 434 l 0 521 l 0 608 l 87 608 l 87 521 l 87 434 l 87 347 l 87 260 l 87 174 l 87 87 m 174 781 l 87 781 l 87 868 l 174 868 l 174 781 z "},"Ú":{"ha":521,"x_min":0,"x_max":434,"o":"m 174 694 l 174 781 l 260 781 l 260 694 l 174 694 m 260 87 l 347 87 l 347 0 l 260 0 l 174 0 l 87 0 l 87 87 l 174 87 l 260 87 m 347 87 l 347 174 l 347 260 l 347 347 l 347 434 l 347 521 l 347 608 l 434 608 l 434 521 l 434 434 l 434 347 l 434 260 l 434 174 l 434 87 l 347 87 m 87 87 l 0 87 l 0 174 l 0 260 l 0 347 l 0 434 l 0 521 l 0 608 l 87 608 l 87 521 l 87 434 l 87 347 l 87 260 l 87 174 l 87 87 m 260 781 l 260 868 l 347 868 l 347 781 l 260 781 z "},"Û":{"ha":521,"x_min":0,"x_max":434,"o":"m 260 694 l 260 781 l 347 781 l 347 694 l 260 694 m 87 694 l 87 781 l 174 781 l 174 694 l 87 694 m 260 87 l 347 87 l 347 0 l 260 0 l 174 0 l 87 0 l 87 87 l 174 87 l 260 87 m 347 87 l 347 174 l 347 260 l 347 347 l 347 434 l 347 521 l 347 608 l 434 608 l 434 521 l 434 434 l 434 347 l 434 260 l 434 174 l 434 87 l 347 87 m 87 87 l 0 87 l 0 174 l 0 260 l 0 347 l 0 434 l 0 521 l 0 608 l 87 608 l 87 521 l 87 434 l 87 347 l 87 260 l 87 174 l 87 87 m 260 781 l 174 781 l 174 868 l 260 868 l 260 781 z "},"Ü":{"ha":521,"x_min":0,"x_max":434,"o":"m 260 694 l 260 781 l 347 781 l 347 694 l 260 694 m 87 694 l 87 781 l 174 781 l 174 694 l 87 694 m 260 87 l 347 87 l 347 0 l 260 0 l 174 0 l 87 0 l 87 87 l 174 87 l 260 87 m 347 87 l 347 174 l 347 260 l 347 347 l 347 434 l 347 521 l 347 608 l 434 608 l 434 521 l 434 434 l 434 347 l 434 260 l 434 174 l 434 87 l 347 87 m 87 87 l 0 87 l 0 174 l 0 260 l 0 347 l 0 434 l 0 521 l 0 608 l 87 608 l 87 521 l 87 434 l 87 347 l 87 260 l 87 174 l 87 87 z "},"Ý":{"ha":521,"x_min":0,"x_max":434,"o":"m 174 0 l 174 87 l 174 174 l 174 260 l 260 260 l 260 174 l 260 87 l 260 0 l 174 0 m 174 694 l 174 781 l 260 781 l 260 694 l 174 694 m 260 260 l 260 347 l 347 347 l 347 260 l 260 260 m 174 260 l 87 260 l 87 347 l 174 347 l 174 260 m 347 347 l 347 434 l 347 521 l 347 608 l 434 608 l 434 521 l 434 434 l 434 347 l 347 347 m 87 347 l 0 347 l 0 434 l 0 521 l 0 608 l 87 608 l 87 521 l 87 434 l 87 347 m 260 781 l 260 868 l 347 868 l 347 781 l 260 781 z "},"Þ":{"ha":521,"x_min":0,"x_max":434,"o":"m 0 0 l 0 87 l 0 174 l 0 260 l 0 347 l 0 434 l 0 521 l 0 608 l 87 608 l 87 521 l 174 521 l 260 521 l 347 521 l 347 434 l 434 434 l 434 347 l 434 260 l 434 174 l 347 174 l 347 260 l 347 347 l 347 434 l 260 434 l 174 434 l 87 434 l 87 347 l 87 260 l 87 174 l 174 174 l 260 174 l 347 174 l 347 87 l 260 87 l 174 87 l 87 87 l 87 0 l 0 0 z "},"ß":{"ha":521,"x_min":0,"x_max":434,"o":"m 0 0 l 0 87 l 0 174 l 0 260 l 0 347 l 0 434 l 0 521 l 87 521 l 87 434 l 87 347 l 87 260 l 87 174 l 87 87 l 87 0 l 0 0 m 260 87 l 347 87 l 347 0 l 260 0 l 174 0 l 174 87 l 260 87 m 347 87 l 347 174 l 347 260 l 434 260 l 434 174 l 434 87 l 347 87 m 347 260 l 260 260 l 260 347 l 347 347 l 347 260 m 347 347 l 347 434 l 347 521 l 434 521 l 434 434 l 434 347 l 347 347 m 347 521 l 260 521 l 174 521 l 87 521 l 87 608 l 174 608 l 260 608 l 347 608 l 347 521 z "},"à":{"ha":521,"x_min":0,"x_max":434,"o":"m 174 521 l 174 608 l 260 608 l 260 521 l 174 521 m 347 0 l 260 0 l 174 0 l 87 0 l 87 87 l 0 87 l 0 174 l 87 174 l 87 260 l 174 260 l 260 260 l 347 260 l 347 347 l 434 347 l 434 260 l 434 174 l 434 87 l 434 0 l 347 0 m 260 87 l 347 87 l 347 174 l 260 174 l 174 174 l 87 174 l 87 87 l 174 87 l 260 87 m 347 347 l 260 347 l 174 347 l 87 347 l 87 434 l 174 434 l 260 434 l 347 434 l 347 347 m 174 608 l 87 608 l 87 694 l 174 694 l 174 608 z "},"á":{"ha":521,"x_min":0,"x_max":434,"o":"m 174 521 l 174 608 l 260 608 l 260 521 l 174 521 m 347 0 l 260 0 l 174 0 l 87 0 l 87 87 l 0 87 l 0 174 l 87 174 l 87 260 l 174 260 l 260 260 l 347 260 l 347 347 l 434 347 l 434 260 l 434 174 l 434 87 l 434 0 l 347 0 m 260 87 l 347 87 l 347 174 l 260 174 l 174 174 l 87 174 l 87 87 l 174 87 l 260 87 m 347 347 l 260 347 l 174 347 l 87 347 l 87 434 l 174 434 l 260 434 l 347 434 l 347 347 m 260 608 l 260 694 l 347 694 l 347 608 l 260 608 z "},"â":{"ha":521,"x_min":0,"x_max":434,"o":"m 260 521 l 260 608 l 347 608 l 347 521 l 260 521 m 87 521 l 87 608 l 174 608 l 174 521 l 87 521 m 347 0 l 260 0 l 174 0 l 87 0 l 87 87 l 0 87 l 0 174 l 87 174 l 87 260 l 174 260 l 260 260 l 347 260 l 347 347 l 434 347 l 434 260 l 434 174 l 434 87 l 434 0 l 347 0 m 260 87 l 347 87 l 347 174 l 260 174 l 174 174 l 87 174 l 87 87 l 174 87 l 260 87 m 347 347 l 260 347 l 174 347 l 87 347 l 87 434 l 174 434 l 260 434 l 347 434 l 347 347 m 260 608 l 174 608 l 174 694 l 260 694 l 260 608 z "},"ã":{"ha":521,"x_min":0,"x_max":434,"o":"m 260 521 l 260 608 l 347 608 l 347 521 l 260 521 m 87 521 l 87 608 l 174 608 l 174 521 l 87 521 m 347 0 l 260 0 l 174 0 l 87 0 l 87 87 l 0 87 l 0 174 l 87 174 l 87 260 l 174 260 l 260 260 l 347 260 l 347 347 l 434 347 l 434 260 l 434 174 l 434 87 l 434 0 l 347 0 m 260 87 l 347 87 l 347 174 l 260 174 l 174 174 l 87 174 l 87 87 l 174 87 l 260 87 m 347 347 l 260 347 l 174 347 l 87 347 l 87 434 l 174 434 l 260 434 l 347 434 l 347 347 m 347 608 l 347 694 l 434 694 l 434 608 l 347 608 m 260 608 l 174 608 l 174 694 l 260 694 l 260 608 z "},"ä":{"ha":521,"x_min":0,"x_max":434,"o":"m 260 521 l 260 608 l 347 608 l 347 521 l 260 521 m 87 521 l 87 608 l 174 608 l 174 521 l 87 521 m 347 0 l 260 0 l 174 0 l 87 0 l 87 87 l 0 87 l 0 174 l 87 174 l 87 260 l 174 260 l 260 260 l 347 260 l 347 347 l 434 347 l 434 260 l 434 174 l 434 87 l 434 0 l 347 0 m 260 87 l 347 87 l 347 174 l 260 174 l 174 174 l 87 174 l 87 87 l 174 87 l 260 87 m 347 347 l 260 347 l 174 347 l 87 347 l 87 434 l 174 434 l 260 434 l 347 434 l 347 347 z "},"å":{"ha":521,"x_min":0,"x_max":434,"o":"m 347 0 l 260 0 l 174 0 l 87 0 l 87 87 l 0 87 l 0 174 l 87 174 l 87 260 l 174 260 l 260 260 l 347 260 l 347 347 l 434 347 l 434 260 l 434 174 l 434 87 l 434 0 l 347 0 m 260 87 l 347 87 l 347 174 l 260 174 l 174 174 l 87 174 l 87 87 l 174 87 l 260 87 m 347 347 l 260 347 l 174 347 l 87 347 l 87 434 l 174 434 l 174 521 l 260 521 l 260 434 l 347 434 l 347 347 m 260 521 l 260 608 l 347 608 l 347 521 l 260 521 m 174 521 l 87 521 l 87 608 l 174 608 l 174 521 m 260 608 l 174 608 l 174 694 l 260 694 l 260 608 z "},"æ":{"ha":694,"x_min":0,"x_max":608,"o":"m 434 87 l 521 87 l 521 0 l 434 0 l 347 0 l 260 0 l 174 0 l 87 0 l 87 87 l 0 87 l 0 174 l 87 174 l 87 260 l 174 260 l 260 260 l 260 347 l 174 347 l 87 347 l 87 434 l 174 434 l 260 434 l 347 434 l 434 434 l 521 434 l 521 347 l 434 347 l 347 347 l 347 260 l 434 260 l 521 260 l 521 347 l 608 347 l 608 260 l 608 174 l 521 174 l 434 174 l 347 174 l 347 87 l 434 87 m 174 87 l 260 87 l 260 174 l 174 174 l 87 174 l 87 87 l 174 87 z "},"ç":{"ha":434,"x_min":0,"x_max":347,"o":"m 87 -174 l 87 -87 l 174 -87 l 174 -174 l 87 -174 m 174 -87 l 174 0 l 87 0 l 87 87 l 174 87 l 260 87 l 347 87 l 347 0 l 260 0 l 260 -87 l 174 -87 m 87 87 l 0 87 l 0 174 l 0 260 l 0 347 l 87 347 l 87 260 l 87 174 l 87 87 m 260 434 l 347 434 l 347 347 l 260 347 l 174 347 l 87 347 l 87 434 l 174 434 l 260 434 z "},"è":{"ha":521,"x_min":0,"x_max":434,"o":"m 174 521 l 174 608 l 260 608 l 260 521 l 174 521 m 260 87 l 347 87 l 347 0 l 260 0 l 174 0 l 87 0 l 87 87 l 174 87 l 260 87 m 87 87 l 0 87 l 0 174 l 0 260 l 0 347 l 87 347 l 87 260 l 174 260 l 260 260 l 347 260 l 347 347 l 434 347 l 434 260 l 434 174 l 347 174 l 260 174 l 174 174 l 87 174 l 87 87 m 347 347 l 260 347 l 174 347 l 87 347 l 87 434 l 174 434 l 260 434 l 347 434 l 347 347 m 174 608 l 87 608 l 87 694 l 174 694 l 174 608 z "},"é":{"ha":521,"x_min":0,"x_max":434,"o":"m 174 521 l 174 608 l 260 608 l 260 521 l 174 521 m 260 87 l 347 87 l 347 0 l 260 0 l 174 0 l 87 0 l 87 87 l 174 87 l 260 87 m 87 87 l 0 87 l 0 174 l 0 260 l 0 347 l 87 347 l 87 260 l 174 260 l 260 260 l 347 260 l 347 347 l 434 347 l 434 260 l 434 174 l 347 174 l 260 174 l 174 174 l 87 174 l 87 87 m 347 347 l 260 347 l 174 347 l 87 347 l 87 434 l 174 434 l 260 434 l 347 434 l 347 347 m 260 608 l 260 694 l 347 694 l 347 608 l 260 608 z "},"ê":{"ha":521,"x_min":0,"x_max":434,"o":"m 260 521 l 260 608 l 347 608 l 347 521 l 260 521 m 87 521 l 87 608 l 174 608 l 174 521 l 87 521 m 260 87 l 347 87 l 347 0 l 260 0 l 174 0 l 87 0 l 87 87 l 174 87 l 260 87 m 87 87 l 0 87 l 0 174 l 0 260 l 0 347 l 87 347 l 87 260 l 174 260 l 260 260 l 347 260 l 347 347 l 434 347 l 434 260 l 434 174 l 347 174 l 260 174 l 174 174 l 87 174 l 87 87 m 347 347 l 260 347 l 174 347 l 87 347 l 87 434 l 174 434 l 260 434 l 347 434 l 347 347 m 260 608 l 174 608 l 174 694 l 260 694 l 260 608 z "},"ë":{"ha":521,"x_min":0,"x_max":434,"o":"m 260 521 l 260 608 l 347 608 l 347 521 l 260 521 m 87 521 l 87 608 l 174 608 l 174 521 l 87 521 m 260 87 l 347 87 l 347 0 l 260 0 l 174 0 l 87 0 l 87 87 l 174 87 l 260 87 m 87 87 l 0 87 l 0 174 l 0 260 l 0 347 l 87 347 l 87 260 l 174 260 l 260 260 l 347 260 l 347 347 l 434 347 l 434 260 l 434 174 l 347 174 l 260 174 l 174 174 l 87 174 l 87 87 m 347 347 l 260 347 l 174 347 l 87 347 l 87 434 l 174 434 l 260 434 l 347 434 l 347 347 z "},"ì":{"ha":260,"x_min":0,"x_max":174,"o":"m 87 0 l 87 87 l 87 174 l 87 260 l 87 347 l 0 347 l 0 434 l 87 434 l 174 434 l 174 347 l 174 260 l 174 174 l 174 87 l 174 0 l 87 0 m 87 521 l 87 608 l 174 608 l 174 521 l 87 521 m 87 608 l 0 608 l 0 694 l 87 694 l 87 608 z "},"í":{"ha":347,"x_min":0,"x_max":260,"o":"m 87 0 l 87 87 l 87 174 l 87 260 l 87 347 l 0 347 l 0 434 l 87 434 l 174 434 l 174 347 l 174 260 l 174 174 l 174 87 l 174 0 l 87 0 m 87 521 l 87 608 l 174 608 l 174 521 l 87 521 m 174 608 l 174 694 l 260 694 l 260 608 l 174 608 z "},"î":{"ha":347,"x_min":0,"x_max":260,"o":"m 87 0 l 87 87 l 87 174 l 87 260 l 87 347 l 0 347 l 0 434 l 87 434 l 174 434 l 174 347 l 174 260 l 174 174 l 174 87 l 174 0 l 87 0 m 174 521 l 174 608 l 260 608 l 260 521 l 174 521 m 0 521 l 0 608 l 87 608 l 87 521 l 0 521 m 174 608 l 87 608 l 87 694 l 174 694 l 174 608 z "},"ï":{"ha":347,"x_min":0,"x_max":260,"o":"m 87 0 l 87 87 l 87 174 l 87 260 l 87 347 l 0 347 l 0 434 l 87 434 l 174 434 l 174 347 l 174 260 l 174 174 l 174 87 l 174 0 l 87 0 m 174 521 l 174 608 l 260 608 l 260 521 l 174 521 m 0 521 l 0 608 l 87 608 l 87 521 l 0 521 z "},"ð":{"ha":521,"x_min":0,"x_max":434,"o":"m 260 87 l 347 87 l 347 0 l 260 0 l 174 0 l 87 0 l 87 87 l 174 87 l 260 87 m 347 87 l 347 174 l 347 260 l 347 347 l 434 347 l 434 260 l 434 174 l 434 87 l 347 87 m 87 87 l 0 87 l 0 174 l 0 260 l 0 347 l 87 347 l 87 260 l 87 174 l 87 87 m 347 347 l 260 347 l 174 347 l 87 347 l 87 434 l 174 434 l 260 434 l 260 521 l 347 521 l 347 434 l 347 347 m 347 521 l 347 608 l 434 608 l 434 521 l 347 521 m 260 521 l 174 521 l 174 608 l 260 608 l 260 521 z "},"ñ":{"ha":521,"x_min":0,"x_max":434,"o":"m 347 0 l 347 87 l 347 174 l 347 260 l 347 347 l 434 347 l 434 260 l 434 174 l 434 87 l 434 0 l 347 0 m 0 0 l 0 87 l 0 174 l 0 260 l 0 347 l 0 434 l 87 434 l 87 347 l 174 347 l 174 260 l 87 260 l 87 174 l 87 87 l 87 0 l 0 0 m 174 521 l 174 608 l 260 608 l 260 521 l 174 521 m 0 521 l 0 608 l 87 608 l 87 521 l 0 521 m 347 347 l 260 347 l 174 347 l 174 434 l 260 434 l 347 434 l 347 347 m 260 608 l 260 694 l 347 694 l 347 608 l 260 608 m 174 608 l 87 608 l 87 694 l 174 694 l 174 608 z "},"ò":{"ha":521,"x_min":0,"x_max":434,"o":"m 174 521 l 174 608 l 260 608 l 260 521 l 174 521 m 260 87 l 347 87 l 347 0 l 260 0 l 174 0 l 87 0 l 87 87 l 174 87 l 260 87 m 347 87 l 347 174 l 347 260 l 347 347 l 434 347 l 434 260 l 434 174 l 434 87 l 347 87 m 87 87 l 0 87 l 0 174 l 0 260 l 0 347 l 87 347 l 87 260 l 87 174 l 87 87 m 347 347 l 260 347 l 174 347 l 87 347 l 87 434 l 174 434 l 260 434 l 347 434 l 347 347 m 174 608 l 87 608 l 87 694 l 174 694 l 174 608 z "},"ó":{"ha":521,"x_min":0,"x_max":434,"o":"m 174 521 l 174 608 l 260 608 l 260 521 l 174 521 m 260 87 l 347 87 l 347 0 l 260 0 l 174 0 l 87 0 l 87 87 l 174 87 l 260 87 m 347 87 l 347 174 l 347 260 l 347 347 l 434 347 l 434 260 l 434 174 l 434 87 l 347 87 m 87 87 l 0 87 l 0 174 l 0 260 l 0 347 l 87 347 l 87 260 l 87 174 l 87 87 m 347 347 l 260 347 l 174 347 l 87 347 l 87 434 l 174 434 l 260 434 l 347 434 l 347 347 m 260 608 l 260 694 l 347 694 l 347 608 l 260 608 z "},"ô":{"ha":521,"x_min":0,"x_max":434,"o":"m 260 521 l 260 608 l 347 608 l 347 521 l 260 521 m 87 521 l 87 608 l 174 608 l 174 521 l 87 521 m 260 87 l 347 87 l 347 0 l 260 0 l 174 0 l 87 0 l 87 87 l 174 87 l 260 87 m 347 87 l 347 174 l 347 260 l 347 347 l 434 347 l 434 260 l 434 174 l 434 87 l 347 87 m 87 87 l 0 87 l 0 174 l 0 260 l 0 347 l 87 347 l 87 260 l 87 174 l 87 87 m 347 347 l 260 347 l 174 347 l 87 347 l 87 434 l 174 434 l 260 434 l 347 434 l 347 347 m 260 608 l 174 608 l 174 694 l 260 694 l 260 608 z "},"õ":{"ha":521,"x_min":0,"x_max":434,"o":"m 174 521 l 174 608 l 260 608 l 260 521 l 174 521 m 0 521 l 0 608 l 87 608 l 87 521 l 0 521 m 260 87 l 347 87 l 347 0 l 260 0 l 174 0 l 87 0 l 87 87 l 174 87 l 260 87 m 347 87 l 347 174 l 347 260 l 347 347 l 434 347 l 434 260 l 434 174 l 434 87 l 347 87 m 87 87 l 0 87 l 0 174 l 0 260 l 0 347 l 87 347 l 87 260 l 87 174 l 87 87 m 347 347 l 260 347 l 174 347 l 87 347 l 87 434 l 174 434 l 260 434 l 347 434 l 347 347 m 260 608 l 260 694 l 347 694 l 347 608 l 260 608 m 174 608 l 87 608 l 87 694 l 174 694 l 174 608 z "},"ö":{"ha":521,"x_min":0,"x_max":434,"o":"m 260 521 l 260 608 l 347 608 l 347 521 l 260 521 m 87 521 l 87 608 l 174 608 l 174 521 l 87 521 m 260 87 l 347 87 l 347 0 l 260 0 l 174 0 l 87 0 l 87 87 l 174 87 l 260 87 m 347 87 l 347 174 l 347 260 l 347 347 l 434 347 l 434 260 l 434 174 l 434 87 l 347 87 m 87 87 l 0 87 l 0 174 l 0 260 l 0 347 l 87 347 l 87 260 l 87 174 l 87 87 m 347 347 l 260 347 l 174 347 l 87 347 l 87 434 l 174 434 l 260 434 l 347 434 l 347 347 z "},"÷":{"ha":521,"x_min":0,"x_max":434,"o":"m 174 87 l 174 174 l 260 174 l 260 87 l 174 87 m 174 434 l 174 521 l 260 521 l 260 434 l 174 434 m 347 347 l 434 347 l 434 260 l 347 260 l 260 260 l 174 260 l 87 260 l 0 260 l 0 347 l 87 347 l 174 347 l 260 347 l 347 347 z "},"ø":{"ha":608,"x_min":-87,"x_max":521,"o":"m -87 0 l -87 87 l 0 87 l 0 0 l -87 0 m 260 87 l 347 87 l 347 0 l 260 0 l 174 0 l 87 0 l 87 87 l 0 87 l 0 174 l 0 260 l 0 347 l 87 347 l 87 260 l 87 174 l 174 174 l 174 87 l 260 87 m 347 87 l 347 174 l 347 260 l 260 260 l 260 174 l 174 174 l 174 260 l 260 260 l 260 347 l 174 347 l 87 347 l 87 434 l 174 434 l 260 434 l 347 434 l 347 347 l 434 347 l 434 260 l 434 174 l 434 87 l 347 87 m 434 347 l 434 434 l 521 434 l 521 347 l 434 347 z "},"ù":{"ha":521,"x_min":0,"x_max":434,"o":"m 347 0 l 347 87 l 260 87 l 260 0 l 174 0 l 87 0 l 87 87 l 174 87 l 260 87 l 260 174 l 347 174 l 347 260 l 347 347 l 347 434 l 434 434 l 434 347 l 434 260 l 434 174 l 434 87 l 434 0 l 347 0 m 174 521 l 174 608 l 260 608 l 260 521 l 174 521 m 87 87 l 0 87 l 0 174 l 0 260 l 0 347 l 0 434 l 87 434 l 87 347 l 87 260 l 87 174 l 87 87 m 174 608 l 87 608 l 87 694 l 174 694 l 174 608 z "},"ú":{"ha":521,"x_min":0,"x_max":434,"o":"m 347 0 l 347 87 l 260 87 l 260 0 l 174 0 l 87 0 l 87 87 l 174 87 l 260 87 l 260 174 l 347 174 l 347 260 l 347 347 l 347 434 l 434 434 l 434 347 l 434 260 l 434 174 l 434 87 l 434 0 l 347 0 m 174 521 l 174 608 l 260 608 l 260 521 l 174 521 m 87 87 l 0 87 l 0 174 l 0 260 l 0 347 l 0 434 l 87 434 l 87 347 l 87 260 l 87 174 l 87 87 m 260 608 l 260 694 l 347 694 l 347 608 l 260 608 z "},"û":{"ha":521,"x_min":0,"x_max":434,"o":"m 347 0 l 347 87 l 260 87 l 260 0 l 174 0 l 87 0 l 87 87 l 174 87 l 260 87 l 260 174 l 347 174 l 347 260 l 347 347 l 347 434 l 434 434 l 434 347 l 434 260 l 434 174 l 434 87 l 434 0 l 347 0 m 260 521 l 260 608 l 347 608 l 347 521 l 260 521 m 87 521 l 87 608 l 174 608 l 174 521 l 87 521 m 87 87 l 0 87 l 0 174 l 0 260 l 0 347 l 0 434 l 87 434 l 87 347 l 87 260 l 87 174 l 87 87 m 260 608 l 174 608 l 174 694 l 260 694 l 260 608 z "},"ü":{"ha":521,"x_min":0,"x_max":434,"o":"m 347 0 l 347 87 l 260 87 l 260 0 l 174 0 l 87 0 l 87 87 l 174 87 l 260 87 l 260 174 l 347 174 l 347 260 l 347 347 l 347 434 l 434 434 l 434 347 l 434 260 l 434 174 l 434 87 l 434 0 l 347 0 m 260 521 l 260 608 l 347 608 l 347 521 l 260 521 m 87 521 l 87 608 l 174 608 l 174 521 l 87 521 m 87 87 l 0 87 l 0 174 l 0 260 l 0 347 l 0 434 l 87 434 l 87 347 l 87 260 l 87 174 l 87 87 z "},"ý":{"ha":521,"x_min":0,"x_max":434,"o":"m 174 521 l 174 608 l 260 608 l 260 521 l 174 521 m 260 -87 l 347 -87 l 347 -174 l 260 -174 l 174 -174 l 87 -174 l 87 -87 l 174 -87 l 260 -87 m 347 -87 l 347 0 l 260 0 l 174 0 l 87 0 l 87 87 l 174 87 l 260 87 l 347 87 l 347 174 l 347 260 l 347 347 l 347 434 l 434 434 l 434 347 l 434 260 l 434 174 l 434 87 l 434 0 l 434 -87 l 347 -87 m 87 87 l 0 87 l 0 174 l 0 260 l 0 347 l 0 434 l 87 434 l 87 347 l 87 260 l 87 174 l 87 87 m 260 608 l 260 694 l 347 694 l 347 608 l 260 608 z "},"þ":{"ha":521,"x_min":0,"x_max":434,"o":"m 0 -87 l 0 0 l 0 87 l 0 174 l 0 260 l 0 347 l 0 434 l 0 521 l 87 521 l 87 434 l 174 434 l 260 434 l 347 434 l 347 347 l 434 347 l 434 260 l 434 174 l 434 87 l 347 87 l 347 174 l 347 260 l 347 347 l 260 347 l 174 347 l 87 347 l 87 260 l 87 174 l 87 87 l 174 87 l 260 87 l 347 87 l 347 0 l 260 0 l 174 0 l 87 0 l 87 -87 l 0 -87 z "},"ÿ":{"ha":521,"x_min":0,"x_max":434,"o":"m 260 521 l 260 608 l 347 608 l 347 521 l 260 521 m 87 521 l 87 608 l 174 608 l 174 521 l 87 521 m 260 -87 l 347 -87 l 347 -174 l 260 -174 l 174 -174 l 87 -174 l 87 -87 l 174 -87 l 260 -87 m 347 -87 l 347 0 l 260 0 l 174 0 l 87 0 l 87 87 l 174 87 l 260 87 l 347 87 l 347 174 l 347 260 l 347 347 l 347 434 l 434 434 l 434 347 l 434 260 l 434 174 l 434 87 l 434 0 l 434 -87 l 347 -87 m 87 87 l 0 87 l 0 174 l 0 260 l 0 347 l 0 434 l 87 434 l 87 347 l 87 260 l 87 174 l 87 87 z "},"Ā":{"ha":521,"x_min":0,"x_max":434,"o":"m 347 0 l 347 87 l 347 174 l 260 174 l 174 174 l 87 174 l 87 87 l 87 0 l 0 0 l 0 87 l 0 174 l 0 260 l 0 347 l 0 434 l 0 521 l 87 521 l 87 434 l 87 347 l 87 260 l 174 260 l 260 260 l 347 260 l 347 347 l 347 434 l 347 521 l 434 521 l 434 434 l 434 347 l 434 260 l 434 174 l 434 87 l 434 0 l 347 0 m 347 521 l 260 521 l 174 521 l 87 521 l 87 608 l 174 608 l 260 608 l 347 608 l 347 521 m 260 781 l 347 781 l 347 694 l 260 694 l 174 694 l 87 694 l 87 781 l 174 781 l 260 781 z "},"ā":{"ha":521,"x_min":0,"x_max":434,"o":"m 347 0 l 260 0 l 174 0 l 87 0 l 87 87 l 0 87 l 0 174 l 87 174 l 87 260 l 174 260 l 260 260 l 347 260 l 347 347 l 434 347 l 434 260 l 434 174 l 434 87 l 434 0 l 347 0 m 260 87 l 347 87 l 347 174 l 260 174 l 174 174 l 87 174 l 87 87 l 174 87 l 260 87 m 347 347 l 260 347 l 174 347 l 87 347 l 87 434 l 174 434 l 260 434 l 347 434 l 347 347 m 260 608 l 347 608 l 347 521 l 260 521 l 174 521 l 87 521 l 87 608 l 174 608 l 260 608 z "},"Ă":{"ha":521,"x_min":0,"x_max":434,"o":"m 347 0 l 347 87 l 347 174 l 260 174 l 174 174 l 87 174 l 87 87 l 87 0 l 0 0 l 0 87 l 0 174 l 0 260 l 0 347 l 0 434 l 0 521 l 87 521 l 87 434 l 87 347 l 87 260 l 174 260 l 260 260 l 347 260 l 347 347 l 347 434 l 347 521 l 434 521 l 434 434 l 434 347 l 434 260 l 434 174 l 434 87 l 434 0 l 347 0 m 174 694 l 174 781 l 260 781 l 260 694 l 174 694 m 347 521 l 260 521 l 174 521 l 87 521 l 87 608 l 174 608 l 260 608 l 347 608 l 347 521 m 260 781 l 260 868 l 347 868 l 347 781 l 260 781 m 174 781 l 87 781 l 87 868 l 174 868 l 174 781 z "},"ă":{"ha":521,"x_min":0,"x_max":434,"o":"m 174 521 l 174 608 l 260 608 l 260 521 l 174 521 m 347 0 l 260 0 l 174 0 l 87 0 l 87 87 l 0 87 l 0 174 l 87 174 l 87 260 l 174 260 l 260 260 l 347 260 l 347 347 l 434 347 l 434 260 l 434 174 l 434 87 l 434 0 l 347 0 m 260 87 l 347 87 l 347 174 l 260 174 l 174 174 l 87 174 l 87 87 l 174 87 l 260 87 m 347 347 l 260 347 l 174 347 l 87 347 l 87 434 l 174 434 l 260 434 l 347 434 l 347 347 m 260 608 l 260 694 l 347 694 l 347 608 l 260 608 m 174 608 l 87 608 l 87 694 l 174 694 l 174 608 z "},"Ą":{"ha":521,"x_min":0,"x_max":434,"o":"m 347 -174 l 347 -87 l 434 -87 l 434 -174 l 347 -174 m 0 0 l 0 87 l 0 174 l 0 260 l 0 347 l 0 434 l 0 521 l 87 521 l 87 434 l 87 347 l 87 260 l 174 260 l 260 260 l 347 260 l 347 347 l 347 434 l 347 521 l 434 521 l 434 434 l 434 347 l 434 260 l 434 174 l 434 87 l 434 0 l 347 0 l 347 -87 l 260 -87 l 260 0 l 347 0 l 347 87 l 347 174 l 260 174 l 174 174 l 87 174 l 87 87 l 87 0 l 0 0 m 347 521 l 260 521 l 174 521 l 87 521 l 87 608 l 174 608 l 260 608 l 347 608 l 347 521 z "},"ą":{"ha":521,"x_min":0,"x_max":434,"o":"m 347 -174 l 347 -87 l 434 -87 l 434 -174 l 347 -174 m 347 -87 l 260 -87 l 260 0 l 174 0 l 87 0 l 87 87 l 0 87 l 0 174 l 87 174 l 87 260 l 174 260 l 260 260 l 347 260 l 347 347 l 434 347 l 434 260 l 434 174 l 434 87 l 434 0 l 347 0 l 347 -87 m 260 87 l 347 87 l 347 174 l 260 174 l 174 174 l 87 174 l 87 87 l 174 87 l 260 87 m 347 347 l 260 347 l 174 347 l 87 347 l 87 434 l 174 434 l 260 434 l 347 434 l 347 347 z "},"Ć":{"ha":521,"x_min":0,"x_max":434,"o":"m 347 87 l 434 87 l 434 0 l 347 0 l 260 0 l 174 0 l 87 0 l 87 87 l 174 87 l 260 87 l 347 87 m 87 87 l 0 87 l 0 174 l 0 260 l 0 347 l 0 434 l 87 434 l 87 347 l 87 260 l 87 174 l 87 87 m 87 434 l 87 521 l 174 521 l 174 434 l 87 434 m 347 608 l 434 608 l 434 521 l 347 521 l 260 521 l 174 521 l 174 608 l 260 608 l 347 608 z "},"ć":{"ha":434,"x_min":0,"x_max":347,"o":"m 174 521 l 174 608 l 260 608 l 260 521 l 174 521 m 260 87 l 347 87 l 347 0 l 260 0 l 174 0 l 87 0 l 87 87 l 174 87 l 260 87 m 87 87 l 0 87 l 0 174 l 0 260 l 0 347 l 87 347 l 87 260 l 87 174 l 87 87 m 260 434 l 347 434 l 347 347 l 260 347 l 174 347 l 87 347 l 87 434 l 174 434 l 260 434 m 260 608 l 260 694 l 347 694 l 347 608 l 260 608 z "},"Ĉ":{"ha":521,"x_min":0,"x_max":434,"o":"m 260 694 l 260 781 l 347 781 l 347 694 l 260 694 m 87 694 l 87 781 l 174 781 l 174 694 l 87 694 m 347 87 l 434 87 l 434 0 l 347 0 l 260 0 l 174 0 l 87 0 l 87 87 l 174 87 l 260 87 l 347 87 m 87 87 l 0 87 l 0 174 l 0 260 l 0 347 l 0 434 l 87 434 l 87 347 l 87 260 l 87 174 l 87 87 m 87 434 l 87 521 l 174 521 l 174 434 l 87 434 m 347 608 l 434 608 l 434 521 l 347 521 l 260 521 l 174 521 l 174 608 l 260 608 l 347 608 m 260 781 l 174 781 l 174 868 l 260 868 l 260 781 z "},"ĉ":{"ha":434,"x_min":0,"x_max":347,"o":"m 260 521 l 260 608 l 347 608 l 347 521 l 260 521 m 87 521 l 87 608 l 174 608 l 174 521 l 87 521 m 260 87 l 347 87 l 347 0 l 260 0 l 174 0 l 87 0 l 87 87 l 174 87 l 260 87 m 87 87 l 0 87 l 0 174 l 0 260 l 0 347 l 87 347 l 87 260 l 87 174 l 87 87 m 260 434 l 347 434 l 347 347 l 260 347 l 174 347 l 87 347 l 87 434 l 174 434 l 260 434 m 260 608 l 174 608 l 174 694 l 260 694 l 260 608 z "},"Ċ":{"ha":521,"x_min":0,"x_max":434,"o":"m 174 694 l 174 781 l 260 781 l 260 694 l 174 694 m 347 87 l 434 87 l 434 0 l 347 0 l 260 0 l 174 0 l 87 0 l 87 87 l 174 87 l 260 87 l 347 87 m 87 87 l 0 87 l 0 174 l 0 260 l 0 347 l 0 434 l 87 434 l 87 347 l 87 260 l 87 174 l 87 87 m 87 434 l 87 521 l 174 521 l 174 434 l 87 434 m 347 608 l 434 608 l 434 521 l 347 521 l 260 521 l 174 521 l 174 608 l 260 608 l 347 608 z "},"ċ":{"ha":434,"x_min":0,"x_max":347,"o":"m 174 521 l 174 608 l 260 608 l 260 521 l 174 521 m 260 87 l 347 87 l 347 0 l 260 0 l 174 0 l 87 0 l 87 87 l 174 87 l 260 87 m 87 87 l 0 87 l 0 174 l 0 260 l 0 347 l 87 347 l 87 260 l 87 174 l 87 87 m 260 434 l 347 434 l 347 347 l 260 347 l 174 347 l 87 347 l 87 434 l 174 434 l 260 434 z "},"Č":{"ha":521,"x_min":0,"x_max":434,"o":"m 174 694 l 174 781 l 260 781 l 260 694 l 174 694 m 347 87 l 434 87 l 434 0 l 347 0 l 260 0 l 174 0 l 87 0 l 87 87 l 174 87 l 260 87 l 347 87 m 87 87 l 0 87 l 0 174 l 0 260 l 0 347 l 0 434 l 87 434 l 87 347 l 87 260 l 87 174 l 87 87 m 87 434 l 87 521 l 174 521 l 174 434 l 87 434 m 347 608 l 434 608 l 434 521 l 347 521 l 260 521 l 174 521 l 174 608 l 260 608 l 347 608 m 260 781 l 260 868 l 347 868 l 347 781 l 260 781 m 174 781 l 87 781 l 87 868 l 174 868 l 174 781 z "},"č":{"ha":434,"x_min":0,"x_max":347,"o":"m 174 521 l 174 608 l 260 608 l 260 521 l 174 521 m 260 87 l 347 87 l 347 0 l 260 0 l 174 0 l 87 0 l 87 87 l 174 87 l 260 87 m 87 87 l 0 87 l 0 174 l 0 260 l 0 347 l 87 347 l 87 260 l 87 174 l 87 87 m 260 434 l 347 434 l 347 347 l 260 347 l 174 347 l 87 347 l 87 434 l 174 434 l 260 434 m 260 608 l 260 694 l 347 694 l 347 608 l 260 608 m 174 608 l 87 608 l 87 694 l 174 694 l 174 608 z "},"Ď":{"ha":521,"x_min":0,"x_max":434,"o":"m 174 694 l 174 781 l 260 781 l 260 694 l 174 694 m 260 87 l 347 87 l 347 174 l 347 260 l 347 347 l 347 434 l 260 434 l 260 521 l 174 521 l 87 521 l 87 434 l 87 347 l 87 260 l 87 174 l 87 87 l 174 87 l 260 87 m 260 0 l 174 0 l 87 0 l 0 0 l 0 87 l 0 174 l 0 260 l 0 347 l 0 434 l 0 521 l 0 608 l 87 608 l 174 608 l 260 608 l 260 521 l 347 521 l 347 434 l 434 434 l 434 347 l 434 260 l 434 174 l 434 87 l 347 87 l 347 0 l 260 0 m 260 781 l 260 868 l 347 868 l 347 781 l 260 781 m 174 781 l 87 781 l 87 868 l 174 868 l 174 781 z "},"ď":{"ha":694,"x_min":0,"x_max":608,"o":"m 521 521 l 521 608 l 608 608 l 608 521 l 521 521 m 347 0 l 260 0 l 174 0 l 87 0 l 87 87 l 0 87 l 0 174 l 0 260 l 0 347 l 87 347 l 87 434 l 174 434 l 260 434 l 347 434 l 347 521 l 347 608 l 434 608 l 434 521 l 434 434 l 434 347 l 434 260 l 434 174 l 434 87 l 434 0 l 347 0 m 260 87 l 347 87 l 347 174 l 347 260 l 347 347 l 260 347 l 174 347 l 87 347 l 87 260 l 87 174 l 87 87 l 174 87 l 260 87 z "},"Đ":{"ha":521,"x_min":-87,"x_max":434,"o":"m 260 87 l 347 87 l 347 174 l 347 260 l 347 347 l 347 434 l 260 434 l 260 521 l 174 521 l 87 521 l 87 434 l 87 347 l 174 347 l 174 260 l 87 260 l 87 174 l 87 87 l 174 87 l 260 87 m 260 0 l 174 0 l 87 0 l 0 0 l 0 87 l 0 174 l 0 260 l -87 260 l -87 347 l 0 347 l 0 434 l 0 521 l 0 608 l 87 608 l 174 608 l 260 608 l 260 521 l 347 521 l 347 434 l 434 434 l 434 347 l 434 260 l 434 174 l 434 87 l 347 87 l 347 0 l 260 0 z "},"đ":{"ha":608,"x_min":0,"x_max":521,"o":"m 347 0 l 260 0 l 174 0 l 87 0 l 87 87 l 0 87 l 0 174 l 0 260 l 0 347 l 87 347 l 87 434 l 174 434 l 260 434 l 347 434 l 347 521 l 260 521 l 174 521 l 174 608 l 260 608 l 347 608 l 434 608 l 521 608 l 521 521 l 434 521 l 434 434 l 434 347 l 434 260 l 434 174 l 434 87 l 434 0 l 347 0 m 260 87 l 347 87 l 347 174 l 347 260 l 347 347 l 260 347 l 174 347 l 87 347 l 87 260 l 87 174 l 87 87 l 174 87 l 260 87 z "},"Ē":{"ha":521,"x_min":0,"x_max":434,"o":"m 347 87 l 434 87 l 434 0 l 347 0 l 260 0 l 174 0 l 87 0 l 87 87 l 174 87 l 260 87 l 347 87 m 87 87 l 0 87 l 0 174 l 0 260 l 0 347 l 0 434 l 0 521 l 87 521 l 87 434 l 174 434 l 260 434 l 347 434 l 347 347 l 260 347 l 174 347 l 87 347 l 87 260 l 87 174 l 87 87 m 347 608 l 434 608 l 434 521 l 347 521 l 260 521 l 174 521 l 87 521 l 87 608 l 174 608 l 260 608 l 347 608 m 260 781 l 347 781 l 347 694 l 260 694 l 174 694 l 87 694 l 87 781 l 174 781 l 260 781 z "},"ē":{"ha":521,"x_min":0,"x_max":434,"o":"m 260 87 l 347 87 l 347 0 l 260 0 l 174 0 l 87 0 l 87 87 l 174 87 l 260 87 m 87 87 l 0 87 l 0 174 l 0 260 l 0 347 l 87 347 l 87 260 l 174 260 l 260 260 l 347 260 l 347 347 l 434 347 l 434 260 l 434 174 l 347 174 l 260 174 l 174 174 l 87 174 l 87 87 m 347 347 l 260 347 l 174 347 l 87 347 l 87 434 l 174 434 l 260 434 l 347 434 l 347 347 m 260 608 l 347 608 l 347 521 l 260 521 l 174 521 l 87 521 l 87 608 l 174 608 l 260 608 z "},"Ĕ":{"ha":521,"x_min":0,"x_max":434,"o":"m 174 694 l 174 781 l 260 781 l 260 694 l 174 694 m 347 87 l 434 87 l 434 0 l 347 0 l 260 0 l 174 0 l 87 0 l 87 87 l 174 87 l 260 87 l 347 87 m 87 87 l 0 87 l 0 174 l 0 260 l 0 347 l 0 434 l 0 521 l 87 521 l 87 434 l 174 434 l 260 434 l 347 434 l 347 347 l 260 347 l 174 347 l 87 347 l 87 260 l 87 174 l 87 87 m 347 608 l 434 608 l 434 521 l 347 521 l 260 521 l 174 521 l 87 521 l 87 608 l 174 608 l 260 608 l 347 608 m 260 781 l 260 868 l 347 868 l 347 781 l 260 781 m 174 781 l 87 781 l 87 868 l 174 868 l 174 781 z "},"ĕ":{"ha":521,"x_min":0,"x_max":434,"o":"m 174 521 l 174 608 l 260 608 l 260 521 l 174 521 m 260 87 l 347 87 l 347 0 l 260 0 l 174 0 l 87 0 l 87 87 l 174 87 l 260 87 m 87 87 l 0 87 l 0 174 l 0 260 l 0 347 l 87 347 l 87 260 l 174 260 l 260 260 l 347 260 l 347 347 l 434 347 l 434 260 l 434 174 l 347 174 l 260 174 l 174 174 l 87 174 l 87 87 m 347 347 l 260 347 l 174 347 l 87 347 l 87 434 l 174 434 l 260 434 l 347 434 l 347 347 m 260 608 l 260 694 l 347 694 l 347 608 l 260 608 m 174 608 l 87 608 l 87 694 l 174 694 l 174 608 z "},"Ė":{"ha":521,"x_min":0,"x_max":434,"o":"m 174 694 l 174 781 l 260 781 l 260 694 l 174 694 m 347 87 l 434 87 l 434 0 l 347 0 l 260 0 l 174 0 l 87 0 l 87 87 l 174 87 l 260 87 l 347 87 m 87 87 l 0 87 l 0 174 l 0 260 l 0 347 l 0 434 l 0 521 l 87 521 l 87 434 l 174 434 l 260 434 l 347 434 l 347 347 l 260 347 l 174 347 l 87 347 l 87 260 l 87 174 l 87 87 m 347 608 l 434 608 l 434 521 l 347 521 l 260 521 l 174 521 l 87 521 l 87 608 l 174 608 l 260 608 l 347 608 z "},"ė":{"ha":521,"x_min":0,"x_max":434,"o":"m 174 521 l 174 608 l 260 608 l 260 521 l 174 521 m 260 87 l 347 87 l 347 0 l 260 0 l 174 0 l 87 0 l 87 87 l 174 87 l 260 87 m 87 87 l 0 87 l 0 174 l 0 260 l 0 347 l 87 347 l 87 260 l 174 260 l 260 260 l 347 260 l 347 347 l 434 347 l 434 260 l 434 174 l 347 174 l 260 174 l 174 174 l 87 174 l 87 87 m 347 347 l 260 347 l 174 347 l 87 347 l 87 434 l 174 434 l 260 434 l 347 434 l 347 347 z "},"Ę":{"ha":521,"x_min":0,"x_max":434,"o":"m 260 -174 l 260 -87 l 347 -87 l 347 -174 l 260 -174 m 347 -87 l 347 0 l 260 0 l 174 0 l 87 0 l 87 87 l 174 87 l 260 87 l 347 87 l 434 87 l 434 0 l 434 -87 l 347 -87 m 87 87 l 0 87 l 0 174 l 0 260 l 0 347 l 0 434 l 0 521 l 87 521 l 87 434 l 174 434 l 260 434 l 347 434 l 347 347 l 260 347 l 174 347 l 87 347 l 87 260 l 87 174 l 87 87 m 347 608 l 434 608 l 434 521 l 347 521 l 260 521 l 174 521 l 87 521 l 87 608 l 174 608 l 260 608 l 347 608 z "},"ę":{"ha":521,"x_min":0,"x_max":434,"o":"m 87 -174 l 87 -87 l 174 -87 l 174 -174 l 87 -174 m 174 -87 l 174 0 l 87 0 l 87 87 l 174 87 l 260 87 l 347 87 l 347 0 l 260 0 l 260 -87 l 174 -87 m 87 87 l 0 87 l 0 174 l 0 260 l 0 347 l 87 347 l 87 260 l 174 260 l 260 260 l 347 260 l 347 347 l 434 347 l 434 260 l 434 174 l 347 174 l 260 174 l 174 174 l 87 174 l 87 87 m 347 347 l 260 347 l 174 347 l 87 347 l 87 434 l 174 434 l 260 434 l 347 434 l 347 347 z "},"Ě":{"ha":521,"x_min":0,"x_max":434,"o":"m 174 694 l 174 781 l 260 781 l 260 694 l 174 694 m 347 87 l 434 87 l 434 0 l 347 0 l 260 0 l 174 0 l 87 0 l 87 87 l 174 87 l 260 87 l 347 87 m 87 87 l 0 87 l 0 174 l 0 260 l 0 347 l 0 434 l 0 521 l 87 521 l 87 434 l 174 434 l 260 434 l 347 434 l 347 347 l 260 347 l 174 347 l 87 347 l 87 260 l 87 174 l 87 87 m 347 608 l 434 608 l 434 521 l 347 521 l 260 521 l 174 521 l 87 521 l 87 608 l 174 608 l 260 608 l 347 608 m 260 781 l 260 868 l 347 868 l 347 781 l 260 781 m 174 781 l 87 781 l 87 868 l 174 868 l 174 781 z "},"ě":{"ha":521,"x_min":0,"x_max":434,"o":"m 174 521 l 174 608 l 260 608 l 260 521 l 174 521 m 260 87 l 347 87 l 347 0 l 260 0 l 174 0 l 87 0 l 87 87 l 174 87 l 260 87 m 87 87 l 0 87 l 0 174 l 0 260 l 0 347 l 87 347 l 87 260 l 174 260 l 260 260 l 347 260 l 347 347 l 434 347 l 434 260 l 434 174 l 347 174 l 260 174 l 174 174 l 87 174 l 87 87 m 347 347 l 260 347 l 174 347 l 87 347 l 87 434 l 174 434 l 260 434 l 347 434 l 347 347 m 260 608 l 260 694 l 347 694 l 347 608 l 260 608 m 174 608 l 87 608 l 87 694 l 174 694 l 174 608 z "},"Ĝ":{"ha":521,"x_min":0,"x_max":434,"o":"m 347 434 l 347 521 l 434 521 l 434 434 l 347 434 m 260 694 l 260 781 l 347 781 l 347 694 l 260 694 m 87 694 l 87 781 l 174 781 l 174 694 l 87 694 m 260 87 l 347 87 l 347 0 l 260 0 l 174 0 l 87 0 l 87 87 l 174 87 l 260 87 m 347 87 l 347 174 l 347 260 l 260 260 l 174 260 l 174 347 l 260 347 l 347 347 l 434 347 l 434 260 l 434 174 l 434 87 l 347 87 m 87 87 l 0 87 l 0 174 l 0 260 l 0 347 l 0 434 l 0 521 l 87 521 l 87 434 l 87 347 l 87 260 l 87 174 l 87 87 m 347 521 l 260 521 l 174 521 l 87 521 l 87 608 l 174 608 l 260 608 l 347 608 l 347 521 m 260 781 l 174 781 l 174 868 l 260 868 l 260 781 z "},"ĝ":{"ha":521,"x_min":0,"x_max":434,"o":"m 260 521 l 260 608 l 347 608 l 347 521 l 260 521 m 87 521 l 87 608 l 174 608 l 174 521 l 87 521 m 260 -87 l 347 -87 l 347 -174 l 260 -174 l 174 -174 l 87 -174 l 87 -87 l 174 -87 l 260 -87 m 347 -87 l 347 0 l 260 0 l 174 0 l 87 0 l 87 87 l 174 87 l 260 87 l 347 87 l 347 174 l 347 260 l 347 347 l 434 347 l 434 260 l 434 174 l 434 87 l 434 0 l 434 -87 l 347 -87 m 87 87 l 0 87 l 0 174 l 0 260 l 0 347 l 87 347 l 87 260 l 87 174 l 87 87 m 347 347 l 260 347 l 174 347 l 87 347 l 87 434 l 174 434 l 260 434 l 347 434 l 347 347 m 260 608 l 174 608 l 174 694 l 260 694 l 260 608 z "},"Ğ":{"ha":521,"x_min":0,"x_max":434,"o":"m 347 434 l 347 521 l 434 521 l 434 434 l 347 434 m 174 694 l 174 781 l 260 781 l 260 694 l 174 694 m 260 87 l 347 87 l 347 0 l 260 0 l 174 0 l 87 0 l 87 87 l 174 87 l 260 87 m 347 87 l 347 174 l 347 260 l 260 260 l 174 260 l 174 347 l 260 347 l 347 347 l 434 347 l 434 260 l 434 174 l 434 87 l 347 87 m 87 87 l 0 87 l 0 174 l 0 260 l 0 347 l 0 434 l 0 521 l 87 521 l 87 434 l 87 347 l 87 260 l 87 174 l 87 87 m 347 521 l 260 521 l 174 521 l 87 521 l 87 608 l 174 608 l 260 608 l 347 608 l 347 521 m 260 781 l 260 868 l 347 868 l 347 781 l 260 781 m 174 781 l 87 781 l 87 868 l 174 868 l 174 781 z "},"ğ":{"ha":521,"x_min":0,"x_max":434,"o":"m 174 521 l 174 608 l 260 608 l 260 521 l 174 521 m 260 -87 l 347 -87 l 347 -174 l 260 -174 l 174 -174 l 87 -174 l 87 -87 l 174 -87 l 260 -87 m 347 -87 l 347 0 l 260 0 l 174 0 l 87 0 l 87 87 l 174 87 l 260 87 l 347 87 l 347 174 l 347 260 l 347 347 l 434 347 l 434 260 l 434 174 l 434 87 l 434 0 l 434 -87 l 347 -87 m 87 87 l 0 87 l 0 174 l 0 260 l 0 347 l 87 347 l 87 260 l 87 174 l 87 87 m 347 347 l 260 347 l 174 347 l 87 347 l 87 434 l 174 434 l 260 434 l 347 434 l 347 347 m 260 608 l 260 694 l 347 694 l 347 608 l 260 608 m 174 608 l 87 608 l 87 694 l 174 694 l 174 608 z "},"Ġ":{"ha":521,"x_min":0,"x_max":434,"o":"m 347 434 l 347 521 l 434 521 l 434 434 l 347 434 m 174 694 l 174 781 l 260 781 l 260 694 l 174 694 m 260 87 l 347 87 l 347 0 l 260 0 l 174 0 l 87 0 l 87 87 l 174 87 l 260 87 m 347 87 l 347 174 l 347 260 l 260 260 l 174 260 l 174 347 l 260 347 l 347 347 l 434 347 l 434 260 l 434 174 l 434 87 l 347 87 m 87 87 l 0 87 l 0 174 l 0 260 l 0 347 l 0 434 l 0 521 l 87 521 l 87 434 l 87 347 l 87 260 l 87 174 l 87 87 m 347 521 l 260 521 l 174 521 l 87 521 l 87 608 l 174 608 l 260 608 l 347 608 l 347 521 z "},"ġ":{"ha":521,"x_min":0,"x_max":434,"o":"m 174 521 l 174 608 l 260 608 l 260 521 l 174 521 m 260 -87 l 347 -87 l 347 -174 l 260 -174 l 174 -174 l 87 -174 l 87 -87 l 174 -87 l 260 -87 m 347 -87 l 347 0 l 260 0 l 174 0 l 87 0 l 87 87 l 174 87 l 260 87 l 347 87 l 347 174 l 347 260 l 347 347 l 434 347 l 434 260 l 434 174 l 434 87 l 434 0 l 434 -87 l 347 -87 m 87 87 l 0 87 l 0 174 l 0 260 l 0 347 l 87 347 l 87 260 l 87 174 l 87 87 m 347 347 l 260 347 l 174 347 l 87 347 l 87 434 l 174 434 l 260 434 l 347 434 l 347 347 z "},"Ģ":{"ha":521,"x_min":0,"x_max":434,"o":"m 174 -174 l 174 -87 l 260 -87 l 260 -174 l 174 -174 m 347 434 l 347 521 l 434 521 l 434 434 l 347 434 m 260 87 l 347 87 l 347 0 l 260 0 l 174 0 l 87 0 l 87 87 l 174 87 l 260 87 m 347 87 l 347 174 l 347 260 l 260 260 l 174 260 l 174 347 l 260 347 l 347 347 l 434 347 l 434 260 l 434 174 l 434 87 l 347 87 m 87 87 l 0 87 l 0 174 l 0 260 l 0 347 l 0 434 l 0 521 l 87 521 l 87 434 l 87 347 l 87 260 l 87 174 l 87 87 m 347 521 l 260 521 l 174 521 l 87 521 l 87 608 l 174 608 l 260 608 l 347 608 l 347 521 z "},"ģ":{"ha":521,"x_min":0,"x_max":434,"o":"m 174 521 l 174 608 l 260 608 l 260 521 l 174 521 m 260 -87 l 347 -87 l 347 -174 l 260 -174 l 174 -174 l 87 -174 l 87 -87 l 174 -87 l 260 -87 m 347 -87 l 347 0 l 260 0 l 174 0 l 87 0 l 87 87 l 174 87 l 260 87 l 347 87 l 347 174 l 347 260 l 347 347 l 434 347 l 434 260 l 434 174 l 434 87 l 434 0 l 434 -87 l 347 -87 m 87 87 l 0 87 l 0 174 l 0 260 l 0 347 l 87 347 l 87 260 l 87 174 l 87 87 m 347 347 l 260 347 l 174 347 l 87 347 l 87 434 l 174 434 l 260 434 l 347 434 l 347 347 z "},"Ĥ":{"ha":521,"x_min":0,"x_max":434,"o":"m 347 0 l 347 87 l 347 174 l 347 260 l 347 347 l 260 347 l 174 347 l 87 347 l 87 260 l 87 174 l 87 87 l 87 0 l 0 0 l 0 87 l 0 174 l 0 260 l 0 347 l 0 434 l 0 521 l 0 608 l 87 608 l 87 521 l 87 434 l 174 434 l 260 434 l 347 434 l 347 521 l 347 608 l 434 608 l 434 521 l 434 434 l 434 347 l 434 260 l 434 174 l 434 87 l 434 0 l 347 0 m 260 694 l 260 781 l 347 781 l 347 694 l 260 694 m 87 694 l 87 781 l 174 781 l 174 694 l 87 694 m 260 781 l 174 781 l 174 868 l 260 868 l 260 781 z "},"ĥ":{"ha":521,"x_min":0,"x_max":434,"o":"m 347 0 l 347 87 l 347 174 l 347 260 l 347 347 l 434 347 l 434 260 l 434 174 l 434 87 l 434 0 l 347 0 m 0 0 l 0 87 l 0 174 l 0 260 l 0 347 l 0 434 l 0 521 l 0 608 l 87 608 l 87 521 l 87 434 l 174 434 l 260 434 l 347 434 l 347 347 l 260 347 l 174 347 l 87 347 l 87 260 l 87 174 l 87 87 l 87 0 l 0 0 m 260 694 l 260 781 l 347 781 l 347 694 l 260 694 m 87 694 l 87 781 l 174 781 l 174 694 l 87 694 m 260 781 l 174 781 l 174 868 l 260 868 l 260 781 z "},"Ħ":{"ha":608,"x_min":-87,"x_max":521,"o":"m 347 0 l 347 87 l 347 174 l 347 260 l 347 347 l 260 347 l 174 347 l 87 347 l 87 260 l 87 174 l 87 87 l 87 0 l 0 0 l 0 87 l 0 174 l 0 260 l 0 347 l 0 434 l 0 521 l -87 521 l -87 608 l 0 608 l 87 608 l 174 608 l 260 608 l 347 608 l 434 608 l 521 608 l 521 521 l 434 521 l 434 434 l 434 347 l 434 260 l 434 174 l 434 87 l 434 0 l 347 0 m 260 434 l 347 434 l 347 521 l 260 521 l 174 521 l 87 521 l 87 434 l 174 434 l 260 434 z "},"ħ":{"ha":521,"x_min":-87,"x_max":434,"o":"m 347 0 l 347 87 l 347 174 l 347 260 l 347 347 l 434 347 l 434 260 l 434 174 l 434 87 l 434 0 l 347 0 m 0 0 l 0 87 l 0 174 l 0 260 l 0 347 l 0 434 l 0 521 l -87 521 l -87 608 l 0 608 l 87 608 l 174 608 l 260 608 l 260 521 l 174 521 l 87 521 l 87 434 l 174 434 l 260 434 l 347 434 l 347 347 l 260 347 l 174 347 l 87 347 l 87 260 l 87 174 l 87 87 l 87 0 l 0 0 z "},"Ĩ":{"ha":521,"x_min":0,"x_max":434,"o":"m 174 694 l 174 781 l 260 781 l 260 694 l 174 694 m 0 694 l 0 781 l 87 781 l 87 694 l 0 694 m 347 87 l 434 87 l 434 0 l 347 0 l 260 0 l 174 0 l 87 0 l 0 0 l 0 87 l 87 87 l 174 87 l 174 174 l 174 260 l 174 347 l 174 434 l 174 521 l 87 521 l 0 521 l 0 608 l 87 608 l 174 608 l 260 608 l 347 608 l 434 608 l 434 521 l 347 521 l 260 521 l 260 434 l 260 347 l 260 260 l 260 174 l 260 87 l 347 87 m 260 781 l 260 868 l 347 868 l 347 781 l 260 781 m 174 781 l 87 781 l 87 868 l 174 868 l 174 781 z "},"ĩ":{"ha":347,"x_min":-87,"x_max":260,"o":"m 87 0 l 87 87 l 87 174 l 87 260 l 87 347 l 0 347 l 0 434 l 87 434 l 174 434 l 174 347 l 174 260 l 174 174 l 174 87 l 174 0 l 87 0 m 87 521 l 87 608 l 174 608 l 174 521 l 87 521 m -87 521 l -87 608 l 0 608 l 0 521 l -87 521 m 174 608 l 174 694 l 260 694 l 260 608 l 174 608 m 87 608 l 0 608 l 0 694 l 87 694 l 87 608 z "},"Ī":{"ha":521,"x_min":0,"x_max":434,"o":"m 347 87 l 434 87 l 434 0 l 347 0 l 260 0 l 174 0 l 87 0 l 0 0 l 0 87 l 87 87 l 174 87 l 174 174 l 174 260 l 174 347 l 174 434 l 174 521 l 87 521 l 0 521 l 0 608 l 87 608 l 174 608 l 260 608 l 347 608 l 434 608 l 434 521 l 347 521 l 260 521 l 260 434 l 260 347 l 260 260 l 260 174 l 260 87 l 347 87 m 260 781 l 347 781 l 347 694 l 260 694 l 174 694 l 87 694 l 87 781 l 174 781 l 260 781 z "},"ī":{"ha":347,"x_min":0,"x_max":260,"o":"m 87 0 l 87 87 l 87 174 l 87 260 l 87 347 l 0 347 l 0 434 l 87 434 l 174 434 l 174 347 l 174 260 l 174 174 l 174 87 l 174 0 l 87 0 m 174 608 l 260 608 l 260 521 l 174 521 l 87 521 l 0 521 l 0 608 l 87 608 l 174 608 z "},"Ĭ":{"ha":521,"x_min":0,"x_max":434,"o":"m 174 694 l 174 781 l 260 781 l 260 694 l 174 694 m 347 87 l 434 87 l 434 0 l 347 0 l 260 0 l 174 0 l 87 0 l 0 0 l 0 87 l 87 87 l 174 87 l 174 174 l 174 260 l 174 347 l 174 434 l 174 521 l 87 521 l 0 521 l 0 608 l 87 608 l 174 608 l 260 608 l 347 608 l 434 608 l 434 521 l 347 521 l 260 521 l 260 434 l 260 347 l 260 260 l 260 174 l 260 87 l 347 87 m 260 781 l 260 868 l 347 868 l 347 781 l 260 781 m 174 781 l 87 781 l 87 868 l 174 868 l 174 781 z "},"ĭ":{"ha":347,"x_min":0,"x_max":260,"o":"m 87 0 l 87 87 l 87 174 l 87 260 l 87 347 l 0 347 l 0 434 l 87 434 l 174 434 l 174 347 l 174 260 l 174 174 l 174 87 l 174 0 l 87 0 m 87 521 l 87 608 l 174 608 l 174 521 l 87 521 m 174 608 l 174 694 l 260 694 l 260 608 l 174 608 m 87 608 l 0 608 l 0 694 l 87 694 l 87 608 z "},"Į":{"ha":521,"x_min":0,"x_max":434,"o":"m 260 -174 l 260 -87 l 347 -87 l 347 -174 l 260 -174 m 347 -87 l 347 0 l 260 0 l 174 0 l 87 0 l 0 0 l 0 87 l 87 87 l 174 87 l 174 174 l 174 260 l 174 347 l 174 434 l 174 521 l 87 521 l 0 521 l 0 608 l 87 608 l 174 608 l 260 608 l 347 608 l 434 608 l 434 521 l 347 521 l 260 521 l 260 434 l 260 347 l 260 260 l 260 174 l 260 87 l 347 87 l 434 87 l 434 0 l 434 -87 l 347 -87 z "},"į":{"ha":260,"x_min":0,"x_max":174,"o":"m 87 -174 l 87 -87 l 174 -87 l 174 -174 l 87 -174 m 87 521 l 87 608 l 174 608 l 174 521 l 87 521 m 87 -87 l 0 -87 l 0 0 l 87 0 l 87 -87 m 87 0 l 87 87 l 87 174 l 87 260 l 87 347 l 0 347 l 0 434 l 87 434 l 174 434 l 174 347 l 174 260 l 174 174 l 174 87 l 174 0 l 87 0 z "},"İ":{"ha":521,"x_min":0,"x_max":434,"o":"m 174 694 l 174 781 l 260 781 l 260 694 l 174 694 m 347 87 l 434 87 l 434 0 l 347 0 l 260 0 l 174 0 l 87 0 l 0 0 l 0 87 l 87 87 l 174 87 l 174 174 l 174 260 l 174 347 l 174 434 l 174 521 l 87 521 l 0 521 l 0 608 l 87 608 l 174 608 l 260 608 l 347 608 l 434 608 l 434 521 l 347 521 l 260 521 l 260 434 l 260 347 l 260 260 l 260 174 l 260 87 l 347 87 z "},"ı":{"ha":260,"x_min":0,"x_max":174,"o":"m 87 0 l 87 87 l 87 174 l 87 260 l 87 347 l 0 347 l 0 434 l 87 434 l 174 434 l 174 347 l 174 260 l 174 174 l 174 87 l 174 0 l 87 0 z "},"Ĳ":{"ha":1042,"x_min":0,"x_max":955,"o":"m 694 87 l 781 87 l 781 0 l 694 0 l 608 0 l 521 0 l 521 87 l 608 87 l 694 87 m 347 87 l 434 87 l 434 0 l 347 0 l 260 0 l 174 0 l 87 0 l 0 0 l 0 87 l 87 87 l 174 87 l 174 174 l 174 260 l 174 347 l 174 434 l 174 521 l 87 521 l 0 521 l 0 608 l 87 608 l 174 608 l 260 608 l 347 608 l 434 608 l 434 521 l 347 521 l 260 521 l 260 434 l 260 347 l 260 260 l 260 174 l 260 87 l 347 87 m 781 87 l 781 174 l 868 174 l 868 87 l 781 87 m 868 174 l 868 260 l 868 347 l 868 434 l 868 521 l 781 521 l 694 521 l 608 521 l 521 521 l 521 608 l 608 608 l 694 608 l 781 608 l 868 608 l 955 608 l 955 521 l 955 434 l 955 347 l 955 260 l 955 174 l 868 174 z "},"ĳ":{"ha":521,"x_min":0,"x_max":434,"o":"m 87 0 l 87 87 l 87 174 l 87 260 l 87 347 l 0 347 l 0 434 l 87 434 l 174 434 l 174 347 l 174 260 l 174 174 l 174 87 l 174 0 l 87 0 m 347 521 l 347 608 l 434 608 l 434 521 l 347 521 m 87 521 l 87 608 l 174 608 l 174 521 l 87 521 m 260 -87 l 347 -87 l 347 -174 l 260 -174 l 174 -174 l 174 -87 l 260 -87 m 347 -87 l 347 0 l 347 87 l 347 174 l 347 260 l 347 347 l 260 347 l 260 434 l 347 434 l 434 434 l 434 347 l 434 260 l 434 174 l 434 87 l 434 0 l 434 -87 l 347 -87 z "},"Ĵ":{"ha":521,"x_min":0,"x_max":434,"o":"m 260 694 l 260 781 l 347 781 l 347 694 l 260 694 m 87 694 l 87 781 l 174 781 l 174 694 l 87 694 m 174 87 l 260 87 l 260 0 l 174 0 l 87 0 l 0 0 l 0 87 l 87 87 l 174 87 m 260 87 l 260 174 l 347 174 l 347 87 l 260 87 m 347 174 l 347 260 l 347 347 l 347 434 l 347 521 l 260 521 l 174 521 l 87 521 l 0 521 l 0 608 l 87 608 l 174 608 l 260 608 l 347 608 l 434 608 l 434 521 l 434 434 l 434 347 l 434 260 l 434 174 l 347 174 m 260 781 l 174 781 l 174 868 l 260 868 l 260 781 z "},"ĵ":{"ha":434,"x_min":0,"x_max":347,"o":"m 260 521 l 260 608 l 347 608 l 347 521 l 260 521 m 87 521 l 87 608 l 174 608 l 174 521 l 87 521 m 87 -87 l 174 -87 l 174 -174 l 87 -174 l 0 -174 l 0 -87 l 87 -87 m 174 -87 l 174 0 l 174 87 l 174 174 l 174 260 l 174 347 l 87 347 l 87 434 l 174 434 l 260 434 l 260 347 l 260 260 l 260 174 l 260 87 l 260 0 l 260 -87 l 174 -87 m 260 608 l 174 608 l 174 694 l 260 694 l 260 608 z "},"Ķ":{"ha":521,"x_min":0,"x_max":434,"o":"m 174 -174 l 174 -87 l 260 -87 l 260 -174 l 174 -174 m 347 0 l 347 87 l 347 174 l 434 174 l 434 87 l 434 0 l 347 0 m 0 0 l 0 87 l 0 174 l 0 260 l 0 347 l 0 434 l 0 521 l 0 608 l 87 608 l 87 521 l 87 434 l 87 347 l 174 347 l 260 347 l 260 260 l 347 260 l 347 174 l 260 174 l 260 260 l 174 260 l 87 260 l 87 174 l 87 87 l 87 0 l 0 0 m 260 347 l 260 434 l 347 434 l 347 347 l 260 347 m 347 434 l 347 521 l 347 608 l 434 608 l 434 521 l 434 434 l 347 434 z "},"ķ":{"ha":434,"x_min":0,"x_max":347,"o":"m 174 -174 l 174 -87 l 260 -87 l 260 -174 l 174 -174 m 260 0 l 260 87 l 347 87 l 347 0 l 260 0 m 0 0 l 0 87 l 0 174 l 0 260 l 0 347 l 0 434 l 0 521 l 0 608 l 87 608 l 87 521 l 87 434 l 87 347 l 87 260 l 174 260 l 174 174 l 260 174 l 260 87 l 174 87 l 174 174 l 87 174 l 87 87 l 87 0 l 0 0 m 174 260 l 174 347 l 260 347 l 260 260 l 174 260 m 260 347 l 260 434 l 347 434 l 347 347 l 260 347 z "},"ĸ":{"ha":434,"x_min":0,"x_max":347,"o":"m 260 0 l 260 87 l 347 87 l 347 0 l 260 0 m 0 0 l 0 87 l 0 174 l 0 260 l 0 347 l 0 434 l 87 434 l 87 347 l 87 260 l 174 260 l 174 174 l 260 174 l 260 87 l 174 87 l 174 174 l 87 174 l 87 87 l 87 0 l 0 0 m 174 260 l 174 347 l 260 347 l 260 260 l 174 260 m 260 347 l 260 434 l 347 434 l 347 347 l 260 347 z "},"Ĺ":{"ha":521,"x_min":0,"x_max":434,"o":"m 87 694 l 87 781 l 174 781 l 174 694 l 87 694 m 347 87 l 434 87 l 434 0 l 347 0 l 260 0 l 174 0 l 87 0 l 87 87 l 174 87 l 260 87 l 347 87 m 87 87 l 0 87 l 0 174 l 0 260 l 0 347 l 0 434 l 0 521 l 0 608 l 87 608 l 87 521 l 87 434 l 87 347 l 87 260 l 87 174 l 87 87 m 174 781 l 174 868 l 260 868 l 260 781 l 174 781 z "},"ĺ":{"ha":260,"x_min":0,"x_max":174,"o":"m 87 0 l 87 87 l 174 87 l 174 0 l 87 0 m 0 694 l 0 781 l 87 781 l 87 694 l 0 694 m 87 87 l 0 87 l 0 174 l 0 260 l 0 347 l 0 434 l 0 521 l 0 608 l 87 608 l 87 521 l 87 434 l 87 347 l 87 260 l 87 174 l 87 87 m 87 781 l 87 868 l 174 868 l 174 781 l 87 781 z "},"Ļ":{"ha":521,"x_min":0,"x_max":434,"o":"m 174 -174 l 174 -87 l 260 -87 l 260 -174 l 174 -174 m 347 87 l 434 87 l 434 0 l 347 0 l 260 0 l 174 0 l 87 0 l 87 87 l 174 87 l 260 87 l 347 87 m 87 87 l 0 87 l 0 174 l 0 260 l 0 347 l 0 434 l 0 521 l 0 608 l 87 608 l 87 521 l 87 434 l 87 347 l 87 260 l 87 174 l 87 87 z "},"ļ":{"ha":260,"x_min":0,"x_max":174,"o":"m 0 -174 l 0 -87 l 87 -87 l 87 -174 l 0 -174 m 87 0 l 87 87 l 174 87 l 174 0 l 87 0 m 87 87 l 0 87 l 0 174 l 0 260 l 0 347 l 0 434 l 0 521 l 0 608 l 87 608 l 87 521 l 87 434 l 87 347 l 87 260 l 87 174 l 87 87 z "},"Ľ":{"ha":521,"x_min":0,"x_max":434,"o":"m 260 521 l 260 608 l 347 608 l 347 521 l 260 521 m 347 87 l 434 87 l 434 0 l 347 0 l 260 0 l 174 0 l 87 0 l 87 87 l 174 87 l 260 87 l 347 87 m 87 87 l 0 87 l 0 174 l 0 260 l 0 347 l 0 434 l 0 521 l 0 608 l 87 608 l 87 521 l 87 434 l 87 347 l 87 260 l 87 174 l 87 87 z "},"ľ":{"ha":347,"x_min":0,"x_max":260,"o":"m 87 0 l 87 87 l 174 87 l 174 0 l 87 0 m 174 521 l 174 608 l 260 608 l 260 521 l 174 521 m 87 87 l 0 87 l 0 174 l 0 260 l 0 347 l 0 434 l 0 521 l 0 608 l 87 608 l 87 521 l 87 434 l 87 347 l 87 260 l 87 174 l 87 87 z "},"Ŀ":{"ha":521,"x_min":0,"x_max":434,"o":"m 174 260 l 174 347 l 260 347 l 260 260 l 174 260 m 347 87 l 434 87 l 434 0 l 347 0 l 260 0 l 174 0 l 87 0 l 87 87 l 174 87 l 260 87 l 347 87 m 87 87 l 0 87 l 0 174 l 0 260 l 0 347 l 0 434 l 0 521 l 0 608 l 87 608 l 87 521 l 87 434 l 87 347 l 87 260 l 87 174 l 87 87 z "},"ŀ":{"ha":347,"x_min":0,"x_max":260,"o":"m 87 0 l 87 87 l 174 87 l 174 0 l 87 0 m 174 260 l 174 347 l 260 347 l 260 260 l 174 260 m 87 87 l 0 87 l 0 174 l 0 260 l 0 347 l 0 434 l 0 521 l 0 608 l 87 608 l 87 521 l 87 434 l 87 347 l 87 260 l 87 174 l 87 87 z "},"Ł":{"ha":521,"x_min":-87,"x_max":434,"o":"m 347 87 l 434 87 l 434 0 l 347 0 l 260 0 l 174 0 l 87 0 l 87 87 l 174 87 l 260 87 l 347 87 m 87 87 l 0 87 l 0 174 l -87 174 l -87 260 l 0 260 l 0 347 l 0 434 l 0 521 l 0 608 l 87 608 l 87 521 l 87 434 l 174 434 l 174 347 l 87 347 l 87 260 l 87 174 l 87 87 m 174 434 l 174 521 l 260 521 l 260 434 l 174 434 z "},"ł":{"ha":260,"x_min":-87,"x_max":174,"o":"m 87 0 l 87 87 l 174 87 l 174 0 l 87 0 m 87 87 l 0 87 l 0 174 l -87 174 l -87 260 l 0 260 l 0 347 l 0 434 l 0 521 l 0 608 l 87 608 l 87 521 l 87 434 l 87 347 l 174 347 l 174 260 l 87 260 l 87 174 l 87 87 z "},"Ń":{"ha":521,"x_min":0,"x_max":434,"o":"m 347 0 l 347 87 l 347 174 l 347 260 l 347 347 l 347 434 l 434 434 l 434 347 l 434 260 l 434 174 l 434 87 l 434 0 l 347 0 m 0 0 l 0 87 l 0 174 l 0 260 l 0 347 l 0 434 l 0 521 l 0 608 l 87 608 l 174 608 l 260 608 l 260 521 l 347 521 l 347 434 l 260 434 l 260 521 l 174 521 l 87 521 l 87 434 l 87 347 l 87 260 l 87 174 l 87 87 l 87 0 l 0 0 m 174 694 l 174 781 l 260 781 l 260 694 l 174 694 m 260 781 l 260 868 l 347 868 l 347 781 l 260 781 z "},"ń":{"ha":521,"x_min":0,"x_max":434,"o":"m 347 0 l 347 87 l 347 174 l 347 260 l 347 347 l 434 347 l 434 260 l 434 174 l 434 87 l 434 0 l 347 0 m 0 0 l 0 87 l 0 174 l 0 260 l 0 347 l 0 434 l 87 434 l 87 347 l 174 347 l 174 260 l 87 260 l 87 174 l 87 87 l 87 0 l 0 0 m 174 521 l 174 608 l 260 608 l 260 521 l 174 521 m 347 347 l 260 347 l 174 347 l 174 434 l 260 434 l 347 434 l 347 347 m 260 608 l 260 694 l 347 694 l 347 608 l 260 608 z "},"Ņ":{"ha":521,"x_min":0,"x_max":434,"o":"m 174 -174 l 174 -87 l 260 -87 l 260 -174 l 174 -174 m 347 0 l 347 87 l 347 174 l 347 260 l 347 347 l 347 434 l 434 434 l 434 347 l 434 260 l 434 174 l 434 87 l 434 0 l 347 0 m 0 0 l 0 87 l 0 174 l 0 260 l 0 347 l 0 434 l 0 521 l 0 608 l 87 608 l 174 608 l 260 608 l 260 521 l 347 521 l 347 434 l 260 434 l 260 521 l 174 521 l 87 521 l 87 434 l 87 347 l 87 260 l 87 174 l 87 87 l 87 0 l 0 0 z "},"ņ":{"ha":521,"x_min":0,"x_max":434,"o":"m 174 -174 l 174 -87 l 260 -87 l 260 -174 l 174 -174 m 347 0 l 347 87 l 347 174 l 347 260 l 347 347 l 434 347 l 434 260 l 434 174 l 434 87 l 434 0 l 347 0 m 0 0 l 0 87 l 0 174 l 0 260 l 0 347 l 0 434 l 87 434 l 87 347 l 174 347 l 174 260 l 87 260 l 87 174 l 87 87 l 87 0 l 0 0 m 347 347 l 260 347 l 174 347 l 174 434 l 260 434 l 347 434 l 347 347 z "},"Ň":{"ha":521,"x_min":0,"x_max":434,"o":"m 347 0 l 347 87 l 347 174 l 347 260 l 347 347 l 347 434 l 434 434 l 434 347 l 434 260 l 434 174 l 434 87 l 434 0 l 347 0 m 0 0 l 0 87 l 0 174 l 0 260 l 0 347 l 0 434 l 0 521 l 0 608 l 87 608 l 174 608 l 260 608 l 260 521 l 347 521 l 347 434 l 260 434 l 260 521 l 174 521 l 87 521 l 87 434 l 87 347 l 87 260 l 87 174 l 87 87 l 87 0 l 0 0 m 174 694 l 174 781 l 260 781 l 260 694 l 174 694 m 260 781 l 260 868 l 347 868 l 347 781 l 260 781 m 174 781 l 87 781 l 87 868 l 174 868 l 174 781 z "},"ň":{"ha":521,"x_min":0,"x_max":434,"o":"m 347 0 l 347 87 l 347 174 l 347 260 l 347 347 l 434 347 l 434 260 l 434 174 l 434 87 l 434 0 l 347 0 m 0 0 l 0 87 l 0 174 l 0 260 l 0 347 l 0 434 l 87 434 l 87 347 l 174 347 l 174 260 l 87 260 l 87 174 l 87 87 l 87 0 l 0 0 m 174 521 l 174 608 l 260 608 l 260 521 l 174 521 m 347 347 l 260 347 l 174 347 l 174 434 l 260 434 l 347 434 l 347 347 m 260 608 l 260 694 l 347 694 l 347 608 l 260 608 m 174 608 l 87 608 l 87 694 l 174 694 l 174 608 z "},"ŉ":{"ha":521,"x_min":-87,"x_max":434,"o":"m 347 0 l 347 87 l 347 174 l 347 260 l 347 347 l 434 347 l 434 260 l 434 174 l 434 87 l 434 0 l 347 0 m 0 0 l 0 87 l 0 174 l 0 260 l 0 347 l 0 434 l 87 434 l 87 347 l 174 347 l 174 260 l 87 260 l 87 174 l 87 87 l 87 0 l 0 0 m -87 521 l -87 608 l 0 608 l 0 521 l -87 521 m 347 347 l 260 347 l 174 347 l 174 434 l 260 434 l 347 434 l 347 347 z "},"Ŋ":{"ha":521,"x_min":0,"x_max":434,"o":"m 0 0 l 0 87 l 0 174 l 0 260 l 0 347 l 0 434 l 0 521 l 0 608 l 87 608 l 87 521 l 174 521 l 174 434 l 87 434 l 87 347 l 87 260 l 87 174 l 87 87 l 87 0 l 0 0 m 260 87 l 347 87 l 347 0 l 260 0 l 174 0 l 174 87 l 260 87 m 347 87 l 347 174 l 347 260 l 347 347 l 347 434 l 347 521 l 434 521 l 434 434 l 434 347 l 434 260 l 434 174 l 434 87 l 347 87 m 347 521 l 260 521 l 174 521 l 174 608 l 260 608 l 347 608 l 347 521 z "},"ŋ":{"ha":521,"x_min":0,"x_max":434,"o":"m 0 0 l 0 87 l 0 174 l 0 260 l 0 347 l 0 434 l 87 434 l 87 347 l 174 347 l 174 260 l 87 260 l 87 174 l 87 87 l 87 0 l 0 0 m 260 -87 l 347 -87 l 347 -174 l 260 -174 l 174 -174 l 174 -87 l 260 -87 m 347 -87 l 347 0 l 347 87 l 347 174 l 347 260 l 347 347 l 434 347 l 434 260 l 434 174 l 434 87 l 434 0 l 434 -87 l 347 -87 m 347 347 l 260 347 l 174 347 l 174 434 l 260 434 l 347 434 l 347 347 z "},"Ō":{"ha":521,"x_min":0,"x_max":434,"o":"m 260 87 l 347 87 l 347 0 l 260 0 l 174 0 l 87 0 l 87 87 l 174 87 l 260 87 m 347 87 l 347 174 l 347 260 l 347 347 l 347 434 l 347 521 l 434 521 l 434 434 l 434 347 l 434 260 l 434 174 l 434 87 l 347 87 m 87 87 l 0 87 l 0 174 l 0 260 l 0 347 l 0 434 l 0 521 l 87 521 l 87 434 l 87 347 l 87 260 l 87 174 l 87 87 m 347 521 l 260 521 l 174 521 l 87 521 l 87 608 l 174 608 l 260 608 l 347 608 l 347 521 m 260 781 l 347 781 l 347 694 l 260 694 l 174 694 l 87 694 l 87 781 l 174 781 l 260 781 z "},"ō":{"ha":521,"x_min":0,"x_max":434,"o":"m 260 87 l 347 87 l 347 0 l 260 0 l 174 0 l 87 0 l 87 87 l 174 87 l 260 87 m 347 87 l 347 174 l 347 260 l 347 347 l 434 347 l 434 260 l 434 174 l 434 87 l 347 87 m 87 87 l 0 87 l 0 174 l 0 260 l 0 347 l 87 347 l 87 260 l 87 174 l 87 87 m 347 347 l 260 347 l 174 347 l 87 347 l 87 434 l 174 434 l 260 434 l 347 434 l 347 347 m 260 608 l 347 608 l 347 521 l 260 521 l 174 521 l 87 521 l 87 608 l 174 608 l 260 608 z "},"Ŏ":{"ha":521,"x_min":0,"x_max":434,"o":"m 174 694 l 174 781 l 260 781 l 260 694 l 174 694 m 260 87 l 347 87 l 347 0 l 260 0 l 174 0 l 87 0 l 87 87 l 174 87 l 260 87 m 347 87 l 347 174 l 347 260 l 347 347 l 347 434 l 347 521 l 434 521 l 434 434 l 434 347 l 434 260 l 434 174 l 434 87 l 347 87 m 87 87 l 0 87 l 0 174 l 0 260 l 0 347 l 0 434 l 0 521 l 87 521 l 87 434 l 87 347 l 87 260 l 87 174 l 87 87 m 347 521 l 260 521 l 174 521 l 87 521 l 87 608 l 174 608 l 260 608 l 347 608 l 347 521 m 260 781 l 260 868 l 347 868 l 347 781 l 260 781 m 174 781 l 87 781 l 87 868 l 174 868 l 174 781 z "},"ŏ":{"ha":521,"x_min":0,"x_max":434,"o":"m 174 521 l 174 608 l 260 608 l 260 521 l 174 521 m 260 87 l 347 87 l 347 0 l 260 0 l 174 0 l 87 0 l 87 87 l 174 87 l 260 87 m 347 87 l 347 174 l 347 260 l 347 347 l 434 347 l 434 260 l 434 174 l 434 87 l 347 87 m 87 87 l 0 87 l 0 174 l 0 260 l 0 347 l 87 347 l 87 260 l 87 174 l 87 87 m 347 347 l 260 347 l 174 347 l 87 347 l 87 434 l 174 434 l 260 434 l 347 434 l 347 347 m 260 608 l 260 694 l 347 694 l 347 608 l 260 608 m 174 608 l 87 608 l 87 694 l 174 694 l 174 608 z "},"Ő":{"ha":521,"x_min":0,"x_max":434,"o":"m 260 694 l 260 781 l 347 781 l 347 694 l 260 694 m 87 694 l 87 781 l 174 781 l 174 694 l 87 694 m 260 87 l 347 87 l 347 0 l 260 0 l 174 0 l 87 0 l 87 87 l 174 87 l 260 87 m 347 87 l 347 174 l 347 260 l 347 347 l 347 434 l 347 521 l 434 521 l 434 434 l 434 347 l 434 260 l 434 174 l 434 87 l 347 87 m 87 87 l 0 87 l 0 174 l 0 260 l 0 347 l 0 434 l 0 521 l 87 521 l 87 434 l 87 347 l 87 260 l 87 174 l 87 87 m 347 521 l 260 521 l 174 521 l 87 521 l 87 608 l 174 608 l 260 608 l 347 608 l 347 521 z "},"ő":{"ha":521,"x_min":0,"x_max":434,"o":"m 260 521 l 260 608 l 347 608 l 347 521 l 260 521 m 87 521 l 87 608 l 174 608 l 174 521 l 87 521 m 260 87 l 347 87 l 347 0 l 260 0 l 174 0 l 87 0 l 87 87 l 174 87 l 260 87 m 347 87 l 347 174 l 347 260 l 347 347 l 434 347 l 434 260 l 434 174 l 434 87 l 347 87 m 87 87 l 0 87 l 0 174 l 0 260 l 0 347 l 87 347 l 87 260 l 87 174 l 87 87 m 347 347 l 260 347 l 174 347 l 87 347 l 87 434 l 174 434 l 260 434 l 347 434 l 347 347 z "},"Œ":{"ha":694,"x_min":0,"x_max":608,"o":"m 521 87 l 608 87 l 608 0 l 521 0 l 434 0 l 347 0 l 347 87 l 434 87 l 521 87 m 174 87 l 260 87 l 260 0 l 174 0 l 87 0 l 87 87 l 174 87 m 347 87 l 260 87 l 260 174 l 260 260 l 260 347 l 260 434 l 260 521 l 347 521 l 347 434 l 434 434 l 521 434 l 521 347 l 434 347 l 347 347 l 347 260 l 347 174 l 347 87 m 87 87 l 0 87 l 0 174 l 0 260 l 0 347 l 0 434 l 0 521 l 87 521 l 87 434 l 87 347 l 87 260 l 87 174 l 87 87 m 521 608 l 608 608 l 608 521 l 521 521 l 434 521 l 347 521 l 347 608 l 434 608 l 521 608 m 260 521 l 174 521 l 87 521 l 87 608 l 174 608 l 260 608 l 260 521 z "},"œ":{"ha":694,"x_min":0,"x_max":608,"o":"m 434 87 l 521 87 l 521 0 l 434 0 l 347 0 l 347 87 l 434 87 m 174 87 l 260 87 l 260 0 l 174 0 l 87 0 l 87 87 l 174 87 m 347 87 l 260 87 l 260 174 l 260 260 l 260 347 l 347 347 l 347 260 l 434 260 l 521 260 l 521 347 l 608 347 l 608 260 l 608 174 l 521 174 l 434 174 l 347 174 l 347 87 m 87 87 l 0 87 l 0 174 l 0 260 l 0 347 l 87 347 l 87 260 l 87 174 l 87 87 m 521 347 l 434 347 l 347 347 l 347 434 l 434 434 l 521 434 l 521 347 m 260 347 l 174 347 l 87 347 l 87 434 l 174 434 l 260 434 l 260 347 z "},"Ŕ":{"ha":521,"x_min":0,"x_max":434,"o":"m 347 0 l 347 87 l 347 174 l 434 174 l 434 87 l 434 0 l 347 0 m 0 0 l 0 87 l 0 174 l 0 260 l 0 347 l 0 434 l 0 521 l 0 608 l 87 608 l 174 608 l 260 608 l 347 608 l 347 521 l 434 521 l 434 434 l 434 347 l 434 260 l 347 260 l 347 347 l 347 434 l 347 521 l 260 521 l 174 521 l 87 521 l 87 434 l 87 347 l 87 260 l 174 260 l 260 260 l 347 260 l 347 174 l 260 174 l 174 174 l 87 174 l 87 87 l 87 0 l 0 0 m 174 694 l 174 781 l 260 781 l 260 694 l 174 694 m 260 781 l 260 868 l 347 868 l 347 781 l 260 781 z "},"ŕ":{"ha":434,"x_min":0,"x_max":347,"o":"m 0 0 l 0 87 l 0 174 l 0 260 l 0 347 l 0 434 l 87 434 l 87 347 l 174 347 l 174 260 l 87 260 l 87 174 l 87 87 l 87 0 l 0 0 m 87 521 l 87 608 l 174 608 l 174 521 l 87 521 m 260 434 l 347 434 l 347 347 l 260 347 l 174 347 l 174 434 l 260 434 m 174 608 l 174 694 l 260 694 l 260 608 l 174 608 z "},"Ŗ":{"ha":521,"x_min":0,"x_max":434,"o":"m 174 -174 l 174 -87 l 260 -87 l 260 -174 l 174 -174 m 347 0 l 347 87 l 347 174 l 434 174 l 434 87 l 434 0 l 347 0 m 0 0 l 0 87 l 0 174 l 0 260 l 0 347 l 0 434 l 0 521 l 0 608 l 87 608 l 174 608 l 260 608 l 347 608 l 347 521 l 434 521 l 434 434 l 434 347 l 434 260 l 347 260 l 347 347 l 347 434 l 347 521 l 260 521 l 174 521 l 87 521 l 87 434 l 87 347 l 87 260 l 174 260 l 260 260 l 347 260 l 347 174 l 260 174 l 174 174 l 87 174 l 87 87 l 87 0 l 0 0 z "},"ŗ":{"ha":434,"x_min":0,"x_max":347,"o":"m 0 -174 l 0 -87 l 87 -87 l 87 -174 l 0 -174 m 0 0 l 0 87 l 0 174 l 0 260 l 0 347 l 0 434 l 87 434 l 87 347 l 174 347 l 174 260 l 87 260 l 87 174 l 87 87 l 87 0 l 0 0 m 260 434 l 347 434 l 347 347 l 260 347 l 174 347 l 174 434 l 260 434 z "},"Ř":{"ha":521,"x_min":0,"x_max":434,"o":"m 347 0 l 347 87 l 347 174 l 434 174 l 434 87 l 434 0 l 347 0 m 0 0 l 0 87 l 0 174 l 0 260 l 0 347 l 0 434 l 0 521 l 0 608 l 87 608 l 174 608 l 260 608 l 347 608 l 347 521 l 434 521 l 434 434 l 434 347 l 434 260 l 347 260 l 347 347 l 347 434 l 347 521 l 260 521 l 174 521 l 87 521 l 87 434 l 87 347 l 87 260 l 174 260 l 260 260 l 347 260 l 347 174 l 260 174 l 174 174 l 87 174 l 87 87 l 87 0 l 0 0 m 174 694 l 174 781 l 260 781 l 260 694 l 174 694 m 260 781 l 260 868 l 347 868 l 347 781 l 260 781 m 174 781 l 87 781 l 87 868 l 174 868 l 174 781 z "},"ř":{"ha":434,"x_min":0,"x_max":347,"o":"m 0 0 l 0 87 l 0 174 l 0 260 l 0 347 l 0 434 l 87 434 l 87 347 l 174 347 l 174 260 l 87 260 l 87 174 l 87 87 l 87 0 l 0 0 m 87 521 l 87 608 l 174 608 l 174 521 l 87 521 m 260 434 l 347 434 l 347 347 l 260 347 l 174 347 l 174 434 l 260 434 m 174 608 l 174 694 l 260 694 l 260 608 l 174 608 m 87 608 l 0 608 l 0 694 l 87 694 l 87 608 z "},"Ś":{"ha":521,"x_min":0,"x_max":434,"o":"m 174 694 l 174 781 l 260 781 l 260 694 l 174 694 m 260 87 l 347 87 l 347 0 l 260 0 l 174 0 l 87 0 l 0 0 l 0 87 l 87 87 l 174 87 l 260 87 m 347 87 l 347 174 l 347 260 l 434 260 l 434 174 l 434 87 l 347 87 m 347 260 l 260 260 l 174 260 l 87 260 l 87 347 l 174 347 l 260 347 l 347 347 l 347 260 m 87 347 l 0 347 l 0 434 l 0 521 l 87 521 l 87 434 l 87 347 m 347 608 l 434 608 l 434 521 l 347 521 l 260 521 l 174 521 l 87 521 l 87 608 l 174 608 l 260 608 l 347 608 m 260 781 l 260 868 l 347 868 l 347 781 l 260 781 z "},"ś":{"ha":521,"x_min":0,"x_max":434,"o":"m 174 521 l 174 608 l 260 608 l 260 521 l 174 521 m 260 87 l 347 87 l 347 0 l 260 0 l 174 0 l 87 0 l 0 0 l 0 87 l 87 87 l 174 87 l 260 87 m 347 87 l 347 174 l 434 174 l 434 87 l 347 87 m 347 174 l 260 174 l 174 174 l 87 174 l 87 260 l 174 260 l 260 260 l 347 260 l 347 174 m 87 260 l 0 260 l 0 347 l 87 347 l 87 260 m 347 434 l 434 434 l 434 347 l 347 347 l 260 347 l 174 347 l 87 347 l 87 434 l 174 434 l 260 434 l 347 434 m 260 608 l 260 694 l 347 694 l 347 608 l 260 608 z "},"Ŝ":{"ha":521,"x_min":0,"x_max":434,"o":"m 260 694 l 260 781 l 347 781 l 347 694 l 260 694 m 87 694 l 87 781 l 174 781 l 174 694 l 87 694 m 260 87 l 347 87 l 347 0 l 260 0 l 174 0 l 87 0 l 0 0 l 0 87 l 87 87 l 174 87 l 260 87 m 347 87 l 347 174 l 347 260 l 434 260 l 434 174 l 434 87 l 347 87 m 347 260 l 260 260 l 174 260 l 87 260 l 87 347 l 174 347 l 260 347 l 347 347 l 347 260 m 87 347 l 0 347 l 0 434 l 0 521 l 87 521 l 87 434 l 87 347 m 347 608 l 434 608 l 434 521 l 347 521 l 260 521 l 174 521 l 87 521 l 87 608 l 174 608 l 260 608 l 347 608 m 260 781 l 174 781 l 174 868 l 260 868 l 260 781 z "},"ŝ":{"ha":521,"x_min":0,"x_max":434,"o":"m 260 521 l 260 608 l 347 608 l 347 521 l 260 521 m 87 521 l 87 608 l 174 608 l 174 521 l 87 521 m 260 87 l 347 87 l 347 0 l 260 0 l 174 0 l 87 0 l 0 0 l 0 87 l 87 87 l 174 87 l 260 87 m 347 87 l 347 174 l 434 174 l 434 87 l 347 87 m 347 174 l 260 174 l 174 174 l 87 174 l 87 260 l 174 260 l 260 260 l 347 260 l 347 174 m 87 260 l 0 260 l 0 347 l 87 347 l 87 260 m 347 434 l 434 434 l 434 347 l 347 347 l 260 347 l 174 347 l 87 347 l 87 434 l 174 434 l 260 434 l 347 434 m 260 608 l 174 608 l 174 694 l 260 694 l 260 608 z "},"Ş":{"ha":521,"x_min":0,"x_max":434,"o":"m 174 -174 l 174 -87 l 260 -87 l 260 -174 l 174 -174 m 260 -87 l 260 0 l 174 0 l 87 0 l 0 0 l 0 87 l 87 87 l 174 87 l 260 87 l 347 87 l 347 0 l 347 -87 l 260 -87 m 347 87 l 347 174 l 347 260 l 434 260 l 434 174 l 434 87 l 347 87 m 347 260 l 260 260 l 174 260 l 87 260 l 87 347 l 174 347 l 260 347 l 347 347 l 347 260 m 87 347 l 0 347 l 0 434 l 0 521 l 87 521 l 87 434 l 87 347 m 347 608 l 434 608 l 434 521 l 347 521 l 260 521 l 174 521 l 87 521 l 87 608 l 174 608 l 260 608 l 347 608 z "},"ş":{"ha":521,"x_min":0,"x_max":434,"o":"m 87 -174 l 87 -87 l 174 -87 l 174 -174 l 87 -174 m 174 -87 l 174 0 l 87 0 l 0 0 l 0 87 l 87 87 l 174 87 l 260 87 l 347 87 l 347 0 l 260 0 l 260 -87 l 174 -87 m 347 87 l 347 174 l 434 174 l 434 87 l 347 87 m 347 174 l 260 174 l 174 174 l 87 174 l 87 260 l 174 260 l 260 260 l 347 260 l 347 174 m 87 260 l 0 260 l 0 347 l 87 347 l 87 260 m 347 434 l 434 434 l 434 347 l 347 347 l 260 347 l 174 347 l 87 347 l 87 434 l 174 434 l 260 434 l 347 434 z "},"Š":{"ha":521,"x_min":0,"x_max":434,"o":"m 174 694 l 174 781 l 260 781 l 260 694 l 174 694 m 260 87 l 347 87 l 347 0 l 260 0 l 174 0 l 87 0 l 0 0 l 0 87 l 87 87 l 174 87 l 260 87 m 347 87 l 347 174 l 347 260 l 434 260 l 434 174 l 434 87 l 347 87 m 347 260 l 260 260 l 174 260 l 87 260 l 87 347 l 174 347 l 260 347 l 347 347 l 347 260 m 87 347 l 0 347 l 0 434 l 0 521 l 87 521 l 87 434 l 87 347 m 347 608 l 434 608 l 434 521 l 347 521 l 260 521 l 174 521 l 87 521 l 87 608 l 174 608 l 260 608 l 347 608 m 260 781 l 260 868 l 347 868 l 347 781 l 260 781 m 174 781 l 87 781 l 87 868 l 174 868 l 174 781 z "},"š":{"ha":521,"x_min":0,"x_max":434,"o":"m 174 521 l 174 608 l 260 608 l 260 521 l 174 521 m 260 87 l 347 87 l 347 0 l 260 0 l 174 0 l 87 0 l 0 0 l 0 87 l 87 87 l 174 87 l 260 87 m 347 87 l 347 174 l 434 174 l 434 87 l 347 87 m 347 174 l 260 174 l 174 174 l 87 174 l 87 260 l 174 260 l 260 260 l 347 260 l 347 174 m 87 260 l 0 260 l 0 347 l 87 347 l 87 260 m 347 434 l 434 434 l 434 347 l 347 347 l 260 347 l 174 347 l 87 347 l 87 434 l 174 434 l 260 434 l 347 434 m 260 608 l 260 694 l 347 694 l 347 608 l 260 608 m 174 608 l 87 608 l 87 694 l 174 694 l 174 608 z "},"Ţ":{"ha":521,"x_min":0,"x_max":434,"o":"m 174 -174 l 174 -87 l 260 -87 l 260 -174 l 174 -174 m 260 -87 l 260 0 l 347 0 l 347 -87 l 260 -87 m 260 0 l 174 0 l 174 87 l 174 174 l 174 260 l 174 347 l 174 434 l 174 521 l 87 521 l 0 521 l 0 608 l 87 608 l 174 608 l 260 608 l 347 608 l 434 608 l 434 521 l 347 521 l 260 521 l 260 434 l 260 347 l 260 260 l 260 174 l 260 87 l 260 0 z "},"ţ":{"ha":434,"x_min":0,"x_max":347,"o":"m 87 -174 l 87 -87 l 174 -87 l 174 -174 l 87 -174 m 174 -87 l 174 0 l 174 87 l 260 87 l 347 87 l 347 0 l 260 0 l 260 -87 l 174 -87 m 174 87 l 87 87 l 87 174 l 87 260 l 87 347 l 0 347 l 0 434 l 87 434 l 87 521 l 87 608 l 174 608 l 174 521 l 174 434 l 260 434 l 347 434 l 347 347 l 260 347 l 174 347 l 174 260 l 174 174 l 174 87 z "},"Ť":{"ha":521,"x_min":0,"x_max":434,"o":"m 174 0 l 174 87 l 174 174 l 174 260 l 174 347 l 174 434 l 174 521 l 87 521 l 0 521 l 0 608 l 87 608 l 174 608 l 260 608 l 347 608 l 434 608 l 434 521 l 347 521 l 260 521 l 260 434 l 260 347 l 260 260 l 260 174 l 260 87 l 260 0 l 174 0 m 174 694 l 174 781 l 260 781 l 260 694 l 174 694 m 260 781 l 260 868 l 347 868 l 347 781 l 260 781 m 174 781 l 87 781 l 87 868 l 174 868 l 174 781 z "},"ť":{"ha":434,"x_min":0,"x_max":347,"o":"m 260 521 l 260 608 l 347 608 l 347 521 l 260 521 m 260 87 l 347 87 l 347 0 l 260 0 l 174 0 l 174 87 l 260 87 m 174 87 l 87 87 l 87 174 l 87 260 l 87 347 l 0 347 l 0 434 l 87 434 l 87 521 l 87 608 l 174 608 l 174 521 l 174 434 l 260 434 l 347 434 l 347 347 l 260 347 l 174 347 l 174 260 l 174 174 l 174 87 z "},"Ŧ":{"ha":521,"x_min":0,"x_max":434,"o":"m 174 0 l 174 87 l 174 174 l 174 260 l 87 260 l 87 347 l 174 347 l 174 434 l 174 521 l 87 521 l 0 521 l 0 608 l 87 608 l 174 608 l 260 608 l 347 608 l 434 608 l 434 521 l 347 521 l 260 521 l 260 434 l 260 347 l 347 347 l 347 260 l 260 260 l 260 174 l 260 87 l 260 0 l 174 0 z "},"ŧ":{"ha":434,"x_min":0,"x_max":347,"o":"m 260 87 l 347 87 l 347 0 l 260 0 l 174 0 l 174 87 l 260 87 m 174 87 l 87 87 l 87 174 l 0 174 l 0 260 l 87 260 l 87 347 l 0 347 l 0 434 l 87 434 l 87 521 l 87 608 l 174 608 l 174 521 l 174 434 l 260 434 l 347 434 l 347 347 l 260 347 l 174 347 l 174 260 l 260 260 l 260 174 l 174 174 l 174 87 z "},"Ũ":{"ha":521,"x_min":0,"x_max":434,"o":"m 260 694 l 260 781 l 347 781 l 347 694 l 260 694 m 87 694 l 87 781 l 174 781 l 174 694 l 87 694 m 260 87 l 347 87 l 347 0 l 260 0 l 174 0 l 87 0 l 87 87 l 174 87 l 260 87 m 347 87 l 347 174 l 347 260 l 347 347 l 347 434 l 347 521 l 347 608 l 434 608 l 434 521 l 434 434 l 434 347 l 434 260 l 434 174 l 434 87 l 347 87 m 87 87 l 0 87 l 0 174 l 0 260 l 0 347 l 0 434 l 0 521 l 0 608 l 87 608 l 87 521 l 87 434 l 87 347 l 87 260 l 87 174 l 87 87 m 347 781 l 347 868 l 434 868 l 434 781 l 347 781 m 260 781 l 174 781 l 174 868 l 260 868 l 260 781 z "},"ũ":{"ha":521,"x_min":0,"x_max":434,"o":"m 347 0 l 347 87 l 260 87 l 260 0 l 174 0 l 87 0 l 87 87 l 174 87 l 260 87 l 260 174 l 347 174 l 347 260 l 347 347 l 347 434 l 434 434 l 434 347 l 434 260 l 434 174 l 434 87 l 434 0 l 347 0 m 260 521 l 260 608 l 347 608 l 347 521 l 260 521 m 87 521 l 87 608 l 174 608 l 174 521 l 87 521 m 87 87 l 0 87 l 0 174 l 0 260 l 0 347 l 0 434 l 87 434 l 87 347 l 87 260 l 87 174 l 87 87 m 347 608 l 347 694 l 434 694 l 434 608 l 347 608 m 260 608 l 174 608 l 174 694 l 260 694 l 260 608 z "},"Ū":{"ha":521,"x_min":0,"x_max":434,"o":"m 260 87 l 347 87 l 347 0 l 260 0 l 174 0 l 87 0 l 87 87 l 174 87 l 260 87 m 347 87 l 347 174 l 347 260 l 347 347 l 347 434 l 347 521 l 347 608 l 434 608 l 434 521 l 434 434 l 434 347 l 434 260 l 434 174 l 434 87 l 347 87 m 87 87 l 0 87 l 0 174 l 0 260 l 0 347 l 0 434 l 0 521 l 0 608 l 87 608 l 87 521 l 87 434 l 87 347 l 87 260 l 87 174 l 87 87 m 260 781 l 347 781 l 347 694 l 260 694 l 174 694 l 87 694 l 87 781 l 174 781 l 260 781 z "},"ū":{"ha":521,"x_min":0,"x_max":434,"o":"m 347 0 l 347 87 l 260 87 l 260 0 l 174 0 l 87 0 l 87 87 l 174 87 l 260 87 l 260 174 l 347 174 l 347 260 l 347 347 l 347 434 l 434 434 l 434 347 l 434 260 l 434 174 l 434 87 l 434 0 l 347 0 m 87 87 l 0 87 l 0 174 l 0 260 l 0 347 l 0 434 l 87 434 l 87 347 l 87 260 l 87 174 l 87 87 m 260 608 l 347 608 l 347 521 l 260 521 l 174 521 l 87 521 l 87 608 l 174 608 l 260 608 z "},"Ŭ":{"ha":521,"x_min":0,"x_max":434,"o":"m 174 694 l 174 781 l 260 781 l 260 694 l 174 694 m 260 87 l 347 87 l 347 0 l 260 0 l 174 0 l 87 0 l 87 87 l 174 87 l 260 87 m 347 87 l 347 174 l 347 260 l 347 347 l 347 434 l 347 521 l 347 608 l 434 608 l 434 521 l 434 434 l 434 347 l 434 260 l 434 174 l 434 87 l 347 87 m 87 87 l 0 87 l 0 174 l 0 260 l 0 347 l 0 434 l 0 521 l 0 608 l 87 608 l 87 521 l 87 434 l 87 347 l 87 260 l 87 174 l 87 87 m 260 781 l 260 868 l 347 868 l 347 781 l 260 781 m 174 781 l 87 781 l 87 868 l 174 868 l 174 781 z "},"ŭ":{"ha":521,"x_min":0,"x_max":434,"o":"m 347 0 l 347 87 l 260 87 l 260 0 l 174 0 l 87 0 l 87 87 l 174 87 l 260 87 l 260 174 l 347 174 l 347 260 l 347 347 l 347 434 l 434 434 l 434 347 l 434 260 l 434 174 l 434 87 l 434 0 l 347 0 m 174 521 l 174 608 l 260 608 l 260 521 l 174 521 m 87 87 l 0 87 l 0 174 l 0 260 l 0 347 l 0 434 l 87 434 l 87 347 l 87 260 l 87 174 l 87 87 m 260 608 l 260 694 l 347 694 l 347 608 l 260 608 m 174 608 l 87 608 l 87 694 l 174 694 l 174 608 z "},"Ů":{"ha":521,"x_min":0,"x_max":434,"o":"m 174 608 l 174 694 l 260 694 l 260 608 l 174 608 m 260 87 l 347 87 l 347 0 l 260 0 l 174 0 l 87 0 l 87 87 l 174 87 l 260 87 m 347 87 l 347 174 l 347 260 l 347 347 l 347 434 l 347 521 l 347 608 l 434 608 l 434 521 l 434 434 l 434 347 l 434 260 l 434 174 l 434 87 l 347 87 m 87 87 l 0 87 l 0 174 l 0 260 l 0 347 l 0 434 l 0 521 l 0 608 l 87 608 l 87 521 l 87 434 l 87 347 l 87 260 l 87 174 l 87 87 m 260 694 l 260 781 l 347 781 l 347 694 l 260 694 m 174 694 l 87 694 l 87 781 l 174 781 l 174 694 m 260 781 l 174 781 l 174 868 l 260 868 l 260 781 z "},"ů":{"ha":521,"x_min":0,"x_max":434,"o":"m 347 0 l 347 87 l 260 87 l 260 0 l 174 0 l 87 0 l 87 87 l 174 87 l 260 87 l 260 174 l 347 174 l 347 260 l 347 347 l 347 434 l 434 434 l 434 347 l 434 260 l 434 174 l 434 87 l 434 0 l 347 0 m 174 434 l 174 521 l 260 521 l 260 434 l 174 434 m 87 87 l 0 87 l 0 174 l 0 260 l 0 347 l 0 434 l 87 434 l 87 347 l 87 260 l 87 174 l 87 87 m 260 521 l 260 608 l 347 608 l 347 521 l 260 521 m 174 521 l 87 521 l 87 608 l 174 608 l 174 521 m 260 608 l 174 608 l 174 694 l 260 694 l 260 608 z "},"Ű":{"ha":521,"x_min":0,"x_max":434,"o":"m 260 694 l 260 781 l 347 781 l 347 694 l 260 694 m 87 694 l 87 781 l 174 781 l 174 694 l 87 694 m 260 87 l 347 87 l 347 0 l 260 0 l 174 0 l 87 0 l 87 87 l 174 87 l 260 87 m 347 87 l 347 174 l 347 260 l 347 347 l 347 434 l 347 521 l 347 608 l 434 608 l 434 521 l 434 434 l 434 347 l 434 260 l 434 174 l 434 87 l 347 87 m 87 87 l 0 87 l 0 174 l 0 260 l 0 347 l 0 434 l 0 521 l 0 608 l 87 608 l 87 521 l 87 434 l 87 347 l 87 260 l 87 174 l 87 87 z "},"ű":{"ha":521,"x_min":0,"x_max":434,"o":"m 347 0 l 347 87 l 260 87 l 260 0 l 174 0 l 87 0 l 87 87 l 174 87 l 260 87 l 260 174 l 347 174 l 347 260 l 347 347 l 347 434 l 434 434 l 434 347 l 434 260 l 434 174 l 434 87 l 434 0 l 347 0 m 260 521 l 260 608 l 347 608 l 347 521 l 260 521 m 87 521 l 87 608 l 174 608 l 174 521 l 87 521 m 87 87 l 0 87 l 0 174 l 0 260 l 0 347 l 0 434 l 87 434 l 87 347 l 87 260 l 87 174 l 87 87 z "},"Ų":{"ha":521,"x_min":0,"x_max":434,"o":"m 174 -174 l 174 -87 l 260 -87 l 260 -174 l 174 -174 m 260 -87 l 260 0 l 174 0 l 87 0 l 87 87 l 174 87 l 260 87 l 347 87 l 347 0 l 347 -87 l 260 -87 m 347 87 l 347 174 l 347 260 l 347 347 l 347 434 l 347 521 l 347 608 l 434 608 l 434 521 l 434 434 l 434 347 l 434 260 l 434 174 l 434 87 l 347 87 m 87 87 l 0 87 l 0 174 l 0 260 l 0 347 l 0 434 l 0 521 l 0 608 l 87 608 l 87 521 l 87 434 l 87 347 l 87 260 l 87 174 l 87 87 z "},"ų":{"ha":521,"x_min":0,"x_max":434,"o":"m 347 -174 l 347 -87 l 434 -87 l 434 -174 l 347 -174 m 347 -87 l 260 -87 l 260 0 l 347 0 l 347 -87 m 347 0 l 347 87 l 260 87 l 260 0 l 174 0 l 87 0 l 87 87 l 174 87 l 260 87 l 260 174 l 347 174 l 347 260 l 347 347 l 347 434 l 434 434 l 434 347 l 434 260 l 434 174 l 434 87 l 434 0 l 347 0 m 87 87 l 0 87 l 0 174 l 0 260 l 0 347 l 0 434 l 87 434 l 87 347 l 87 260 l 87 174 l 87 87 z "},"Ŵ":{"ha":694,"x_min":0,"x_max":608,"o":"m 347 694 l 347 781 l 434 781 l 434 694 l 347 694 m 174 694 l 174 781 l 260 781 l 260 694 l 174 694 m 434 87 l 521 87 l 521 0 l 434 0 l 347 0 l 347 87 l 434 87 m 174 87 l 260 87 l 260 0 l 174 0 l 87 0 l 87 87 l 174 87 m 521 87 l 521 174 l 521 260 l 521 347 l 521 434 l 521 521 l 521 608 l 608 608 l 608 521 l 608 434 l 608 347 l 608 260 l 608 174 l 608 87 l 521 87 m 347 87 l 260 87 l 260 174 l 260 260 l 260 347 l 260 434 l 347 434 l 347 347 l 347 260 l 347 174 l 347 87 m 87 87 l 0 87 l 0 174 l 0 260 l 0 347 l 0 434 l 0 521 l 0 608 l 87 608 l 87 521 l 87 434 l 87 347 l 87 260 l 87 174 l 87 87 m 347 781 l 260 781 l 260 868 l 347 868 l 347 781 z "},"ŵ":{"ha":694,"x_min":0,"x_max":608,"o":"m 347 521 l 347 608 l 434 608 l 434 521 l 347 521 m 174 521 l 174 608 l 260 608 l 260 521 l 174 521 m 434 87 l 521 87 l 521 0 l 434 0 l 347 0 l 347 87 l 434 87 m 174 87 l 260 87 l 260 0 l 174 0 l 87 0 l 87 87 l 174 87 m 521 87 l 521 174 l 521 260 l 521 347 l 521 434 l 608 434 l 608 347 l 608 260 l 608 174 l 608 87 l 521 87 m 347 87 l 260 87 l 260 174 l 260 260 l 260 347 l 347 347 l 347 260 l 347 174 l 347 87 m 87 87 l 0 87 l 0 174 l 0 260 l 0 347 l 0 434 l 87 434 l 87 347 l 87 260 l 87 174 l 87 87 m 347 608 l 260 608 l 260 694 l 347 694 l 347 608 z "},"Ŷ":{"ha":521,"x_min":0,"x_max":434,"o":"m 174 0 l 174 87 l 174 174 l 174 260 l 260 260 l 260 174 l 260 87 l 260 0 l 174 0 m 260 694 l 260 781 l 347 781 l 347 694 l 260 694 m 87 694 l 87 781 l 174 781 l 174 694 l 87 694 m 260 260 l 260 347 l 347 347 l 347 260 l 260 260 m 174 260 l 87 260 l 87 347 l 174 347 l 174 260 m 347 347 l 347 434 l 347 521 l 347 608 l 434 608 l 434 521 l 434 434 l 434 347 l 347 347 m 87 347 l 0 347 l 0 434 l 0 521 l 0 608 l 87 608 l 87 521 l 87 434 l 87 347 m 260 781 l 174 781 l 174 868 l 260 868 l 260 781 z "},"ŷ":{"ha":521,"x_min":0,"x_max":434,"o":"m 260 521 l 260 608 l 347 608 l 347 521 l 260 521 m 87 521 l 87 608 l 174 608 l 174 521 l 87 521 m 260 -87 l 347 -87 l 347 -174 l 260 -174 l 174 -174 l 87 -174 l 0 -174 l 0 -87 l 87 -87 l 174 -87 l 260 -87 m 347 -87 l 347 0 l 260 0 l 174 0 l 87 0 l 87 87 l 174 87 l 260 87 l 347 87 l 347 174 l 347 260 l 347 347 l 347 434 l 434 434 l 434 347 l 434 260 l 434 174 l 434 87 l 434 0 l 434 -87 l 347 -87 m 87 87 l 0 87 l 0 174 l 0 260 l 0 347 l 0 434 l 87 434 l 87 347 l 87 260 l 87 174 l 87 87 m 260 608 l 174 608 l 174 694 l 260 694 l 260 608 z "},"Ÿ":{"ha":521,"x_min":0,"x_max":434,"o":"m 174 0 l 174 87 l 174 174 l 174 260 l 260 260 l 260 174 l 260 87 l 260 0 l 174 0 m 260 694 l 260 781 l 347 781 l 347 694 l 260 694 m 87 694 l 87 781 l 174 781 l 174 694 l 87 694 m 260 260 l 260 347 l 347 347 l 347 260 l 260 260 m 174 260 l 87 260 l 87 347 l 174 347 l 174 260 m 347 347 l 347 434 l 347 521 l 347 608 l 434 608 l 434 521 l 434 434 l 434 347 l 347 347 m 87 347 l 0 347 l 0 434 l 0 521 l 0 608 l 87 608 l 87 521 l 87 434 l 87 347 z "},"Ź":{"ha":521,"x_min":0,"x_max":434,"o":"m 174 694 l 174 781 l 260 781 l 260 694 l 174 694 m 347 87 l 434 87 l 434 0 l 347 0 l 260 0 l 174 0 l 87 0 l 0 0 l 0 87 l 0 174 l 87 174 l 87 87 l 174 87 l 260 87 l 347 87 m 87 174 l 87 260 l 174 260 l 174 174 l 87 174 m 174 260 l 174 347 l 260 347 l 260 260 l 174 260 m 260 347 l 260 434 l 347 434 l 347 347 l 260 347 m 347 434 l 347 521 l 260 521 l 174 521 l 87 521 l 0 521 l 0 608 l 87 608 l 174 608 l 260 608 l 347 608 l 434 608 l 434 521 l 434 434 l 347 434 m 260 781 l 260 868 l 347 868 l 347 781 l 260 781 z "},"ź":{"ha":521,"x_min":0,"x_max":434,"o":"m 174 521 l 174 608 l 260 608 l 260 521 l 174 521 m 347 87 l 434 87 l 434 0 l 347 0 l 260 0 l 174 0 l 87 0 l 0 0 l 0 87 l 87 87 l 87 174 l 174 174 l 174 87 l 260 87 l 347 87 m 174 174 l 174 260 l 260 260 l 260 174 l 174 174 m 260 260 l 260 347 l 174 347 l 87 347 l 0 347 l 0 434 l 87 434 l 174 434 l 260 434 l 347 434 l 434 434 l 434 347 l 347 347 l 347 260 l 260 260 m 260 608 l 260 694 l 347 694 l 347 608 l 260 608 z "},"Ż":{"ha":521,"x_min":0,"x_max":434,"o":"m 174 694 l 174 781 l 260 781 l 260 694 l 174 694 m 347 87 l 434 87 l 434 0 l 347 0 l 260 0 l 174 0 l 87 0 l 0 0 l 0 87 l 0 174 l 87 174 l 87 87 l 174 87 l 260 87 l 347 87 m 87 174 l 87 260 l 174 260 l 174 174 l 87 174 m 174 260 l 174 347 l 260 347 l 260 260 l 174 260 m 260 347 l 260 434 l 347 434 l 347 347 l 260 347 m 347 434 l 347 521 l 260 521 l 174 521 l 87 521 l 0 521 l 0 608 l 87 608 l 174 608 l 260 608 l 347 608 l 434 608 l 434 521 l 434 434 l 347 434 z "},"ż":{"ha":521,"x_min":0,"x_max":434,"o":"m 174 521 l 174 608 l 260 608 l 260 521 l 174 521 m 347 87 l 434 87 l 434 0 l 347 0 l 260 0 l 174 0 l 87 0 l 0 0 l 0 87 l 87 87 l 87 174 l 174 174 l 174 87 l 260 87 l 347 87 m 174 174 l 174 260 l 260 260 l 260 174 l 174 174 m 260 260 l 260 347 l 174 347 l 87 347 l 0 347 l 0 434 l 87 434 l 174 434 l 260 434 l 347 434 l 434 434 l 434 347 l 347 347 l 347 260 l 260 260 z "},"Ž":{"ha":521,"x_min":0,"x_max":434,"o":"m 174 694 l 174 781 l 260 781 l 260 694 l 174 694 m 347 87 l 434 87 l 434 0 l 347 0 l 260 0 l 174 0 l 87 0 l 0 0 l 0 87 l 0 174 l 87 174 l 87 87 l 174 87 l 260 87 l 347 87 m 87 174 l 87 260 l 174 260 l 174 174 l 87 174 m 174 260 l 174 347 l 260 347 l 260 260 l 174 260 m 260 347 l 260 434 l 347 434 l 347 347 l 260 347 m 347 434 l 347 521 l 260 521 l 174 521 l 87 521 l 0 521 l 0 608 l 87 608 l 174 608 l 260 608 l 347 608 l 434 608 l 434 521 l 434 434 l 347 434 m 260 781 l 260 868 l 347 868 l 347 781 l 260 781 m 174 781 l 87 781 l 87 868 l 174 868 l 174 781 z "},"ž":{"ha":521,"x_min":0,"x_max":434,"o":"m 174 521 l 174 608 l 260 608 l 260 521 l 174 521 m 347 87 l 434 87 l 434 0 l 347 0 l 260 0 l 174 0 l 87 0 l 0 0 l 0 87 l 87 87 l 87 174 l 174 174 l 174 87 l 260 87 l 347 87 m 174 174 l 174 260 l 260 260 l 260 174 l 174 174 m 260 260 l 260 347 l 174 347 l 87 347 l 0 347 l 0 434 l 87 434 l 174 434 l 260 434 l 347 434 l 434 434 l 434 347 l 347 347 l 347 260 l 260 260 m 260 608 l 260 694 l 347 694 l 347 608 l 260 608 m 174 608 l 87 608 l 87 694 l 174 694 l 174 608 z "},"€":{"ha":521,"x_min":0,"x_max":434,"o":"m 347 87 l 434 87 l 434 0 l 347 0 l 260 0 l 174 0 l 174 87 l 260 87 l 347 87 m 174 87 l 87 87 l 87 174 l 0 174 l 0 260 l 87 260 l 87 347 l 0 347 l 0 434 l 87 434 l 87 521 l 174 521 l 174 434 l 260 434 l 347 434 l 347 347 l 260 347 l 174 347 l 174 260 l 260 260 l 347 260 l 347 174 l 260 174 l 174 174 l 174 87 m 347 608 l 434 608 l 434 521 l 347 521 l 260 521 l 174 521 l 174 608 l 260 608 l 347 608 z "},"　":{"ha":1389,"x_min":0,"x_max":0,"o":""}}}
